M48
; DRILL file {KiCad 5.1.10} date Sat May 22 08:45:24 2021
; FORMAT={-:-/ absolute / inch / decimal}
; #@! TF.CreationDate,2021-05-22T08:45:24+02:00
; #@! TF.GenerationSoftware,Kicad,Pcbnew,5.1.10
; #@! TF.FileFunction,Plated,1,2,PTH
FMAT,2
INCH
T1C0.0079
%
G90
G05
T1
X3.9987Y-2.73
X4.04Y-2.73
X4.15Y-2.77
X4.1768Y-3.0083
X4.1863Y-3.1689
X4.26Y-2.76
X4.29Y-2.65
X4.33Y-3.11
X4.41Y-2.78
X4.45Y-2.9
X4.52Y-2.82
X4.53Y-2.88
X4.6057Y-2.8543
X4.6214Y-2.6286
X4.68Y-3.0
X4.6814Y-2.6286
X4.6857Y-2.8543
X4.75Y-2.72
X4.7555Y-2.97
X4.91Y-2.72
X4.92Y-2.61
X4.9346Y-3.0984
X4.9378Y-2.8657
X4.95Y-2.6207
X4.99Y-2.97
X4.99Y-3.01
X5.03Y-2.73
X5.09Y-3.98
X5.14Y-2.91
X5.21Y-3.98
X5.29Y-3.04
X5.34Y-2.65
X5.36Y-3.14
X5.39Y-3.67
X5.41Y-2.65
X5.42Y-3.03
X5.43Y-2.76
X5.43Y-2.87
X5.45Y-3.05
X5.46Y-3.61
X5.47Y-2.91
X5.4933Y-3.0267
X5.5Y-2.66
X5.54Y-2.77
X5.55Y-3.05
X5.62Y-2.77
X5.64Y-2.66
X5.66Y-3.87
X5.6693Y-2.92
X5.78Y-3.04
T0
M30
