%TF.GenerationSoftware,KiCad,Pcbnew,5.1.9*%
%TF.CreationDate,2021-01-23T11:26:48+01:00*%
%TF.ProjectId,Heart_NE555,48656172-745f-44e4-9535-35352e6b6963,rev?*%
%TF.SameCoordinates,Original*%
%TF.FileFunction,Copper,L2,Bot*%
%TF.FilePolarity,Positive*%
%FSLAX46Y46*%
G04 Gerber Fmt 4.6, Leading zero omitted, Abs format (unit mm)*
G04 Created by KiCad (PCBNEW 5.1.9) date 2021-01-23 11:26:48*
%MOMM*%
%LPD*%
G01*
G04 APERTURE LIST*
%TA.AperFunction,SMDPad,CuDef*%
%ADD10R,0.800000X1.300000*%
%TD*%
%TA.AperFunction,SMDPad,CuDef*%
%ADD11R,2.600000X3.600000*%
%TD*%
%TA.AperFunction,ViaPad*%
%ADD12C,0.450000*%
%TD*%
%TA.AperFunction,Conductor*%
%ADD13C,0.200000*%
%TD*%
%TA.AperFunction,Conductor*%
%ADD14C,0.254000*%
%TD*%
%TA.AperFunction,Conductor*%
%ADD15C,0.100000*%
%TD*%
G04 APERTURE END LIST*
D10*
%TO.P,U4,16*%
%TO.N,VCC*%
X104262000Y-75032000D03*
%TO.P,U4,15*%
%TO.N,Net-(U3-Pad3)*%
X105542000Y-75032000D03*
%TO.P,U4,14*%
%TO.N,Net-(D1-Pad2)*%
X106802000Y-75032000D03*
%TO.P,U4,13*%
%TO.N,GND*%
X108072000Y-75032000D03*
%TO.P,U4,12*%
%TO.N,Net-(U4-Pad12)*%
X109352000Y-75032000D03*
%TO.P,U4,11*%
%TO.N,Net-(U2-Pad15)*%
X110622000Y-75032000D03*
%TO.P,U4,10*%
%TO.N,Net-(D25-Pad2)*%
X111882000Y-75032000D03*
%TO.P,U4,9*%
%TO.N,Net-(U4-Pad9)*%
X113162000Y-75032000D03*
%TO.P,U4,8*%
%TO.N,GND*%
X113162000Y-68732000D03*
%TO.P,U4,7*%
%TO.N,Net-(D24-Pad2)*%
X111882000Y-68732000D03*
%TO.P,U4,6*%
%TO.N,Net-(D28-Pad2)*%
X110622000Y-68732000D03*
%TO.P,U4,5*%
%TO.N,Net-(D27-Pad2)*%
X109352000Y-68732000D03*
%TO.P,U4,4*%
%TO.N,Net-(D23-Pad2)*%
X108072000Y-68732000D03*
%TO.P,U4,3*%
%TO.N,Net-(U4-Pad3)*%
X106802000Y-68732000D03*
%TO.P,U4,2*%
%TO.N,Net-(D22-Pad2)*%
X105542000Y-68732000D03*
%TO.P,U4,1*%
%TO.N,Net-(D26-Pad2)*%
X104262000Y-68732000D03*
%TD*%
%TO.P,U3,16*%
%TO.N,VCC*%
X120264000Y-74016000D03*
%TO.P,U3,15*%
%TO.N,Net-(D5-Pad2)*%
X121544000Y-74016000D03*
%TO.P,U3,14*%
%TO.N,Net-(D3-Pad2)*%
X122804000Y-74016000D03*
%TO.P,U3,13*%
%TO.N,Net-(D1-Pad1)*%
X124074000Y-74016000D03*
%TO.P,U3,12*%
%TO.N,Net-(U3-Pad12)*%
X125354000Y-74016000D03*
%TO.P,U3,11*%
%TO.N,Net-(D1-Pad1)*%
X126624000Y-74016000D03*
%TO.P,U3,10*%
%TO.N,Net-(D17-Pad2)*%
X127884000Y-74016000D03*
%TO.P,U3,9*%
%TO.N,Net-(D21-Pad2)*%
X129164000Y-74016000D03*
%TO.P,U3,8*%
%TO.N,GND*%
X129164000Y-67716000D03*
%TO.P,U3,7*%
%TO.N,Net-(D16-Pad2)*%
X127884000Y-67716000D03*
%TO.P,U3,6*%
%TO.N,Net-(D20-Pad2)*%
X126624000Y-67716000D03*
%TO.P,U3,5*%
%TO.N,Net-(D19-Pad2)*%
X125354000Y-67716000D03*
%TO.P,U3,4*%
%TO.N,Net-(D15-Pad2)*%
X124074000Y-67716000D03*
%TO.P,U3,3*%
%TO.N,Net-(U3-Pad3)*%
X122804000Y-67716000D03*
%TO.P,U3,2*%
%TO.N,Net-(D14-Pad2)*%
X121544000Y-67716000D03*
%TO.P,U3,1*%
%TO.N,Net-(D18-Pad2)*%
X120264000Y-67716000D03*
%TD*%
%TO.P,U2,16*%
%TO.N,VCC*%
X135504000Y-75286000D03*
%TO.P,U2,15*%
%TO.N,Net-(U2-Pad15)*%
X136784000Y-75286000D03*
%TO.P,U2,14*%
%TO.N,Net-(D2-Pad1)*%
X138044000Y-75286000D03*
%TO.P,U2,13*%
%TO.N,Net-(D3-Pad1)*%
X139314000Y-75286000D03*
%TO.P,U2,12*%
%TO.N,Net-(U2-Pad12)*%
X140594000Y-75286000D03*
%TO.P,U2,11*%
%TO.N,Net-(D3-Pad1)*%
X141864000Y-75286000D03*
%TO.P,U2,10*%
%TO.N,Net-(D9-Pad2)*%
X143124000Y-75286000D03*
%TO.P,U2,9*%
%TO.N,Net-(D13-Pad2)*%
X144404000Y-75286000D03*
%TO.P,U2,8*%
%TO.N,GND*%
X144404000Y-68986000D03*
%TO.P,U2,7*%
%TO.N,Net-(D8-Pad2)*%
X143124000Y-68986000D03*
%TO.P,U2,6*%
%TO.N,Net-(D12-Pad2)*%
X141864000Y-68986000D03*
%TO.P,U2,5*%
%TO.N,Net-(D11-Pad2)*%
X140594000Y-68986000D03*
%TO.P,U2,4*%
%TO.N,Net-(D7-Pad2)*%
X139314000Y-68986000D03*
%TO.P,U2,3*%
%TO.N,Net-(D5-Pad2)*%
X138044000Y-68986000D03*
%TO.P,U2,2*%
%TO.N,Net-(D6-Pad2)*%
X136784000Y-68986000D03*
%TO.P,U2,1*%
%TO.N,Net-(D10-Pad2)*%
X135504000Y-68986000D03*
%TD*%
%TO.P,U1,8*%
%TO.N,VCC*%
%TA.AperFunction,SMDPad,CuDef*%
G36*
G01*
X108942000Y-95527000D02*
X108942000Y-95227000D01*
G75*
G02*
X109092000Y-95077000I150000J0D01*
G01*
X110742000Y-95077000D01*
G75*
G02*
X110892000Y-95227000I0J-150000D01*
G01*
X110892000Y-95527000D01*
G75*
G02*
X110742000Y-95677000I-150000J0D01*
G01*
X109092000Y-95677000D01*
G75*
G02*
X108942000Y-95527000I0J150000D01*
G01*
G37*
%TD.AperFunction*%
%TO.P,U1,7*%
%TO.N,Net-(R1-Pad2)*%
%TA.AperFunction,SMDPad,CuDef*%
G36*
G01*
X108942000Y-94257000D02*
X108942000Y-93957000D01*
G75*
G02*
X109092000Y-93807000I150000J0D01*
G01*
X110742000Y-93807000D01*
G75*
G02*
X110892000Y-93957000I0J-150000D01*
G01*
X110892000Y-94257000D01*
G75*
G02*
X110742000Y-94407000I-150000J0D01*
G01*
X109092000Y-94407000D01*
G75*
G02*
X108942000Y-94257000I0J150000D01*
G01*
G37*
%TD.AperFunction*%
%TO.P,U1,6*%
%TO.N,Net-(C1-Pad1)*%
%TA.AperFunction,SMDPad,CuDef*%
G36*
G01*
X108942000Y-92987000D02*
X108942000Y-92687000D01*
G75*
G02*
X109092000Y-92537000I150000J0D01*
G01*
X110742000Y-92537000D01*
G75*
G02*
X110892000Y-92687000I0J-150000D01*
G01*
X110892000Y-92987000D01*
G75*
G02*
X110742000Y-93137000I-150000J0D01*
G01*
X109092000Y-93137000D01*
G75*
G02*
X108942000Y-92987000I0J150000D01*
G01*
G37*
%TD.AperFunction*%
%TO.P,U1,5*%
%TO.N,Net-(C2-Pad1)*%
%TA.AperFunction,SMDPad,CuDef*%
G36*
G01*
X108942000Y-91717000D02*
X108942000Y-91417000D01*
G75*
G02*
X109092000Y-91267000I150000J0D01*
G01*
X110742000Y-91267000D01*
G75*
G02*
X110892000Y-91417000I0J-150000D01*
G01*
X110892000Y-91717000D01*
G75*
G02*
X110742000Y-91867000I-150000J0D01*
G01*
X109092000Y-91867000D01*
G75*
G02*
X108942000Y-91717000I0J150000D01*
G01*
G37*
%TD.AperFunction*%
%TO.P,U1,4*%
%TO.N,VCC*%
%TA.AperFunction,SMDPad,CuDef*%
G36*
G01*
X103992000Y-91717000D02*
X103992000Y-91417000D01*
G75*
G02*
X104142000Y-91267000I150000J0D01*
G01*
X105792000Y-91267000D01*
G75*
G02*
X105942000Y-91417000I0J-150000D01*
G01*
X105942000Y-91717000D01*
G75*
G02*
X105792000Y-91867000I-150000J0D01*
G01*
X104142000Y-91867000D01*
G75*
G02*
X103992000Y-91717000I0J150000D01*
G01*
G37*
%TD.AperFunction*%
%TO.P,U1,3*%
%TO.N,Net-(D2-Pad1)*%
%TA.AperFunction,SMDPad,CuDef*%
G36*
G01*
X103992000Y-92987000D02*
X103992000Y-92687000D01*
G75*
G02*
X104142000Y-92537000I150000J0D01*
G01*
X105792000Y-92537000D01*
G75*
G02*
X105942000Y-92687000I0J-150000D01*
G01*
X105942000Y-92987000D01*
G75*
G02*
X105792000Y-93137000I-150000J0D01*
G01*
X104142000Y-93137000D01*
G75*
G02*
X103992000Y-92987000I0J150000D01*
G01*
G37*
%TD.AperFunction*%
%TO.P,U1,2*%
%TO.N,Net-(C1-Pad1)*%
%TA.AperFunction,SMDPad,CuDef*%
G36*
G01*
X103992000Y-94257000D02*
X103992000Y-93957000D01*
G75*
G02*
X104142000Y-93807000I150000J0D01*
G01*
X105792000Y-93807000D01*
G75*
G02*
X105942000Y-93957000I0J-150000D01*
G01*
X105942000Y-94257000D01*
G75*
G02*
X105792000Y-94407000I-150000J0D01*
G01*
X104142000Y-94407000D01*
G75*
G02*
X103992000Y-94257000I0J150000D01*
G01*
G37*
%TD.AperFunction*%
%TO.P,U1,1*%
%TO.N,GND*%
%TA.AperFunction,SMDPad,CuDef*%
G36*
G01*
X103992000Y-95527000D02*
X103992000Y-95227000D01*
G75*
G02*
X104142000Y-95077000I150000J0D01*
G01*
X105792000Y-95077000D01*
G75*
G02*
X105942000Y-95227000I0J-150000D01*
G01*
X105942000Y-95527000D01*
G75*
G02*
X105792000Y-95677000I-150000J0D01*
G01*
X104142000Y-95677000D01*
G75*
G02*
X103992000Y-95527000I0J150000D01*
G01*
G37*
%TD.AperFunction*%
%TD*%
%TO.P,SW1,2*%
%TO.N,VCC*%
%TA.AperFunction,SMDPad,CuDef*%
G36*
G01*
X134000000Y-101750000D02*
X134000000Y-100250000D01*
G75*
G02*
X134750000Y-99500000I750000J0D01*
G01*
X139250000Y-99500000D01*
G75*
G02*
X140000000Y-100250000I0J-750000D01*
G01*
X140000000Y-101750000D01*
G75*
G02*
X139250000Y-102500000I-750000J0D01*
G01*
X134750000Y-102500000D01*
G75*
G02*
X134000000Y-101750000I0J750000D01*
G01*
G37*
%TD.AperFunction*%
%TO.P,SW1,1*%
%TO.N,+3V0*%
%TA.AperFunction,SMDPad,CuDef*%
G36*
G01*
X110000000Y-101750000D02*
X110000000Y-100250000D01*
G75*
G02*
X110750000Y-99500000I750000J0D01*
G01*
X115250000Y-99500000D01*
G75*
G02*
X116000000Y-100250000I0J-750000D01*
G01*
X116000000Y-101750000D01*
G75*
G02*
X115250000Y-102500000I-750000J0D01*
G01*
X110750000Y-102500000D01*
G75*
G02*
X110000000Y-101750000I0J750000D01*
G01*
G37*
%TD.AperFunction*%
%TD*%
%TO.P,R5,2*%
%TO.N,/Common-R*%
%TA.AperFunction,SMDPad,CuDef*%
G36*
G01*
X144700001Y-100600000D02*
X143799999Y-100600000D01*
G75*
G02*
X143550000Y-100350001I0J249999D01*
G01*
X143550000Y-99649999D01*
G75*
G02*
X143799999Y-99400000I249999J0D01*
G01*
X144700001Y-99400000D01*
G75*
G02*
X144950000Y-99649999I0J-249999D01*
G01*
X144950000Y-100350001D01*
G75*
G02*
X144700001Y-100600000I-249999J0D01*
G01*
G37*
%TD.AperFunction*%
%TO.P,R5,1*%
%TO.N,GND*%
%TA.AperFunction,SMDPad,CuDef*%
G36*
G01*
X144700001Y-102600000D02*
X143799999Y-102600000D01*
G75*
G02*
X143550000Y-102350001I0J249999D01*
G01*
X143550000Y-101649999D01*
G75*
G02*
X143799999Y-101400000I249999J0D01*
G01*
X144700001Y-101400000D01*
G75*
G02*
X144950000Y-101649999I0J-249999D01*
G01*
X144950000Y-102350001D01*
G75*
G02*
X144700001Y-102600000I-249999J0D01*
G01*
G37*
%TD.AperFunction*%
%TD*%
%TO.P,R4,2*%
%TO.N,Net-(D3-Pad2)*%
%TA.AperFunction,SMDPad,CuDef*%
G36*
G01*
X145434000Y-84270001D02*
X145434000Y-83369999D01*
G75*
G02*
X145683999Y-83120000I249999J0D01*
G01*
X146384001Y-83120000D01*
G75*
G02*
X146634000Y-83369999I0J-249999D01*
G01*
X146634000Y-84270001D01*
G75*
G02*
X146384001Y-84520000I-249999J0D01*
G01*
X145683999Y-84520000D01*
G75*
G02*
X145434000Y-84270001I0J249999D01*
G01*
G37*
%TD.AperFunction*%
%TO.P,R4,1*%
%TO.N,VCC*%
%TA.AperFunction,SMDPad,CuDef*%
G36*
G01*
X143434000Y-84270001D02*
X143434000Y-83369999D01*
G75*
G02*
X143683999Y-83120000I249999J0D01*
G01*
X144384001Y-83120000D01*
G75*
G02*
X144634000Y-83369999I0J-249999D01*
G01*
X144634000Y-84270001D01*
G75*
G02*
X144384001Y-84520000I-249999J0D01*
G01*
X143683999Y-84520000D01*
G75*
G02*
X143434000Y-84270001I0J249999D01*
G01*
G37*
%TD.AperFunction*%
%TD*%
%TO.P,R3,2*%
%TO.N,Net-(D1-Pad2)*%
%TA.AperFunction,SMDPad,CuDef*%
G36*
G01*
X104794000Y-84270001D02*
X104794000Y-83369999D01*
G75*
G02*
X105043999Y-83120000I249999J0D01*
G01*
X105744001Y-83120000D01*
G75*
G02*
X105994000Y-83369999I0J-249999D01*
G01*
X105994000Y-84270001D01*
G75*
G02*
X105744001Y-84520000I-249999J0D01*
G01*
X105043999Y-84520000D01*
G75*
G02*
X104794000Y-84270001I0J249999D01*
G01*
G37*
%TD.AperFunction*%
%TO.P,R3,1*%
%TO.N,VCC*%
%TA.AperFunction,SMDPad,CuDef*%
G36*
G01*
X102794000Y-84270001D02*
X102794000Y-83369999D01*
G75*
G02*
X103043999Y-83120000I249999J0D01*
G01*
X103744001Y-83120000D01*
G75*
G02*
X103994000Y-83369999I0J-249999D01*
G01*
X103994000Y-84270001D01*
G75*
G02*
X103744001Y-84520000I-249999J0D01*
G01*
X103043999Y-84520000D01*
G75*
G02*
X102794000Y-84270001I0J249999D01*
G01*
G37*
%TD.AperFunction*%
%TD*%
%TO.P,R2,2*%
%TO.N,Net-(C1-Pad1)*%
%TA.AperFunction,SMDPad,CuDef*%
G36*
G01*
X114954000Y-96716001D02*
X114954000Y-95815999D01*
G75*
G02*
X115203999Y-95566000I249999J0D01*
G01*
X115904001Y-95566000D01*
G75*
G02*
X116154000Y-95815999I0J-249999D01*
G01*
X116154000Y-96716001D01*
G75*
G02*
X115904001Y-96966000I-249999J0D01*
G01*
X115203999Y-96966000D01*
G75*
G02*
X114954000Y-96716001I0J249999D01*
G01*
G37*
%TD.AperFunction*%
%TO.P,R2,1*%
%TO.N,Net-(R1-Pad2)*%
%TA.AperFunction,SMDPad,CuDef*%
G36*
G01*
X112954000Y-96716001D02*
X112954000Y-95815999D01*
G75*
G02*
X113203999Y-95566000I249999J0D01*
G01*
X113904001Y-95566000D01*
G75*
G02*
X114154000Y-95815999I0J-249999D01*
G01*
X114154000Y-96716001D01*
G75*
G02*
X113904001Y-96966000I-249999J0D01*
G01*
X113203999Y-96966000D01*
G75*
G02*
X112954000Y-96716001I0J249999D01*
G01*
G37*
%TD.AperFunction*%
%TD*%
%TO.P,R1,2*%
%TO.N,Net-(R1-Pad2)*%
%TA.AperFunction,SMDPad,CuDef*%
G36*
G01*
X107638001Y-100692000D02*
X106737999Y-100692000D01*
G75*
G02*
X106488000Y-100442001I0J249999D01*
G01*
X106488000Y-99741999D01*
G75*
G02*
X106737999Y-99492000I249999J0D01*
G01*
X107638001Y-99492000D01*
G75*
G02*
X107888000Y-99741999I0J-249999D01*
G01*
X107888000Y-100442001D01*
G75*
G02*
X107638001Y-100692000I-249999J0D01*
G01*
G37*
%TD.AperFunction*%
%TO.P,R1,1*%
%TO.N,VCC*%
%TA.AperFunction,SMDPad,CuDef*%
G36*
G01*
X107638001Y-102692000D02*
X106737999Y-102692000D01*
G75*
G02*
X106488000Y-102442001I0J249999D01*
G01*
X106488000Y-101741999D01*
G75*
G02*
X106737999Y-101492000I249999J0D01*
G01*
X107638001Y-101492000D01*
G75*
G02*
X107888000Y-101741999I0J-249999D01*
G01*
X107888000Y-102442001D01*
G75*
G02*
X107638001Y-102692000I-249999J0D01*
G01*
G37*
%TD.AperFunction*%
%TD*%
%TO.P,D4,2*%
%TO.N,Net-(D3-Pad2)*%
%TA.AperFunction,SMDPad,CuDef*%
G36*
G01*
X145484000Y-79444001D02*
X145484000Y-78543999D01*
G75*
G02*
X145733999Y-78294000I249999J0D01*
G01*
X146384001Y-78294000D01*
G75*
G02*
X146634000Y-78543999I0J-249999D01*
G01*
X146634000Y-79444001D01*
G75*
G02*
X146384001Y-79694000I-249999J0D01*
G01*
X145733999Y-79694000D01*
G75*
G02*
X145484000Y-79444001I0J249999D01*
G01*
G37*
%TD.AperFunction*%
%TO.P,D4,1*%
%TO.N,Net-(D2-Pad1)*%
%TA.AperFunction,SMDPad,CuDef*%
G36*
G01*
X143434000Y-79444001D02*
X143434000Y-78543999D01*
G75*
G02*
X143683999Y-78294000I249999J0D01*
G01*
X144334001Y-78294000D01*
G75*
G02*
X144584000Y-78543999I0J-249999D01*
G01*
X144584000Y-79444001D01*
G75*
G02*
X144334001Y-79694000I-249999J0D01*
G01*
X143683999Y-79694000D01*
G75*
G02*
X143434000Y-79444001I0J249999D01*
G01*
G37*
%TD.AperFunction*%
%TD*%
%TO.P,D3,2*%
%TO.N,Net-(D3-Pad2)*%
%TA.AperFunction,SMDPad,CuDef*%
G36*
G01*
X140404000Y-79444001D02*
X140404000Y-78543999D01*
G75*
G02*
X140653999Y-78294000I249999J0D01*
G01*
X141304001Y-78294000D01*
G75*
G02*
X141554000Y-78543999I0J-249999D01*
G01*
X141554000Y-79444001D01*
G75*
G02*
X141304001Y-79694000I-249999J0D01*
G01*
X140653999Y-79694000D01*
G75*
G02*
X140404000Y-79444001I0J249999D01*
G01*
G37*
%TD.AperFunction*%
%TO.P,D3,1*%
%TO.N,Net-(D3-Pad1)*%
%TA.AperFunction,SMDPad,CuDef*%
G36*
G01*
X138354000Y-79444001D02*
X138354000Y-78543999D01*
G75*
G02*
X138603999Y-78294000I249999J0D01*
G01*
X139254001Y-78294000D01*
G75*
G02*
X139504000Y-78543999I0J-249999D01*
G01*
X139504000Y-79444001D01*
G75*
G02*
X139254001Y-79694000I-249999J0D01*
G01*
X138603999Y-79694000D01*
G75*
G02*
X138354000Y-79444001I0J249999D01*
G01*
G37*
%TD.AperFunction*%
%TD*%
%TO.P,D2,2*%
%TO.N,Net-(D1-Pad2)*%
%TA.AperFunction,SMDPad,CuDef*%
G36*
G01*
X110432000Y-79444001D02*
X110432000Y-78543999D01*
G75*
G02*
X110681999Y-78294000I249999J0D01*
G01*
X111332001Y-78294000D01*
G75*
G02*
X111582000Y-78543999I0J-249999D01*
G01*
X111582000Y-79444001D01*
G75*
G02*
X111332001Y-79694000I-249999J0D01*
G01*
X110681999Y-79694000D01*
G75*
G02*
X110432000Y-79444001I0J249999D01*
G01*
G37*
%TD.AperFunction*%
%TO.P,D2,1*%
%TO.N,Net-(D2-Pad1)*%
%TA.AperFunction,SMDPad,CuDef*%
G36*
G01*
X108382000Y-79444001D02*
X108382000Y-78543999D01*
G75*
G02*
X108631999Y-78294000I249999J0D01*
G01*
X109282001Y-78294000D01*
G75*
G02*
X109532000Y-78543999I0J-249999D01*
G01*
X109532000Y-79444001D01*
G75*
G02*
X109282001Y-79694000I-249999J0D01*
G01*
X108631999Y-79694000D01*
G75*
G02*
X108382000Y-79444001I0J249999D01*
G01*
G37*
%TD.AperFunction*%
%TD*%
%TO.P,D1,2*%
%TO.N,Net-(D1-Pad2)*%
%TA.AperFunction,SMDPad,CuDef*%
G36*
G01*
X104844000Y-79444001D02*
X104844000Y-78543999D01*
G75*
G02*
X105093999Y-78294000I249999J0D01*
G01*
X105744001Y-78294000D01*
G75*
G02*
X105994000Y-78543999I0J-249999D01*
G01*
X105994000Y-79444001D01*
G75*
G02*
X105744001Y-79694000I-249999J0D01*
G01*
X105093999Y-79694000D01*
G75*
G02*
X104844000Y-79444001I0J249999D01*
G01*
G37*
%TD.AperFunction*%
%TO.P,D1,1*%
%TO.N,Net-(D1-Pad1)*%
%TA.AperFunction,SMDPad,CuDef*%
G36*
G01*
X102794000Y-79444001D02*
X102794000Y-78543999D01*
G75*
G02*
X103043999Y-78294000I249999J0D01*
G01*
X103694001Y-78294000D01*
G75*
G02*
X103944000Y-78543999I0J-249999D01*
G01*
X103944000Y-79444001D01*
G75*
G02*
X103694001Y-79694000I-249999J0D01*
G01*
X103043999Y-79694000D01*
G75*
G02*
X102794000Y-79444001I0J249999D01*
G01*
G37*
%TD.AperFunction*%
%TD*%
%TO.P,C3,2*%
%TO.N,GND*%
%TA.AperFunction,SMDPad,CuDef*%
G36*
G01*
X103091000Y-98356000D02*
X102141000Y-98356000D01*
G75*
G02*
X101891000Y-98106000I0J250000D01*
G01*
X101891000Y-97431000D01*
G75*
G02*
X102141000Y-97181000I250000J0D01*
G01*
X103091000Y-97181000D01*
G75*
G02*
X103341000Y-97431000I0J-250000D01*
G01*
X103341000Y-98106000D01*
G75*
G02*
X103091000Y-98356000I-250000J0D01*
G01*
G37*
%TD.AperFunction*%
%TO.P,C3,1*%
%TO.N,VCC*%
%TA.AperFunction,SMDPad,CuDef*%
G36*
G01*
X103091000Y-100431000D02*
X102141000Y-100431000D01*
G75*
G02*
X101891000Y-100181000I0J250000D01*
G01*
X101891000Y-99506000D01*
G75*
G02*
X102141000Y-99256000I250000J0D01*
G01*
X103091000Y-99256000D01*
G75*
G02*
X103341000Y-99506000I0J-250000D01*
G01*
X103341000Y-100181000D01*
G75*
G02*
X103091000Y-100431000I-250000J0D01*
G01*
G37*
%TD.AperFunction*%
%TD*%
%TO.P,C2,2*%
%TO.N,GND*%
%TA.AperFunction,SMDPad,CuDef*%
G36*
G01*
X106901000Y-87942000D02*
X105951000Y-87942000D01*
G75*
G02*
X105701000Y-87692000I0J250000D01*
G01*
X105701000Y-87017000D01*
G75*
G02*
X105951000Y-86767000I250000J0D01*
G01*
X106901000Y-86767000D01*
G75*
G02*
X107151000Y-87017000I0J-250000D01*
G01*
X107151000Y-87692000D01*
G75*
G02*
X106901000Y-87942000I-250000J0D01*
G01*
G37*
%TD.AperFunction*%
%TO.P,C2,1*%
%TO.N,Net-(C2-Pad1)*%
%TA.AperFunction,SMDPad,CuDef*%
G36*
G01*
X106901000Y-90017000D02*
X105951000Y-90017000D01*
G75*
G02*
X105701000Y-89767000I0J250000D01*
G01*
X105701000Y-89092000D01*
G75*
G02*
X105951000Y-88842000I250000J0D01*
G01*
X106901000Y-88842000D01*
G75*
G02*
X107151000Y-89092000I0J-250000D01*
G01*
X107151000Y-89767000D01*
G75*
G02*
X106901000Y-90017000I-250000J0D01*
G01*
G37*
%TD.AperFunction*%
%TD*%
%TO.P,C1,2*%
%TO.N,GND*%
%TA.AperFunction,SMDPad,CuDef*%
G36*
G01*
X102583000Y-87942000D02*
X101633000Y-87942000D01*
G75*
G02*
X101383000Y-87692000I0J250000D01*
G01*
X101383000Y-87017000D01*
G75*
G02*
X101633000Y-86767000I250000J0D01*
G01*
X102583000Y-86767000D01*
G75*
G02*
X102833000Y-87017000I0J-250000D01*
G01*
X102833000Y-87692000D01*
G75*
G02*
X102583000Y-87942000I-250000J0D01*
G01*
G37*
%TD.AperFunction*%
%TO.P,C1,1*%
%TO.N,Net-(C1-Pad1)*%
%TA.AperFunction,SMDPad,CuDef*%
G36*
G01*
X102583000Y-90017000D02*
X101633000Y-90017000D01*
G75*
G02*
X101383000Y-89767000I0J250000D01*
G01*
X101383000Y-89092000D01*
G75*
G02*
X101633000Y-88842000I250000J0D01*
G01*
X102583000Y-88842000D01*
G75*
G02*
X102833000Y-89092000I0J-250000D01*
G01*
X102833000Y-89767000D01*
G75*
G02*
X102583000Y-90017000I-250000J0D01*
G01*
G37*
%TD.AperFunction*%
%TD*%
D11*
%TO.P,BT1,1*%
%TO.N,+3V0*%
X110350000Y-86000000D03*
%TO.P,BT1,2*%
%TO.N,GND*%
X139650000Y-86000000D03*
%TD*%
D12*
%TO.N,VCC*%
X129286000Y-101092000D03*
X132334000Y-101092000D03*
%TO.N,Net-(D1-Pad2)*%
X106089458Y-76411897D03*
X106332332Y-80489301D03*
X109982000Y-78994000D03*
%TO.N,Net-(D3-Pad1)*%
X138430000Y-77470000D03*
X139529232Y-76878768D03*
%TO.N,Net-(D2-Pad1)*%
X136144000Y-79756000D03*
X137668000Y-76962000D03*
%TO.N,Net-(D3-Pad2)*%
X134366000Y-77216000D03*
X140970000Y-77468990D03*
%TO.N,Net-(D5-Pad2)*%
X120789000Y-75438000D03*
%TO.N,Net-(D6-Pad2)*%
X137414000Y-67310000D03*
%TO.N,Net-(D7-Pad2)*%
X136906000Y-93218000D03*
X138684000Y-91694000D03*
X139700000Y-67564000D03*
%TO.N,Net-(D8-Pad2)*%
X143256000Y-67564000D03*
%TO.N,Net-(D9-Pad2)*%
X146812000Y-77216000D03*
%TO.N,Net-(D10-Pad2)*%
X135636000Y-67310000D03*
X137922000Y-72898000D03*
X138938000Y-73914000D03*
%TO.N,Net-(D11-Pad2)*%
X140716000Y-70358000D03*
%TO.N,Net-(D12-Pad2)*%
X142748000Y-70358000D03*
%TO.N,Net-(D13-Pad2)*%
X144000000Y-74168000D03*
%TO.N,Net-(D14-Pad2)*%
X137922000Y-70104000D03*
%TO.N,Net-(D15-Pad2)*%
X124968000Y-66294000D03*
%TO.N,Net-(D16-Pad2)*%
X127762000Y-69342000D03*
%TO.N,Net-(D17-Pad2)*%
X126746000Y-75438000D03*
%TO.N,Net-(D18-Pad2)*%
X120650000Y-69088000D03*
%TO.N,Net-(D19-Pad2)*%
X124714000Y-69088000D03*
%TO.N,Net-(D20-Pad2)*%
X125730000Y-66565000D03*
%TO.N,Net-(D21-Pad2)*%
X130556000Y-73914000D03*
X119015990Y-72500010D03*
X116983990Y-72500010D03*
%TO.N,Net-(D22-Pad2)*%
X105410000Y-70358000D03*
%TO.N,Net-(D23-Pad2)*%
X108204000Y-70104000D03*
%TO.N,Net-(D24-Pad2)*%
X115062000Y-73152000D03*
X114808000Y-71628000D03*
X112014000Y-70612000D03*
%TO.N,Net-(D25-Pad2)*%
X113030000Y-73660000D03*
%TO.N,Net-(D26-Pad2)*%
X102616000Y-69342000D03*
%TO.N,Net-(D27-Pad2)*%
X108966000Y-67310000D03*
%TO.N,Net-(D28-Pad2)*%
X101565999Y-69342000D03*
%TO.N,Net-(U2-Pad15)*%
X126746000Y-76454000D03*
X118872000Y-76199982D03*
%TO.N,Net-(U3-Pad3)*%
X118908001Y-66765999D03*
X117384001Y-66765999D03*
%TO.N,/Common-R*%
X143764000Y-98298000D03*
%TO.N,Net-(D1-Pad1)*%
X125340000Y-78700000D03*
X125420000Y-72790000D03*
%TD*%
D13*
%TO.N,+3V0*%
X113000000Y-101000000D02*
X115702000Y-98298000D01*
X115702000Y-98298000D02*
X116840000Y-98298000D01*
X116840000Y-98298000D02*
X119634000Y-95504000D01*
X119634000Y-95284000D02*
X110350000Y-86000000D01*
X119634000Y-95504000D02*
X119634000Y-95284000D01*
%TO.N,Net-(C1-Pad1)*%
X112125000Y-92837000D02*
X109917000Y-92837000D01*
X115554000Y-96266000D02*
X112125000Y-92837000D01*
X109247010Y-93506990D02*
X109917000Y-92837000D01*
X105567010Y-93506990D02*
X109247010Y-93506990D01*
X104967000Y-94107000D02*
X105567010Y-93506990D01*
X103992000Y-94107000D02*
X104967000Y-94107000D01*
X102108000Y-92223000D02*
X103992000Y-94107000D01*
X102108000Y-89429500D02*
X102108000Y-92223000D01*
%TO.N,Net-(C2-Pad1)*%
X107779500Y-89429500D02*
X109917000Y-91567000D01*
X106426000Y-89429500D02*
X107779500Y-89429500D01*
%TO.N,VCC*%
X104864500Y-102092000D02*
X102616000Y-99843500D01*
X107188000Y-102092000D02*
X104864500Y-102092000D01*
X103394000Y-89994000D02*
X104967000Y-91567000D01*
X103394000Y-83820000D02*
X103394000Y-89994000D01*
X144034000Y-83820000D02*
X141224000Y-83820000D01*
X135504000Y-78100000D02*
X135504000Y-75286000D01*
X141224000Y-83820000D02*
X135504000Y-78100000D01*
X135504000Y-78100000D02*
X121788000Y-78100000D01*
X120264000Y-76576000D02*
X120264000Y-74016000D01*
X104262000Y-75882000D02*
X105596000Y-77216000D01*
X104262000Y-75032000D02*
X104262000Y-75882000D01*
X120904000Y-77216000D02*
X120264000Y-76576000D01*
X105596000Y-77216000D02*
X120904000Y-77216000D01*
X121788000Y-78100000D02*
X120904000Y-77216000D01*
X101346000Y-77948000D02*
X104262000Y-75032000D01*
X101346000Y-80518000D02*
X101346000Y-77948000D01*
X103394000Y-82566000D02*
X101346000Y-80518000D01*
X103394000Y-83820000D02*
X103394000Y-82566000D01*
X120996000Y-101000000D02*
X118110000Y-103886000D01*
X108982000Y-103886000D02*
X107188000Y-102092000D01*
X118110000Y-103886000D02*
X108982000Y-103886000D01*
X108712000Y-96582000D02*
X109917000Y-95377000D01*
X108712000Y-100195000D02*
X108712000Y-96582000D01*
X107188000Y-101719000D02*
X108712000Y-100195000D01*
X107188000Y-102092000D02*
X107188000Y-101719000D01*
X129194000Y-101000000D02*
X129286000Y-101092000D01*
X120996000Y-101000000D02*
X129194000Y-101000000D01*
X136908000Y-101092000D02*
X137000000Y-101000000D01*
X132334000Y-101092000D02*
X136908000Y-101092000D01*
X144034000Y-87266000D02*
X144034000Y-83820000D01*
X137000000Y-94300000D02*
X144034000Y-87266000D01*
X137000000Y-101000000D02*
X137000000Y-94300000D01*
%TO.N,Net-(D1-Pad2)*%
X105394000Y-79019000D02*
X105419000Y-78994000D01*
X105394000Y-83820000D02*
X105394000Y-79019000D01*
X106802000Y-75699355D02*
X106089458Y-76411897D01*
X106802000Y-75032000D02*
X106802000Y-75699355D01*
X106332332Y-79907332D02*
X105419000Y-78994000D01*
X106332332Y-80489301D02*
X106332332Y-79907332D01*
X109982000Y-78994000D02*
X111007000Y-78994000D01*
%TO.N,Net-(D3-Pad1)*%
X138929000Y-77969000D02*
X138430000Y-77470000D01*
X138929000Y-78994000D02*
X138929000Y-77969000D01*
X139529232Y-75501232D02*
X139314000Y-75286000D01*
X139529232Y-76878768D02*
X139529232Y-75501232D01*
X141864000Y-75606002D02*
X141864000Y-75286000D01*
X140591234Y-76878768D02*
X141864000Y-75606002D01*
X139529232Y-76878768D02*
X140591234Y-76878768D01*
%TO.N,Net-(D2-Pad1)*%
X108957000Y-81834834D02*
X108957000Y-78994000D01*
X105400990Y-85390844D02*
X108957000Y-81834834D01*
X105400990Y-89994824D02*
X105400990Y-85390844D01*
X106680000Y-92099000D02*
X106680000Y-91273834D01*
X105942000Y-92837000D02*
X106680000Y-92099000D01*
X106680000Y-91273834D02*
X105400990Y-89994824D01*
X104967000Y-92837000D02*
X105942000Y-92837000D01*
X138044000Y-76136000D02*
X138044000Y-75286000D01*
X139901990Y-77993990D02*
X138044000Y-76136000D01*
X143008990Y-77993990D02*
X139901990Y-77993990D01*
X144009000Y-78994000D02*
X143008990Y-77993990D01*
X135905990Y-79994010D02*
X136144000Y-79756000D01*
X109957010Y-79994010D02*
X135905990Y-79994010D01*
X108957000Y-78994000D02*
X109957010Y-79994010D01*
X137668000Y-76512000D02*
X138044000Y-76136000D01*
X137668000Y-76962000D02*
X137668000Y-76512000D01*
%TO.N,Net-(D3-Pad2)*%
X146034000Y-79019000D02*
X146059000Y-78994000D01*
X146034000Y-83820000D02*
X146034000Y-79019000D01*
X145805000Y-83820000D02*
X140979000Y-78994000D01*
X146034000Y-83820000D02*
X145805000Y-83820000D01*
X122804000Y-74016000D02*
X122804000Y-75306000D01*
X122804000Y-75306000D02*
X124714000Y-77216000D01*
X124714000Y-77216000D02*
X134366000Y-77216000D01*
X145058990Y-77993990D02*
X146059000Y-78994000D01*
X143574688Y-77993990D02*
X145058990Y-77993990D01*
X143049688Y-77468990D02*
X143574688Y-77993990D01*
X140970000Y-77468990D02*
X143049688Y-77468990D01*
%TO.N,Net-(D5-Pad2)*%
X124080999Y-70629001D02*
X138174001Y-70629001D01*
X138447001Y-69389001D02*
X138044000Y-68986000D01*
X138174001Y-70629001D02*
X138447001Y-70356001D01*
X121544000Y-73166000D02*
X124080999Y-70629001D01*
X138447001Y-70356001D02*
X138447001Y-69389001D01*
X121544000Y-74016000D02*
X121544000Y-73166000D01*
X121544000Y-74683000D02*
X121544000Y-74016000D01*
X120789000Y-75438000D02*
X121544000Y-74683000D01*
%TO.N,Net-(D6-Pad2)*%
X136784000Y-67940000D02*
X136784000Y-68986000D01*
X137414000Y-67310000D02*
X136784000Y-67940000D01*
%TO.N,Net-(D7-Pad2)*%
X138430000Y-91694000D02*
X138684000Y-91694000D01*
X136906000Y-93218000D02*
X138430000Y-91694000D01*
X139700000Y-68600000D02*
X139314000Y-68986000D01*
X139700000Y-67564000D02*
X139700000Y-68600000D01*
%TO.N,Net-(D8-Pad2)*%
X143256000Y-68854000D02*
X143124000Y-68986000D01*
X143256000Y-67564000D02*
X143256000Y-68854000D01*
%TO.N,Net-(D9-Pad2)*%
X143124000Y-76136000D02*
X143124000Y-75286000D01*
X144204000Y-77216000D02*
X143124000Y-76136000D01*
X146812000Y-77216000D02*
X144204000Y-77216000D01*
%TO.N,Net-(D10-Pad2)*%
X135636000Y-68854000D02*
X135504000Y-68986000D01*
X135636000Y-67310000D02*
X135636000Y-68854000D01*
X137922000Y-72898000D02*
X138938000Y-73914000D01*
%TO.N,Net-(D11-Pad2)*%
X140716000Y-69108000D02*
X140594000Y-68986000D01*
X140716000Y-70358000D02*
X140716000Y-69108000D01*
%TO.N,Net-(D12-Pad2)*%
X141864000Y-69474000D02*
X141864000Y-68986000D01*
X142748000Y-70358000D02*
X141864000Y-69474000D01*
%TO.N,Net-(D13-Pad2)*%
X144000000Y-74882000D02*
X144404000Y-75286000D01*
X144000000Y-74168000D02*
X144000000Y-74882000D01*
%TO.N,Net-(D14-Pad2)*%
X121544000Y-68566000D02*
X121544000Y-67716000D01*
X123082000Y-70104000D02*
X121544000Y-68566000D01*
X137922000Y-70104000D02*
X123082000Y-70104000D01*
%TO.N,Net-(D15-Pad2)*%
X124074000Y-67188000D02*
X124074000Y-67716000D01*
X124968000Y-66294000D02*
X124074000Y-67188000D01*
%TO.N,Net-(D16-Pad2)*%
X127762000Y-67838000D02*
X127884000Y-67716000D01*
X127762000Y-69342000D02*
X127762000Y-67838000D01*
%TO.N,Net-(D17-Pad2)*%
X127884000Y-74300000D02*
X127884000Y-74016000D01*
X126746000Y-75438000D02*
X127884000Y-74300000D01*
%TO.N,Net-(D18-Pad2)*%
X120650000Y-68102000D02*
X120264000Y-67716000D01*
X120650000Y-69088000D02*
X120650000Y-68102000D01*
%TO.N,Net-(D19-Pad2)*%
X125354000Y-68448000D02*
X125354000Y-67716000D01*
X124714000Y-69088000D02*
X125354000Y-68448000D01*
%TO.N,Net-(D20-Pad2)*%
X126624000Y-67459000D02*
X126624000Y-67716000D01*
X125730000Y-66565000D02*
X126624000Y-67459000D01*
%TO.N,Net-(D21-Pad2)*%
X129266000Y-73914000D02*
X129164000Y-74016000D01*
X130556000Y-73914000D02*
X129266000Y-73914000D01*
X116983990Y-72500010D02*
X119015990Y-72500010D01*
%TO.N,Net-(D22-Pad2)*%
X105410000Y-68864000D02*
X105542000Y-68732000D01*
X105410000Y-70358000D02*
X105410000Y-68864000D01*
%TO.N,Net-(D23-Pad2)*%
X108204000Y-68864000D02*
X108072000Y-68732000D01*
X108204000Y-70104000D02*
X108204000Y-68864000D01*
%TO.N,Net-(D24-Pad2)*%
X115062000Y-71882000D02*
X114808000Y-71628000D01*
X115062000Y-73152000D02*
X115062000Y-71882000D01*
X112014000Y-68864000D02*
X111882000Y-68732000D01*
X112014000Y-70612000D02*
X112014000Y-68864000D01*
%TO.N,Net-(D25-Pad2)*%
X111882000Y-74808000D02*
X111882000Y-75032000D01*
X113030000Y-73660000D02*
X111882000Y-74808000D01*
%TO.N,Net-(D26-Pad2)*%
X103652000Y-69342000D02*
X104262000Y-68732000D01*
X102616000Y-69342000D02*
X103652000Y-69342000D01*
%TO.N,Net-(D27-Pad2)*%
X108966000Y-68346000D02*
X109352000Y-68732000D01*
X108966000Y-67310000D02*
X108966000Y-68346000D01*
%TO.N,Net-(D28-Pad2)*%
X110622000Y-67882000D02*
X110622000Y-68732000D01*
X109524999Y-66784999D02*
X110622000Y-67882000D01*
X104123000Y-66784999D02*
X109524999Y-66784999D01*
X101565999Y-69342000D02*
X104123000Y-66784999D01*
%TO.N,Net-(R1-Pad2)*%
X111395000Y-94107000D02*
X109917000Y-94107000D01*
X113554000Y-96266000D02*
X111395000Y-94107000D01*
X107188000Y-95861000D02*
X108942000Y-94107000D01*
X108942000Y-94107000D02*
X109917000Y-94107000D01*
X107188000Y-100092000D02*
X107188000Y-95861000D01*
%TO.N,Net-(U2-Pad15)*%
X126746000Y-76454000D02*
X131318000Y-76454000D01*
X131318000Y-76454000D02*
X134620000Y-73152000D01*
X136784000Y-74436000D02*
X136784000Y-75286000D01*
X135500000Y-73152000D02*
X136784000Y-74436000D01*
X134620000Y-73152000D02*
X135500000Y-73152000D01*
X110622000Y-75882000D02*
X110939982Y-76199982D01*
X110939982Y-76199982D02*
X118872000Y-76199982D01*
X110622000Y-75032000D02*
X110622000Y-75882000D01*
%TO.N,Net-(U3-Pad3)*%
X105642001Y-74081999D02*
X105542000Y-74182000D01*
X109402003Y-74081999D02*
X105642001Y-74081999D01*
X116718003Y-66765999D02*
X109402003Y-74081999D01*
X122703999Y-66765999D02*
X118908001Y-66765999D01*
X105542000Y-74182000D02*
X105542000Y-75032000D01*
X122804000Y-66866000D02*
X122703999Y-66765999D01*
X122804000Y-67716000D02*
X122804000Y-66866000D01*
X117384001Y-66765999D02*
X116718003Y-66765999D01*
%TO.N,/Common-R*%
X144250000Y-98784000D02*
X143764000Y-98298000D01*
X144250000Y-100000000D02*
X144250000Y-98784000D01*
%TO.N,Net-(D1-Pad1)*%
X112265834Y-78700000D02*
X125340000Y-78700000D01*
X111559824Y-77993990D02*
X112265834Y-78700000D01*
X104369010Y-77993990D02*
X111559824Y-77993990D01*
X103369000Y-78994000D02*
X104369010Y-77993990D01*
X124074000Y-73166000D02*
X124074000Y-74016000D01*
X124450000Y-72790000D02*
X124074000Y-73166000D01*
X125420000Y-72790000D02*
X124450000Y-72790000D01*
X126624000Y-73675802D02*
X126624000Y-74016000D01*
X125738198Y-72790000D02*
X126624000Y-73675802D01*
X125420000Y-72790000D02*
X125738198Y-72790000D01*
%TD*%
D14*
%TO.N,GND*%
X149125533Y-65365997D02*
X149246291Y-65402456D01*
X149357667Y-65461675D01*
X149455412Y-65541394D01*
X149535816Y-65638586D01*
X149595811Y-65749545D01*
X149633110Y-65870039D01*
X149648000Y-66011699D01*
X149648001Y-103982775D01*
X149634003Y-104125537D01*
X149597545Y-104246290D01*
X149538324Y-104357668D01*
X149458606Y-104455412D01*
X149361411Y-104535819D01*
X149250456Y-104595811D01*
X149129961Y-104633110D01*
X148988301Y-104648000D01*
X101017215Y-104648000D01*
X100874463Y-104634003D01*
X100753710Y-104597545D01*
X100642332Y-104538324D01*
X100544588Y-104458606D01*
X100464181Y-104361411D01*
X100404189Y-104250456D01*
X100366890Y-104129961D01*
X100352000Y-103988301D01*
X100352000Y-102865520D01*
X100634607Y-102865520D01*
X100634607Y-103134480D01*
X100687078Y-103398271D01*
X100790004Y-103646756D01*
X100939430Y-103870388D01*
X101129612Y-104060570D01*
X101353244Y-104209996D01*
X101601729Y-104312922D01*
X101865520Y-104365393D01*
X102134480Y-104365393D01*
X102398271Y-104312922D01*
X102646756Y-104209996D01*
X102870388Y-104060570D01*
X103060570Y-103870388D01*
X103209996Y-103646756D01*
X103312922Y-103398271D01*
X103365393Y-103134480D01*
X103365393Y-102865520D01*
X103312922Y-102601729D01*
X103209996Y-102353244D01*
X103060570Y-102129612D01*
X102870388Y-101939430D01*
X102646756Y-101790004D01*
X102398271Y-101687078D01*
X102134480Y-101634607D01*
X101865520Y-101634607D01*
X101601729Y-101687078D01*
X101353244Y-101790004D01*
X101129612Y-101939430D01*
X100939430Y-102129612D01*
X100790004Y-102353244D01*
X100687078Y-102601729D01*
X100634607Y-102865520D01*
X100352000Y-102865520D01*
X100352000Y-98356000D01*
X101502127Y-98356000D01*
X101509599Y-98431865D01*
X101531728Y-98504815D01*
X101567664Y-98572046D01*
X101616025Y-98630975D01*
X101674954Y-98679336D01*
X101742185Y-98715272D01*
X101815135Y-98737401D01*
X101891000Y-98744873D01*
X102516250Y-98743000D01*
X102613000Y-98646250D01*
X102613000Y-97771500D01*
X102619000Y-97771500D01*
X102619000Y-98646250D01*
X102715750Y-98743000D01*
X103341000Y-98744873D01*
X103416865Y-98737401D01*
X103489815Y-98715272D01*
X103557046Y-98679336D01*
X103615975Y-98630975D01*
X103664336Y-98572046D01*
X103700272Y-98504815D01*
X103722401Y-98431865D01*
X103729873Y-98356000D01*
X103728000Y-97868250D01*
X103631250Y-97771500D01*
X102619000Y-97771500D01*
X102613000Y-97771500D01*
X101600750Y-97771500D01*
X101504000Y-97868250D01*
X101502127Y-98356000D01*
X100352000Y-98356000D01*
X100352000Y-97181000D01*
X101502127Y-97181000D01*
X101504000Y-97668750D01*
X101600750Y-97765500D01*
X102613000Y-97765500D01*
X102613000Y-96890750D01*
X102619000Y-96890750D01*
X102619000Y-97765500D01*
X103631250Y-97765500D01*
X103728000Y-97668750D01*
X103729873Y-97181000D01*
X103722401Y-97105135D01*
X103700272Y-97032185D01*
X103664336Y-96964954D01*
X103615975Y-96906025D01*
X103557046Y-96857664D01*
X103489815Y-96821728D01*
X103416865Y-96799599D01*
X103341000Y-96792127D01*
X102715750Y-96794000D01*
X102619000Y-96890750D01*
X102613000Y-96890750D01*
X102516250Y-96794000D01*
X101891000Y-96792127D01*
X101815135Y-96799599D01*
X101742185Y-96821728D01*
X101674954Y-96857664D01*
X101616025Y-96906025D01*
X101567664Y-96964954D01*
X101531728Y-97032185D01*
X101509599Y-97105135D01*
X101502127Y-97181000D01*
X100352000Y-97181000D01*
X100352000Y-95677000D01*
X103603127Y-95677000D01*
X103610599Y-95752865D01*
X103632728Y-95825815D01*
X103668664Y-95893046D01*
X103717025Y-95951975D01*
X103775954Y-96000336D01*
X103843185Y-96036272D01*
X103916135Y-96058401D01*
X103992000Y-96065873D01*
X104867250Y-96064000D01*
X104964000Y-95967250D01*
X104964000Y-95380000D01*
X104970000Y-95380000D01*
X104970000Y-95967250D01*
X105066750Y-96064000D01*
X105942000Y-96065873D01*
X106017865Y-96058401D01*
X106090815Y-96036272D01*
X106158046Y-96000336D01*
X106216975Y-95951975D01*
X106265336Y-95893046D01*
X106301272Y-95825815D01*
X106323401Y-95752865D01*
X106330873Y-95677000D01*
X106329000Y-95476750D01*
X106232250Y-95380000D01*
X104970000Y-95380000D01*
X104964000Y-95380000D01*
X103701750Y-95380000D01*
X103605000Y-95476750D01*
X103603127Y-95677000D01*
X100352000Y-95677000D01*
X100352000Y-87942000D01*
X100994127Y-87942000D01*
X101001599Y-88017865D01*
X101023728Y-88090815D01*
X101059664Y-88158046D01*
X101108025Y-88216975D01*
X101166954Y-88265336D01*
X101234185Y-88301272D01*
X101307135Y-88323401D01*
X101383000Y-88330873D01*
X102008250Y-88329000D01*
X102105000Y-88232250D01*
X102105000Y-87357500D01*
X101092750Y-87357500D01*
X100996000Y-87454250D01*
X100994127Y-87942000D01*
X100352000Y-87942000D01*
X100352000Y-86767000D01*
X100994127Y-86767000D01*
X100996000Y-87254750D01*
X101092750Y-87351500D01*
X102105000Y-87351500D01*
X102105000Y-86476750D01*
X102008250Y-86380000D01*
X101383000Y-86378127D01*
X101307135Y-86385599D01*
X101234185Y-86407728D01*
X101166954Y-86443664D01*
X101108025Y-86492025D01*
X101059664Y-86550954D01*
X101023728Y-86618185D01*
X101001599Y-86691135D01*
X100994127Y-86767000D01*
X100352000Y-86767000D01*
X100352000Y-66865520D01*
X100634607Y-66865520D01*
X100634607Y-67134480D01*
X100687078Y-67398271D01*
X100790004Y-67646756D01*
X100939430Y-67870388D01*
X101129612Y-68060570D01*
X101353244Y-68209996D01*
X101601729Y-68312922D01*
X101865520Y-68365393D01*
X101938738Y-68365393D01*
X101514131Y-68790000D01*
X101511632Y-68790000D01*
X101404987Y-68811213D01*
X101304529Y-68852824D01*
X101214119Y-68913234D01*
X101137233Y-68990120D01*
X101076823Y-69080530D01*
X101035212Y-69180988D01*
X101013999Y-69287633D01*
X101013999Y-69396367D01*
X101035212Y-69503012D01*
X101076823Y-69603470D01*
X101137233Y-69693880D01*
X101214119Y-69770766D01*
X101304529Y-69831176D01*
X101404987Y-69872787D01*
X101511632Y-69894000D01*
X101620366Y-69894000D01*
X101727011Y-69872787D01*
X101827469Y-69831176D01*
X101917879Y-69770766D01*
X101994765Y-69693880D01*
X102055175Y-69603470D01*
X102091000Y-69516982D01*
X102126824Y-69603470D01*
X102187234Y-69693880D01*
X102264120Y-69770766D01*
X102354530Y-69831176D01*
X102454988Y-69872787D01*
X102561633Y-69894000D01*
X102670367Y-69894000D01*
X102777012Y-69872787D01*
X102877470Y-69831176D01*
X102967880Y-69770766D01*
X102969646Y-69769000D01*
X103631033Y-69769000D01*
X103652000Y-69771065D01*
X103672967Y-69769000D01*
X103672978Y-69769000D01*
X103735707Y-69762822D01*
X103816196Y-69738405D01*
X103868249Y-69710582D01*
X104662000Y-69710582D01*
X104726103Y-69704268D01*
X104787743Y-69685570D01*
X104844550Y-69655206D01*
X104894343Y-69614343D01*
X104902000Y-69605013D01*
X104909657Y-69614343D01*
X104959450Y-69655206D01*
X104983000Y-69667794D01*
X104983000Y-70004354D01*
X104981234Y-70006120D01*
X104920824Y-70096530D01*
X104879213Y-70196988D01*
X104858000Y-70303633D01*
X104858000Y-70412367D01*
X104879213Y-70519012D01*
X104920824Y-70619470D01*
X104981234Y-70709880D01*
X105058120Y-70786766D01*
X105148530Y-70847176D01*
X105248988Y-70888787D01*
X105355633Y-70910000D01*
X105464367Y-70910000D01*
X105571012Y-70888787D01*
X105671470Y-70847176D01*
X105761880Y-70786766D01*
X105838766Y-70709880D01*
X105899176Y-70619470D01*
X105940787Y-70519012D01*
X105962000Y-70412367D01*
X105962000Y-70303633D01*
X105940787Y-70196988D01*
X105899176Y-70096530D01*
X105838766Y-70006120D01*
X105837000Y-70004354D01*
X105837000Y-69710582D01*
X105942000Y-69710582D01*
X106006103Y-69704268D01*
X106067743Y-69685570D01*
X106124550Y-69655206D01*
X106172000Y-69616266D01*
X106219450Y-69655206D01*
X106276257Y-69685570D01*
X106337897Y-69704268D01*
X106402000Y-69710582D01*
X107202000Y-69710582D01*
X107266103Y-69704268D01*
X107327743Y-69685570D01*
X107384550Y-69655206D01*
X107434343Y-69614343D01*
X107437000Y-69611105D01*
X107439657Y-69614343D01*
X107489450Y-69655206D01*
X107546257Y-69685570D01*
X107607897Y-69704268D01*
X107672000Y-69710582D01*
X107777000Y-69710582D01*
X107777000Y-69750354D01*
X107775234Y-69752120D01*
X107714824Y-69842530D01*
X107673213Y-69942988D01*
X107652000Y-70049633D01*
X107652000Y-70158367D01*
X107673213Y-70265012D01*
X107714824Y-70365470D01*
X107775234Y-70455880D01*
X107852120Y-70532766D01*
X107942530Y-70593176D01*
X108042988Y-70634787D01*
X108149633Y-70656000D01*
X108258367Y-70656000D01*
X108365012Y-70634787D01*
X108465470Y-70593176D01*
X108555880Y-70532766D01*
X108632766Y-70455880D01*
X108693176Y-70365470D01*
X108734787Y-70265012D01*
X108756000Y-70158367D01*
X108756000Y-70049633D01*
X108734787Y-69942988D01*
X108693176Y-69842530D01*
X108632766Y-69752120D01*
X108631000Y-69750354D01*
X108631000Y-69667794D01*
X108654550Y-69655206D01*
X108704343Y-69614343D01*
X108712000Y-69605013D01*
X108719657Y-69614343D01*
X108769450Y-69655206D01*
X108826257Y-69685570D01*
X108887897Y-69704268D01*
X108952000Y-69710582D01*
X109752000Y-69710582D01*
X109816103Y-69704268D01*
X109877743Y-69685570D01*
X109934550Y-69655206D01*
X109984343Y-69614343D01*
X109987000Y-69611105D01*
X109989657Y-69614343D01*
X110039450Y-69655206D01*
X110096257Y-69685570D01*
X110157897Y-69704268D01*
X110222000Y-69710582D01*
X111022000Y-69710582D01*
X111086103Y-69704268D01*
X111147743Y-69685570D01*
X111204550Y-69655206D01*
X111252000Y-69616266D01*
X111299450Y-69655206D01*
X111356257Y-69685570D01*
X111417897Y-69704268D01*
X111482000Y-69710582D01*
X111587001Y-69710582D01*
X111587000Y-70258354D01*
X111585234Y-70260120D01*
X111524824Y-70350530D01*
X111483213Y-70450988D01*
X111462000Y-70557633D01*
X111462000Y-70666367D01*
X111483213Y-70773012D01*
X111524824Y-70873470D01*
X111585234Y-70963880D01*
X111662120Y-71040766D01*
X111752530Y-71101176D01*
X111771217Y-71108916D01*
X109225135Y-73654999D01*
X105662968Y-73654999D01*
X105642001Y-73652934D01*
X105621034Y-73654999D01*
X105621023Y-73654999D01*
X105558294Y-73661177D01*
X105477805Y-73685594D01*
X105443370Y-73704000D01*
X105403625Y-73725243D01*
X105356435Y-73763972D01*
X105338606Y-73778604D01*
X105325233Y-73794899D01*
X105254900Y-73865232D01*
X105238605Y-73878605D01*
X105225233Y-73894899D01*
X105225232Y-73894900D01*
X105185245Y-73943624D01*
X105172020Y-73968367D01*
X105145595Y-74017805D01*
X105134569Y-74054150D01*
X105077897Y-74059732D01*
X105016257Y-74078430D01*
X104959450Y-74108794D01*
X104909657Y-74149657D01*
X104902000Y-74158987D01*
X104894343Y-74149657D01*
X104844550Y-74108794D01*
X104787743Y-74078430D01*
X104726103Y-74059732D01*
X104662000Y-74053418D01*
X103862000Y-74053418D01*
X103797897Y-74059732D01*
X103736257Y-74078430D01*
X103679450Y-74108794D01*
X103629657Y-74149657D01*
X103588794Y-74199450D01*
X103558430Y-74256257D01*
X103539732Y-74317897D01*
X103533418Y-74382000D01*
X103533418Y-75156713D01*
X101058896Y-77631236D01*
X101042606Y-77644605D01*
X101029237Y-77660895D01*
X101029232Y-77660900D01*
X100989245Y-77709624D01*
X100949902Y-77783232D01*
X100949596Y-77783804D01*
X100925179Y-77864293D01*
X100919001Y-77927022D01*
X100916935Y-77948000D01*
X100919001Y-77968977D01*
X100919000Y-80497033D01*
X100916935Y-80518000D01*
X100919000Y-80538967D01*
X100919000Y-80538977D01*
X100925178Y-80601706D01*
X100949595Y-80682195D01*
X100949596Y-80682196D01*
X100989245Y-80756376D01*
X101029232Y-80805100D01*
X101042605Y-80821395D01*
X101058900Y-80834768D01*
X102967001Y-82742871D01*
X102967001Y-82799001D01*
X102931123Y-82802535D01*
X102822586Y-82835460D01*
X102722557Y-82888926D01*
X102634880Y-82960880D01*
X102562926Y-83048557D01*
X102509460Y-83148586D01*
X102476535Y-83257123D01*
X102465418Y-83369999D01*
X102465418Y-84270001D01*
X102476535Y-84382877D01*
X102509460Y-84491414D01*
X102562926Y-84591443D01*
X102634880Y-84679120D01*
X102722557Y-84751074D01*
X102822586Y-84804540D01*
X102931123Y-84837465D01*
X102967000Y-84840998D01*
X102967000Y-86403234D01*
X102908865Y-86385599D01*
X102833000Y-86378127D01*
X102207750Y-86380000D01*
X102111000Y-86476750D01*
X102111000Y-87351500D01*
X102131000Y-87351500D01*
X102131000Y-87357500D01*
X102111000Y-87357500D01*
X102111000Y-88232250D01*
X102207750Y-88329000D01*
X102833000Y-88330873D01*
X102908865Y-88323401D01*
X102967001Y-88305766D01*
X102967001Y-88662267D01*
X102904443Y-88610927D01*
X102804414Y-88557460D01*
X102695876Y-88524535D01*
X102583000Y-88513418D01*
X101633000Y-88513418D01*
X101520124Y-88524535D01*
X101411586Y-88557460D01*
X101311557Y-88610927D01*
X101223881Y-88682881D01*
X101151927Y-88770557D01*
X101098460Y-88870586D01*
X101065535Y-88979124D01*
X101054418Y-89092000D01*
X101054418Y-89767000D01*
X101065535Y-89879876D01*
X101098460Y-89988414D01*
X101151927Y-90088443D01*
X101223881Y-90176119D01*
X101311557Y-90248073D01*
X101411586Y-90301540D01*
X101520124Y-90334465D01*
X101633000Y-90345582D01*
X101681000Y-90345582D01*
X101681001Y-92202023D01*
X101678935Y-92223000D01*
X101681001Y-92243977D01*
X101681001Y-92243978D01*
X101687179Y-92306707D01*
X101696483Y-92337376D01*
X101711596Y-92387196D01*
X101751245Y-92461376D01*
X101791232Y-92510100D01*
X101791237Y-92510105D01*
X101804606Y-92526395D01*
X101820895Y-92539763D01*
X103675241Y-94394111D01*
X103688605Y-94410395D01*
X103691559Y-94412819D01*
X103699848Y-94440145D01*
X103744074Y-94522886D01*
X103803591Y-94595409D01*
X103876114Y-94654926D01*
X103946595Y-94692599D01*
X103916135Y-94695599D01*
X103843185Y-94717728D01*
X103775954Y-94753664D01*
X103717025Y-94802025D01*
X103668664Y-94860954D01*
X103632728Y-94928185D01*
X103610599Y-95001135D01*
X103603127Y-95077000D01*
X103605000Y-95277250D01*
X103701750Y-95374000D01*
X104964000Y-95374000D01*
X104964000Y-95354000D01*
X104970000Y-95354000D01*
X104970000Y-95374000D01*
X106232250Y-95374000D01*
X106329000Y-95277250D01*
X106330873Y-95077000D01*
X106323401Y-95001135D01*
X106301272Y-94928185D01*
X106265336Y-94860954D01*
X106216975Y-94802025D01*
X106158046Y-94753664D01*
X106090815Y-94717728D01*
X106017865Y-94695599D01*
X105987405Y-94692599D01*
X106057886Y-94654926D01*
X106130409Y-94595409D01*
X106189926Y-94522886D01*
X106234152Y-94440145D01*
X106261386Y-94350367D01*
X106270582Y-94257000D01*
X106270582Y-93957000D01*
X106268316Y-93933990D01*
X108511141Y-93933990D01*
X106900896Y-95544236D01*
X106884606Y-95557605D01*
X106871237Y-95573895D01*
X106871232Y-95573900D01*
X106831245Y-95622624D01*
X106802181Y-95677000D01*
X106791596Y-95696804D01*
X106774590Y-95752865D01*
X106767179Y-95777294D01*
X106758935Y-95861000D01*
X106761001Y-95881977D01*
X106761000Y-99163418D01*
X106737999Y-99163418D01*
X106625123Y-99174535D01*
X106516586Y-99207460D01*
X106416557Y-99260926D01*
X106328880Y-99332880D01*
X106256926Y-99420557D01*
X106203460Y-99520586D01*
X106170535Y-99629123D01*
X106159418Y-99741999D01*
X106159418Y-100442001D01*
X106170535Y-100554877D01*
X106203460Y-100663414D01*
X106256926Y-100763443D01*
X106328880Y-100851120D01*
X106416557Y-100923074D01*
X106516586Y-100976540D01*
X106625123Y-101009465D01*
X106737999Y-101020582D01*
X107282550Y-101020582D01*
X107139714Y-101163418D01*
X106737999Y-101163418D01*
X106625123Y-101174535D01*
X106516586Y-101207460D01*
X106416557Y-101260926D01*
X106328880Y-101332880D01*
X106256926Y-101420557D01*
X106203460Y-101520586D01*
X106170535Y-101629123D01*
X106167002Y-101665000D01*
X105041370Y-101665000D01*
X103659521Y-100283152D01*
X103669582Y-100181000D01*
X103669582Y-99506000D01*
X103658465Y-99393124D01*
X103625540Y-99284586D01*
X103572073Y-99184557D01*
X103500119Y-99096881D01*
X103412443Y-99024927D01*
X103312414Y-98971460D01*
X103203876Y-98938535D01*
X103091000Y-98927418D01*
X102141000Y-98927418D01*
X102028124Y-98938535D01*
X101919586Y-98971460D01*
X101819557Y-99024927D01*
X101731881Y-99096881D01*
X101659927Y-99184557D01*
X101606460Y-99284586D01*
X101573535Y-99393124D01*
X101562418Y-99506000D01*
X101562418Y-100181000D01*
X101573535Y-100293876D01*
X101606460Y-100402414D01*
X101659927Y-100502443D01*
X101731881Y-100590119D01*
X101819557Y-100662073D01*
X101919586Y-100715540D01*
X102028124Y-100748465D01*
X102141000Y-100759582D01*
X102928213Y-100759582D01*
X104547741Y-102379111D01*
X104561105Y-102395395D01*
X104577389Y-102408759D01*
X104577398Y-102408768D01*
X104626123Y-102448755D01*
X104665773Y-102469948D01*
X104700304Y-102488405D01*
X104780793Y-102512822D01*
X104843522Y-102519000D01*
X104843532Y-102519000D01*
X104864499Y-102521065D01*
X104885466Y-102519000D01*
X106167002Y-102519000D01*
X106170535Y-102554877D01*
X106203460Y-102663414D01*
X106256926Y-102763443D01*
X106328880Y-102851120D01*
X106416557Y-102923074D01*
X106516586Y-102976540D01*
X106625123Y-103009465D01*
X106737999Y-103020582D01*
X107512713Y-103020582D01*
X108665241Y-104173111D01*
X108678605Y-104189395D01*
X108694889Y-104202759D01*
X108694898Y-104202768D01*
X108743623Y-104242755D01*
X108783273Y-104263948D01*
X108817804Y-104282405D01*
X108898293Y-104306822D01*
X108961022Y-104313000D01*
X108961032Y-104313000D01*
X108981999Y-104315065D01*
X109002966Y-104313000D01*
X118089033Y-104313000D01*
X118110000Y-104315065D01*
X118130967Y-104313000D01*
X118130978Y-104313000D01*
X118193707Y-104306822D01*
X118274196Y-104282405D01*
X118348376Y-104242755D01*
X118413395Y-104189395D01*
X118426768Y-104173100D01*
X121172870Y-101427000D01*
X128845955Y-101427000D01*
X128857234Y-101443880D01*
X128934120Y-101520766D01*
X129024530Y-101581176D01*
X129124988Y-101622787D01*
X129231633Y-101644000D01*
X129340367Y-101644000D01*
X129447012Y-101622787D01*
X129547470Y-101581176D01*
X129637880Y-101520766D01*
X129714766Y-101443880D01*
X129775176Y-101353470D01*
X129816787Y-101253012D01*
X129838000Y-101146367D01*
X129838000Y-101037633D01*
X129816787Y-100930988D01*
X129775176Y-100830530D01*
X129714766Y-100740120D01*
X129637880Y-100663234D01*
X129547470Y-100602824D01*
X129447012Y-100561213D01*
X129340367Y-100540000D01*
X129231633Y-100540000D01*
X129124988Y-100561213D01*
X129096532Y-100573000D01*
X121016964Y-100573000D01*
X120995999Y-100570935D01*
X120975034Y-100573000D01*
X120975022Y-100573000D01*
X120912293Y-100579178D01*
X120831804Y-100603595D01*
X120808929Y-100615822D01*
X120757623Y-100643245D01*
X120708898Y-100683232D01*
X120708889Y-100683241D01*
X120692605Y-100696605D01*
X120679241Y-100712889D01*
X117933132Y-103459000D01*
X109158870Y-103459000D01*
X108209883Y-102510015D01*
X108216582Y-102442001D01*
X108216582Y-101741999D01*
X108205465Y-101629123D01*
X108172540Y-101520586D01*
X108119074Y-101420557D01*
X108106109Y-101404759D01*
X108999106Y-100511763D01*
X109015395Y-100498395D01*
X109028764Y-100482105D01*
X109028767Y-100482102D01*
X109068755Y-100433377D01*
X109108404Y-100359197D01*
X109108405Y-100359196D01*
X109132822Y-100278707D01*
X109139000Y-100215978D01*
X109139000Y-100215958D01*
X109141064Y-100195001D01*
X109139000Y-100174044D01*
X109139000Y-96758868D01*
X109892287Y-96005582D01*
X110742000Y-96005582D01*
X110835367Y-95996386D01*
X110925145Y-95969152D01*
X111007886Y-95924926D01*
X111080409Y-95865409D01*
X111139926Y-95792886D01*
X111184152Y-95710145D01*
X111211386Y-95620367D01*
X111220582Y-95527000D01*
X111220582Y-95227000D01*
X111211386Y-95133633D01*
X111184152Y-95043855D01*
X111139926Y-94961114D01*
X111080409Y-94888591D01*
X111007886Y-94829074D01*
X110925145Y-94784848D01*
X110835367Y-94757614D01*
X110742000Y-94748418D01*
X109092000Y-94748418D01*
X108998633Y-94757614D01*
X108908855Y-94784848D01*
X108826114Y-94829074D01*
X108813182Y-94839687D01*
X108943275Y-94709593D01*
X108998633Y-94726386D01*
X109092000Y-94735582D01*
X110742000Y-94735582D01*
X110835367Y-94726386D01*
X110925145Y-94699152D01*
X111007886Y-94654926D01*
X111080409Y-94595409D01*
X111130805Y-94534000D01*
X111218132Y-94534000D01*
X112625418Y-95941287D01*
X112625418Y-96716001D01*
X112636535Y-96828877D01*
X112669460Y-96937414D01*
X112722926Y-97037443D01*
X112794880Y-97125120D01*
X112882557Y-97197074D01*
X112982586Y-97250540D01*
X113091123Y-97283465D01*
X113203999Y-97294582D01*
X113904001Y-97294582D01*
X114016877Y-97283465D01*
X114125414Y-97250540D01*
X114225443Y-97197074D01*
X114313120Y-97125120D01*
X114385074Y-97037443D01*
X114438540Y-96937414D01*
X114471465Y-96828877D01*
X114482582Y-96716001D01*
X114482582Y-95815999D01*
X114480665Y-95796535D01*
X114625418Y-95941288D01*
X114625418Y-96716001D01*
X114636535Y-96828877D01*
X114669460Y-96937414D01*
X114722926Y-97037443D01*
X114794880Y-97125120D01*
X114882557Y-97197074D01*
X114982586Y-97250540D01*
X115091123Y-97283465D01*
X115203999Y-97294582D01*
X115904001Y-97294582D01*
X116016877Y-97283465D01*
X116125414Y-97250540D01*
X116225443Y-97197074D01*
X116313120Y-97125120D01*
X116385074Y-97037443D01*
X116438540Y-96937414D01*
X116471465Y-96828877D01*
X116482582Y-96716001D01*
X116482582Y-95815999D01*
X116471465Y-95703123D01*
X116438540Y-95594586D01*
X116385074Y-95494557D01*
X116313120Y-95406880D01*
X116225443Y-95334926D01*
X116125414Y-95281460D01*
X116016877Y-95248535D01*
X115904001Y-95237418D01*
X115203999Y-95237418D01*
X115135986Y-95244116D01*
X112441768Y-92549900D01*
X112428395Y-92533605D01*
X112363376Y-92480245D01*
X112289196Y-92440595D01*
X112208707Y-92416178D01*
X112145978Y-92410000D01*
X112145967Y-92410000D01*
X112125000Y-92407935D01*
X112104033Y-92410000D01*
X111130805Y-92410000D01*
X111080409Y-92348591D01*
X111007886Y-92289074D01*
X110925145Y-92244848D01*
X110835367Y-92217614D01*
X110742000Y-92208418D01*
X109092000Y-92208418D01*
X108998633Y-92217614D01*
X108908855Y-92244848D01*
X108826114Y-92289074D01*
X108753591Y-92348591D01*
X108694074Y-92421114D01*
X108649848Y-92503855D01*
X108622614Y-92593633D01*
X108613418Y-92687000D01*
X108613418Y-92987000D01*
X108622577Y-93079990D01*
X106302878Y-93079990D01*
X106967106Y-92415763D01*
X106983395Y-92402395D01*
X106996764Y-92386105D01*
X106996768Y-92386101D01*
X107036756Y-92337377D01*
X107076405Y-92263197D01*
X107082235Y-92243978D01*
X107100822Y-92182707D01*
X107107000Y-92119978D01*
X107107000Y-92119967D01*
X107109065Y-92099000D01*
X107107000Y-92078033D01*
X107107000Y-91294798D01*
X107109065Y-91273833D01*
X107107000Y-91252868D01*
X107107000Y-91252856D01*
X107100822Y-91190127D01*
X107076405Y-91109638D01*
X107057948Y-91075107D01*
X107036755Y-91035457D01*
X106996768Y-90986732D01*
X106996759Y-90986723D01*
X106983395Y-90970439D01*
X106967111Y-90957075D01*
X106355617Y-90345582D01*
X106901000Y-90345582D01*
X107013876Y-90334465D01*
X107122414Y-90301540D01*
X107222443Y-90248073D01*
X107310119Y-90176119D01*
X107382073Y-90088443D01*
X107435540Y-89988414D01*
X107468465Y-89879876D01*
X107470767Y-89856500D01*
X107602632Y-89856500D01*
X108792660Y-91046529D01*
X108753591Y-91078591D01*
X108694074Y-91151114D01*
X108649848Y-91233855D01*
X108622614Y-91323633D01*
X108613418Y-91417000D01*
X108613418Y-91717000D01*
X108622614Y-91810367D01*
X108649848Y-91900145D01*
X108694074Y-91982886D01*
X108753591Y-92055409D01*
X108826114Y-92114926D01*
X108908855Y-92159152D01*
X108998633Y-92186386D01*
X109092000Y-92195582D01*
X110742000Y-92195582D01*
X110835367Y-92186386D01*
X110925145Y-92159152D01*
X111007886Y-92114926D01*
X111080409Y-92055409D01*
X111139926Y-91982886D01*
X111184152Y-91900145D01*
X111211386Y-91810367D01*
X111220582Y-91717000D01*
X111220582Y-91417000D01*
X111211386Y-91323633D01*
X111184152Y-91233855D01*
X111139926Y-91151114D01*
X111080409Y-91078591D01*
X111007886Y-91019074D01*
X110925145Y-90974848D01*
X110835367Y-90947614D01*
X110742000Y-90938418D01*
X109892287Y-90938418D01*
X108096268Y-89142400D01*
X108082895Y-89126105D01*
X108017876Y-89072745D01*
X107943696Y-89033095D01*
X107863207Y-89008678D01*
X107800478Y-89002500D01*
X107800467Y-89002500D01*
X107779500Y-89000435D01*
X107758533Y-89002500D01*
X107470767Y-89002500D01*
X107468465Y-88979124D01*
X107435540Y-88870586D01*
X107382073Y-88770557D01*
X107310119Y-88682881D01*
X107222443Y-88610927D01*
X107122414Y-88557460D01*
X107013876Y-88524535D01*
X106901000Y-88513418D01*
X105951000Y-88513418D01*
X105838124Y-88524535D01*
X105827990Y-88527609D01*
X105827990Y-88330493D01*
X106326250Y-88329000D01*
X106423000Y-88232250D01*
X106423000Y-87357500D01*
X106429000Y-87357500D01*
X106429000Y-88232250D01*
X106525750Y-88329000D01*
X107151000Y-88330873D01*
X107226865Y-88323401D01*
X107299815Y-88301272D01*
X107367046Y-88265336D01*
X107425975Y-88216975D01*
X107474336Y-88158046D01*
X107510272Y-88090815D01*
X107532401Y-88017865D01*
X107539873Y-87942000D01*
X107538000Y-87454250D01*
X107441250Y-87357500D01*
X106429000Y-87357500D01*
X106423000Y-87357500D01*
X106403000Y-87357500D01*
X106403000Y-87351500D01*
X106423000Y-87351500D01*
X106423000Y-86476750D01*
X106429000Y-86476750D01*
X106429000Y-87351500D01*
X107441250Y-87351500D01*
X107538000Y-87254750D01*
X107539873Y-86767000D01*
X107532401Y-86691135D01*
X107510272Y-86618185D01*
X107474336Y-86550954D01*
X107425975Y-86492025D01*
X107367046Y-86443664D01*
X107299815Y-86407728D01*
X107226865Y-86385599D01*
X107151000Y-86378127D01*
X106525750Y-86380000D01*
X106429000Y-86476750D01*
X106423000Y-86476750D01*
X106326250Y-86380000D01*
X105827990Y-86378507D01*
X105827990Y-85567712D01*
X107195702Y-84200000D01*
X108721418Y-84200000D01*
X108721418Y-87800000D01*
X108727732Y-87864103D01*
X108746430Y-87925743D01*
X108776794Y-87982550D01*
X108817657Y-88032343D01*
X108867450Y-88073206D01*
X108924257Y-88103570D01*
X108985897Y-88122268D01*
X109050000Y-88128582D01*
X111650000Y-88128582D01*
X111714103Y-88122268D01*
X111775743Y-88103570D01*
X111823940Y-88077808D01*
X119140131Y-95394000D01*
X116663132Y-97871000D01*
X115722966Y-97871000D01*
X115701999Y-97868935D01*
X115681032Y-97871000D01*
X115681022Y-97871000D01*
X115618293Y-97877178D01*
X115537804Y-97901595D01*
X115503273Y-97920052D01*
X115463623Y-97941245D01*
X115414899Y-97981232D01*
X115414895Y-97981236D01*
X115398605Y-97994605D01*
X115385236Y-98010895D01*
X114224713Y-99171418D01*
X110750000Y-99171418D01*
X110539579Y-99192143D01*
X110337245Y-99253520D01*
X110150772Y-99353192D01*
X109987327Y-99487327D01*
X109853192Y-99650772D01*
X109753520Y-99837245D01*
X109692143Y-100039579D01*
X109671418Y-100250000D01*
X109671418Y-101750000D01*
X109692143Y-101960421D01*
X109753520Y-102162755D01*
X109853192Y-102349228D01*
X109987327Y-102512673D01*
X110150772Y-102646808D01*
X110337245Y-102746480D01*
X110539579Y-102807857D01*
X110750000Y-102828582D01*
X115250000Y-102828582D01*
X115460421Y-102807857D01*
X115662755Y-102746480D01*
X115849228Y-102646808D01*
X116012673Y-102512673D01*
X116146808Y-102349228D01*
X116246480Y-102162755D01*
X116307857Y-101960421D01*
X116328582Y-101750000D01*
X116328582Y-100250000D01*
X116307857Y-100039579D01*
X116246480Y-99837245D01*
X116146808Y-99650772D01*
X116012673Y-99487327D01*
X115849228Y-99353192D01*
X115662755Y-99253520D01*
X115460421Y-99192143D01*
X115416092Y-99187777D01*
X115878869Y-98725000D01*
X116819033Y-98725000D01*
X116840000Y-98727065D01*
X116860967Y-98725000D01*
X116860978Y-98725000D01*
X116923707Y-98718822D01*
X117004196Y-98694405D01*
X117078376Y-98654755D01*
X117143395Y-98601395D01*
X117156768Y-98585100D01*
X119921106Y-95820763D01*
X119937395Y-95807395D01*
X119950764Y-95791105D01*
X119950768Y-95791101D01*
X119990756Y-95742377D01*
X120030404Y-95668197D01*
X120030405Y-95668196D01*
X120054822Y-95587707D01*
X120061000Y-95524978D01*
X120061000Y-95524967D01*
X120063065Y-95504000D01*
X120061000Y-95483033D01*
X120061000Y-95304967D01*
X120063065Y-95284000D01*
X120061000Y-95263033D01*
X120061000Y-95263023D01*
X120054822Y-95200293D01*
X120030405Y-95119804D01*
X120007526Y-95077000D01*
X119990756Y-95045623D01*
X119950768Y-94996899D01*
X119950764Y-94996895D01*
X119937395Y-94980605D01*
X119921105Y-94967236D01*
X112753869Y-87800000D01*
X137961127Y-87800000D01*
X137968599Y-87875865D01*
X137990728Y-87948815D01*
X138026664Y-88016046D01*
X138075025Y-88074975D01*
X138133954Y-88123336D01*
X138201185Y-88159272D01*
X138274135Y-88181401D01*
X138350000Y-88188873D01*
X139550250Y-88187000D01*
X139647000Y-88090250D01*
X139647000Y-86003000D01*
X139653000Y-86003000D01*
X139653000Y-88090250D01*
X139749750Y-88187000D01*
X140950000Y-88188873D01*
X141025865Y-88181401D01*
X141098815Y-88159272D01*
X141166046Y-88123336D01*
X141224975Y-88074975D01*
X141273336Y-88016046D01*
X141309272Y-87948815D01*
X141331401Y-87875865D01*
X141338873Y-87800000D01*
X141337000Y-86099750D01*
X141240250Y-86003000D01*
X139653000Y-86003000D01*
X139647000Y-86003000D01*
X138059750Y-86003000D01*
X137963000Y-86099750D01*
X137961127Y-87800000D01*
X112753869Y-87800000D01*
X111978582Y-87024714D01*
X111978582Y-84200000D01*
X137961127Y-84200000D01*
X137963000Y-85900250D01*
X138059750Y-85997000D01*
X139647000Y-85997000D01*
X139647000Y-83909750D01*
X139550250Y-83813000D01*
X138350000Y-83811127D01*
X138274135Y-83818599D01*
X138201185Y-83840728D01*
X138133954Y-83876664D01*
X138075025Y-83925025D01*
X138026664Y-83983954D01*
X137990728Y-84051185D01*
X137968599Y-84124135D01*
X137961127Y-84200000D01*
X111978582Y-84200000D01*
X111972268Y-84135897D01*
X111953570Y-84074257D01*
X111923206Y-84017450D01*
X111882343Y-83967657D01*
X111832550Y-83926794D01*
X111775743Y-83896430D01*
X111714103Y-83877732D01*
X111650000Y-83871418D01*
X109050000Y-83871418D01*
X108985897Y-83877732D01*
X108924257Y-83896430D01*
X108867450Y-83926794D01*
X108817657Y-83967657D01*
X108776794Y-84017450D01*
X108746430Y-84074257D01*
X108727732Y-84135897D01*
X108721418Y-84200000D01*
X107195702Y-84200000D01*
X109244106Y-82151596D01*
X109260395Y-82138229D01*
X109273764Y-82121939D01*
X109273768Y-82121935D01*
X109313756Y-82073210D01*
X109353405Y-81999031D01*
X109359088Y-81980297D01*
X109377822Y-81918541D01*
X109384000Y-81855812D01*
X109384000Y-81855801D01*
X109386065Y-81834834D01*
X109384000Y-81813867D01*
X109384000Y-80024869D01*
X109640246Y-80281115D01*
X109653615Y-80297405D01*
X109669905Y-80310774D01*
X109669909Y-80310778D01*
X109718633Y-80350766D01*
X109775548Y-80381186D01*
X109792814Y-80390415D01*
X109873303Y-80414832D01*
X109936032Y-80421010D01*
X109936043Y-80421010D01*
X109957010Y-80423075D01*
X109977977Y-80421010D01*
X135885023Y-80421010D01*
X135905990Y-80423075D01*
X135926957Y-80421010D01*
X135926968Y-80421010D01*
X135989697Y-80414832D01*
X136070186Y-80390415D01*
X136144366Y-80350765D01*
X136196475Y-80308000D01*
X136198367Y-80308000D01*
X136305012Y-80286787D01*
X136405470Y-80245176D01*
X136495880Y-80184766D01*
X136572766Y-80107880D01*
X136633176Y-80017470D01*
X136674787Y-79917012D01*
X136681814Y-79881683D01*
X140611786Y-83811655D01*
X139749750Y-83813000D01*
X139653000Y-83909750D01*
X139653000Y-85997000D01*
X141240250Y-85997000D01*
X141337000Y-85900250D01*
X141338821Y-84247000D01*
X143105418Y-84247000D01*
X143105418Y-84270001D01*
X143116535Y-84382877D01*
X143149460Y-84491414D01*
X143202926Y-84591443D01*
X143274880Y-84679120D01*
X143362557Y-84751074D01*
X143462586Y-84804540D01*
X143571123Y-84837465D01*
X143607001Y-84840999D01*
X143607000Y-87089130D01*
X139199661Y-91496470D01*
X139173176Y-91432530D01*
X139112766Y-91342120D01*
X139035880Y-91265234D01*
X138945470Y-91204824D01*
X138845012Y-91163213D01*
X138738367Y-91142000D01*
X138629633Y-91142000D01*
X138522988Y-91163213D01*
X138422530Y-91204824D01*
X138332120Y-91265234D01*
X138314545Y-91282809D01*
X138265804Y-91297595D01*
X138231273Y-91316052D01*
X138191623Y-91337245D01*
X138142898Y-91377233D01*
X138142895Y-91377236D01*
X138126605Y-91390605D01*
X138113236Y-91406895D01*
X136854132Y-92666000D01*
X136851633Y-92666000D01*
X136744988Y-92687213D01*
X136644530Y-92728824D01*
X136554120Y-92789234D01*
X136477234Y-92866120D01*
X136416824Y-92956530D01*
X136375213Y-93056988D01*
X136354000Y-93163633D01*
X136354000Y-93272367D01*
X136375213Y-93379012D01*
X136416824Y-93479470D01*
X136477234Y-93569880D01*
X136554120Y-93646766D01*
X136644530Y-93707176D01*
X136744988Y-93748787D01*
X136851633Y-93770000D01*
X136926132Y-93770000D01*
X136712896Y-93983236D01*
X136696606Y-93996605D01*
X136683237Y-94012895D01*
X136683232Y-94012900D01*
X136643245Y-94061624D01*
X136603596Y-94135804D01*
X136579179Y-94216294D01*
X136570935Y-94300000D01*
X136573001Y-94320977D01*
X136573000Y-99171418D01*
X134750000Y-99171418D01*
X134539579Y-99192143D01*
X134337245Y-99253520D01*
X134150772Y-99353192D01*
X133987327Y-99487327D01*
X133853192Y-99650772D01*
X133753520Y-99837245D01*
X133692143Y-100039579D01*
X133671418Y-100250000D01*
X133671418Y-100665000D01*
X132687646Y-100665000D01*
X132685880Y-100663234D01*
X132595470Y-100602824D01*
X132495012Y-100561213D01*
X132388367Y-100540000D01*
X132279633Y-100540000D01*
X132172988Y-100561213D01*
X132072530Y-100602824D01*
X131982120Y-100663234D01*
X131905234Y-100740120D01*
X131844824Y-100830530D01*
X131803213Y-100930988D01*
X131782000Y-101037633D01*
X131782000Y-101146367D01*
X131803213Y-101253012D01*
X131844824Y-101353470D01*
X131905234Y-101443880D01*
X131982120Y-101520766D01*
X132072530Y-101581176D01*
X132172988Y-101622787D01*
X132279633Y-101644000D01*
X132388367Y-101644000D01*
X132495012Y-101622787D01*
X132595470Y-101581176D01*
X132685880Y-101520766D01*
X132687646Y-101519000D01*
X133671418Y-101519000D01*
X133671418Y-101750000D01*
X133692143Y-101960421D01*
X133753520Y-102162755D01*
X133853192Y-102349228D01*
X133987327Y-102512673D01*
X134150772Y-102646808D01*
X134337245Y-102746480D01*
X134539579Y-102807857D01*
X134750000Y-102828582D01*
X139250000Y-102828582D01*
X139460421Y-102807857D01*
X139662755Y-102746480D01*
X139849228Y-102646808D01*
X139906264Y-102600000D01*
X143161127Y-102600000D01*
X143168599Y-102675865D01*
X143190728Y-102748815D01*
X143226664Y-102816046D01*
X143275025Y-102874975D01*
X143333954Y-102923336D01*
X143401185Y-102959272D01*
X143474135Y-102981401D01*
X143550000Y-102988873D01*
X144150250Y-102987000D01*
X144247000Y-102890250D01*
X144247000Y-102003000D01*
X144253000Y-102003000D01*
X144253000Y-102890250D01*
X144349750Y-102987000D01*
X144950000Y-102988873D01*
X145025865Y-102981401D01*
X145098815Y-102959272D01*
X145166046Y-102923336D01*
X145224975Y-102874975D01*
X145232734Y-102865520D01*
X146634607Y-102865520D01*
X146634607Y-103134480D01*
X146687078Y-103398271D01*
X146790004Y-103646756D01*
X146939430Y-103870388D01*
X147129612Y-104060570D01*
X147353244Y-104209996D01*
X147601729Y-104312922D01*
X147865520Y-104365393D01*
X148134480Y-104365393D01*
X148398271Y-104312922D01*
X148646756Y-104209996D01*
X148870388Y-104060570D01*
X149060570Y-103870388D01*
X149209996Y-103646756D01*
X149312922Y-103398271D01*
X149365393Y-103134480D01*
X149365393Y-102865520D01*
X149312922Y-102601729D01*
X149209996Y-102353244D01*
X149060570Y-102129612D01*
X148870388Y-101939430D01*
X148646756Y-101790004D01*
X148398271Y-101687078D01*
X148134480Y-101634607D01*
X147865520Y-101634607D01*
X147601729Y-101687078D01*
X147353244Y-101790004D01*
X147129612Y-101939430D01*
X146939430Y-102129612D01*
X146790004Y-102353244D01*
X146687078Y-102601729D01*
X146634607Y-102865520D01*
X145232734Y-102865520D01*
X145273336Y-102816046D01*
X145309272Y-102748815D01*
X145331401Y-102675865D01*
X145338873Y-102600000D01*
X145337000Y-102099750D01*
X145240250Y-102003000D01*
X144253000Y-102003000D01*
X144247000Y-102003000D01*
X143259750Y-102003000D01*
X143163000Y-102099750D01*
X143161127Y-102600000D01*
X139906264Y-102600000D01*
X140012673Y-102512673D01*
X140146808Y-102349228D01*
X140246480Y-102162755D01*
X140307857Y-101960421D01*
X140328582Y-101750000D01*
X140328582Y-101400000D01*
X143161127Y-101400000D01*
X143163000Y-101900250D01*
X143259750Y-101997000D01*
X144247000Y-101997000D01*
X144247000Y-101109750D01*
X144253000Y-101109750D01*
X144253000Y-101997000D01*
X145240250Y-101997000D01*
X145337000Y-101900250D01*
X145338873Y-101400000D01*
X145331401Y-101324135D01*
X145309272Y-101251185D01*
X145273336Y-101183954D01*
X145224975Y-101125025D01*
X145166046Y-101076664D01*
X145098815Y-101040728D01*
X145025865Y-101018599D01*
X144950000Y-101011127D01*
X144349750Y-101013000D01*
X144253000Y-101109750D01*
X144247000Y-101109750D01*
X144150250Y-101013000D01*
X143550000Y-101011127D01*
X143474135Y-101018599D01*
X143401185Y-101040728D01*
X143333954Y-101076664D01*
X143275025Y-101125025D01*
X143226664Y-101183954D01*
X143190728Y-101251185D01*
X143168599Y-101324135D01*
X143161127Y-101400000D01*
X140328582Y-101400000D01*
X140328582Y-100250000D01*
X140307857Y-100039579D01*
X140246480Y-99837245D01*
X140146808Y-99650772D01*
X140012673Y-99487327D01*
X139849228Y-99353192D01*
X139662755Y-99253520D01*
X139460421Y-99192143D01*
X139250000Y-99171418D01*
X137427000Y-99171418D01*
X137427000Y-98243633D01*
X143212000Y-98243633D01*
X143212000Y-98352367D01*
X143233213Y-98459012D01*
X143274824Y-98559470D01*
X143335234Y-98649880D01*
X143412120Y-98726766D01*
X143502530Y-98787176D01*
X143602988Y-98828787D01*
X143709633Y-98850000D01*
X143712131Y-98850000D01*
X143823001Y-98960870D01*
X143823001Y-99071418D01*
X143799999Y-99071418D01*
X143687123Y-99082535D01*
X143578586Y-99115460D01*
X143478557Y-99168926D01*
X143390880Y-99240880D01*
X143318926Y-99328557D01*
X143265460Y-99428586D01*
X143232535Y-99537123D01*
X143221418Y-99649999D01*
X143221418Y-100350001D01*
X143232535Y-100462877D01*
X143265460Y-100571414D01*
X143318926Y-100671443D01*
X143390880Y-100759120D01*
X143478557Y-100831074D01*
X143578586Y-100884540D01*
X143687123Y-100917465D01*
X143799999Y-100928582D01*
X144700001Y-100928582D01*
X144812877Y-100917465D01*
X144921414Y-100884540D01*
X145021443Y-100831074D01*
X145109120Y-100759120D01*
X145181074Y-100671443D01*
X145234540Y-100571414D01*
X145267465Y-100462877D01*
X145278582Y-100350001D01*
X145278582Y-99649999D01*
X145267465Y-99537123D01*
X145234540Y-99428586D01*
X145181074Y-99328557D01*
X145109120Y-99240880D01*
X145021443Y-99168926D01*
X144921414Y-99115460D01*
X144812877Y-99082535D01*
X144700001Y-99071418D01*
X144677000Y-99071418D01*
X144677000Y-98804967D01*
X144679065Y-98784000D01*
X144677000Y-98763033D01*
X144677000Y-98763022D01*
X144670822Y-98700293D01*
X144646405Y-98619804D01*
X144627856Y-98585101D01*
X144606756Y-98545623D01*
X144566768Y-98496899D01*
X144566764Y-98496895D01*
X144553395Y-98480605D01*
X144537105Y-98467236D01*
X144316000Y-98246131D01*
X144316000Y-98243633D01*
X144294787Y-98136988D01*
X144253176Y-98036530D01*
X144192766Y-97946120D01*
X144115880Y-97869234D01*
X144025470Y-97808824D01*
X143925012Y-97767213D01*
X143818367Y-97746000D01*
X143709633Y-97746000D01*
X143602988Y-97767213D01*
X143502530Y-97808824D01*
X143412120Y-97869234D01*
X143335234Y-97946120D01*
X143274824Y-98036530D01*
X143233213Y-98136988D01*
X143212000Y-98243633D01*
X137427000Y-98243633D01*
X137427000Y-94476868D01*
X144321112Y-87582758D01*
X144337395Y-87569395D01*
X144350759Y-87553111D01*
X144350768Y-87553102D01*
X144390755Y-87504377D01*
X144430404Y-87430197D01*
X144430405Y-87430196D01*
X144454822Y-87349707D01*
X144461000Y-87286978D01*
X144461000Y-87286968D01*
X144463065Y-87266001D01*
X144461000Y-87245034D01*
X144461000Y-84840998D01*
X144496877Y-84837465D01*
X144605414Y-84804540D01*
X144705443Y-84751074D01*
X144793120Y-84679120D01*
X144865074Y-84591443D01*
X144918540Y-84491414D01*
X144951465Y-84382877D01*
X144962582Y-84270001D01*
X144962582Y-83581451D01*
X145105418Y-83724287D01*
X145105418Y-84270001D01*
X145116535Y-84382877D01*
X145149460Y-84491414D01*
X145202926Y-84591443D01*
X145274880Y-84679120D01*
X145362557Y-84751074D01*
X145462586Y-84804540D01*
X145571123Y-84837465D01*
X145683999Y-84848582D01*
X146384001Y-84848582D01*
X146496877Y-84837465D01*
X146605414Y-84804540D01*
X146705443Y-84751074D01*
X146793120Y-84679120D01*
X146865074Y-84591443D01*
X146918540Y-84491414D01*
X146951465Y-84382877D01*
X146962582Y-84270001D01*
X146962582Y-83369999D01*
X146951465Y-83257123D01*
X146918540Y-83148586D01*
X146865074Y-83048557D01*
X146793120Y-82960880D01*
X146705443Y-82888926D01*
X146605414Y-82835460D01*
X146496877Y-82802535D01*
X146461000Y-82799002D01*
X146461000Y-80014998D01*
X146496877Y-80011465D01*
X146605414Y-79978540D01*
X146705443Y-79925074D01*
X146793120Y-79853120D01*
X146865074Y-79765443D01*
X146918540Y-79665414D01*
X146951465Y-79556877D01*
X146962582Y-79444001D01*
X146962582Y-78543999D01*
X146951465Y-78431123D01*
X146918540Y-78322586D01*
X146865074Y-78222557D01*
X146793120Y-78134880D01*
X146705443Y-78062926D01*
X146605414Y-78009460D01*
X146496877Y-77976535D01*
X146384001Y-77965418D01*
X145733999Y-77965418D01*
X145643226Y-77974358D01*
X145375757Y-77706889D01*
X145362385Y-77690595D01*
X145304391Y-77643000D01*
X146458354Y-77643000D01*
X146460120Y-77644766D01*
X146550530Y-77705176D01*
X146650988Y-77746787D01*
X146757633Y-77768000D01*
X146866367Y-77768000D01*
X146973012Y-77746787D01*
X147073470Y-77705176D01*
X147163880Y-77644766D01*
X147240766Y-77567880D01*
X147301176Y-77477470D01*
X147342787Y-77377012D01*
X147364000Y-77270367D01*
X147364000Y-77161633D01*
X147342787Y-77054988D01*
X147301176Y-76954530D01*
X147240766Y-76864120D01*
X147163880Y-76787234D01*
X147073470Y-76726824D01*
X146973012Y-76685213D01*
X146866367Y-76664000D01*
X146757633Y-76664000D01*
X146650988Y-76685213D01*
X146550530Y-76726824D01*
X146460120Y-76787234D01*
X146458354Y-76789000D01*
X144380869Y-76789000D01*
X143758087Y-76166218D01*
X143764000Y-76159013D01*
X143771657Y-76168343D01*
X143821450Y-76209206D01*
X143878257Y-76239570D01*
X143939897Y-76258268D01*
X144004000Y-76264582D01*
X144804000Y-76264582D01*
X144868103Y-76258268D01*
X144929743Y-76239570D01*
X144986550Y-76209206D01*
X145036343Y-76168343D01*
X145077206Y-76118550D01*
X145107570Y-76061743D01*
X145126268Y-76000103D01*
X145132582Y-75936000D01*
X145132582Y-74636000D01*
X145126268Y-74571897D01*
X145107570Y-74510257D01*
X145077206Y-74453450D01*
X145036343Y-74403657D01*
X144986550Y-74362794D01*
X144929743Y-74332430D01*
X144868103Y-74313732D01*
X144804000Y-74307418D01*
X144535082Y-74307418D01*
X144552000Y-74222367D01*
X144552000Y-74113633D01*
X144530787Y-74006988D01*
X144489176Y-73906530D01*
X144428766Y-73816120D01*
X144351880Y-73739234D01*
X144261470Y-73678824D01*
X144161012Y-73637213D01*
X144054367Y-73616000D01*
X143945633Y-73616000D01*
X143838988Y-73637213D01*
X143738530Y-73678824D01*
X143648120Y-73739234D01*
X143571234Y-73816120D01*
X143510824Y-73906530D01*
X143469213Y-74006988D01*
X143448000Y-74113633D01*
X143448000Y-74222367D01*
X143464918Y-74307418D01*
X142724000Y-74307418D01*
X142659897Y-74313732D01*
X142598257Y-74332430D01*
X142541450Y-74362794D01*
X142494000Y-74401734D01*
X142446550Y-74362794D01*
X142389743Y-74332430D01*
X142328103Y-74313732D01*
X142264000Y-74307418D01*
X141464000Y-74307418D01*
X141399897Y-74313732D01*
X141338257Y-74332430D01*
X141281450Y-74362794D01*
X141231657Y-74403657D01*
X141229000Y-74406895D01*
X141226343Y-74403657D01*
X141176550Y-74362794D01*
X141119743Y-74332430D01*
X141058103Y-74313732D01*
X140994000Y-74307418D01*
X140194000Y-74307418D01*
X140129897Y-74313732D01*
X140068257Y-74332430D01*
X140011450Y-74362794D01*
X139961657Y-74403657D01*
X139954000Y-74412987D01*
X139946343Y-74403657D01*
X139896550Y-74362794D01*
X139839743Y-74332430D01*
X139778103Y-74313732D01*
X139714000Y-74307418D01*
X139325228Y-74307418D01*
X139366766Y-74265880D01*
X139427176Y-74175470D01*
X139468787Y-74075012D01*
X139490000Y-73968367D01*
X139490000Y-73859633D01*
X139468787Y-73752988D01*
X139427176Y-73652530D01*
X139366766Y-73562120D01*
X139289880Y-73485234D01*
X139199470Y-73424824D01*
X139099012Y-73383213D01*
X138992367Y-73362000D01*
X138989869Y-73362000D01*
X138474000Y-72846132D01*
X138474000Y-72843633D01*
X138452787Y-72736988D01*
X138411176Y-72636530D01*
X138350766Y-72546120D01*
X138273880Y-72469234D01*
X138183470Y-72408824D01*
X138083012Y-72367213D01*
X137976367Y-72346000D01*
X137867633Y-72346000D01*
X137760988Y-72367213D01*
X137660530Y-72408824D01*
X137570120Y-72469234D01*
X137493234Y-72546120D01*
X137432824Y-72636530D01*
X137391213Y-72736988D01*
X137370000Y-72843633D01*
X137370000Y-72952367D01*
X137391213Y-73059012D01*
X137432824Y-73159470D01*
X137493234Y-73249880D01*
X137570120Y-73326766D01*
X137660530Y-73387176D01*
X137760988Y-73428787D01*
X137867633Y-73450000D01*
X137870132Y-73450000D01*
X138386000Y-73965869D01*
X138386000Y-73968367D01*
X138407213Y-74075012D01*
X138448824Y-74175470D01*
X138509234Y-74265880D01*
X138582721Y-74339367D01*
X138569743Y-74332430D01*
X138508103Y-74313732D01*
X138444000Y-74307418D01*
X137644000Y-74307418D01*
X137579897Y-74313732D01*
X137518257Y-74332430D01*
X137461450Y-74362794D01*
X137414000Y-74401734D01*
X137366550Y-74362794D01*
X137309743Y-74332430D01*
X137248103Y-74313732D01*
X137191431Y-74308150D01*
X137180405Y-74271804D01*
X137158471Y-74230768D01*
X137140755Y-74197623D01*
X137100768Y-74148898D01*
X137100759Y-74148889D01*
X137087395Y-74132605D01*
X137071112Y-74119242D01*
X135816768Y-72864900D01*
X135803395Y-72848605D01*
X135738376Y-72795245D01*
X135664196Y-72755595D01*
X135583707Y-72731178D01*
X135520978Y-72725000D01*
X135520967Y-72725000D01*
X135500000Y-72722935D01*
X135479033Y-72725000D01*
X134640966Y-72725000D01*
X134619999Y-72722935D01*
X134599032Y-72725000D01*
X134599022Y-72725000D01*
X134536293Y-72731178D01*
X134455804Y-72755595D01*
X134429612Y-72769595D01*
X134381623Y-72795245D01*
X134332898Y-72835232D01*
X134332889Y-72835241D01*
X134316605Y-72848605D01*
X134303241Y-72864889D01*
X131141132Y-76027000D01*
X127099646Y-76027000D01*
X127097880Y-76025234D01*
X127007470Y-75964824D01*
X126962025Y-75946000D01*
X127007470Y-75927176D01*
X127097880Y-75866766D01*
X127174766Y-75789880D01*
X127235176Y-75699470D01*
X127276787Y-75599012D01*
X127298000Y-75492367D01*
X127298000Y-75489868D01*
X127793287Y-74994582D01*
X128284000Y-74994582D01*
X128348103Y-74988268D01*
X128409743Y-74969570D01*
X128466550Y-74939206D01*
X128516343Y-74898343D01*
X128524000Y-74889013D01*
X128531657Y-74898343D01*
X128581450Y-74939206D01*
X128638257Y-74969570D01*
X128699897Y-74988268D01*
X128764000Y-74994582D01*
X129564000Y-74994582D01*
X129628103Y-74988268D01*
X129689743Y-74969570D01*
X129746550Y-74939206D01*
X129796343Y-74898343D01*
X129837206Y-74848550D01*
X129867570Y-74791743D01*
X129886268Y-74730103D01*
X129892582Y-74666000D01*
X129892582Y-74341000D01*
X130202354Y-74341000D01*
X130204120Y-74342766D01*
X130294530Y-74403176D01*
X130394988Y-74444787D01*
X130501633Y-74466000D01*
X130610367Y-74466000D01*
X130717012Y-74444787D01*
X130817470Y-74403176D01*
X130907880Y-74342766D01*
X130984766Y-74265880D01*
X131045176Y-74175470D01*
X131086787Y-74075012D01*
X131108000Y-73968367D01*
X131108000Y-73859633D01*
X131086787Y-73752988D01*
X131045176Y-73652530D01*
X130984766Y-73562120D01*
X130907880Y-73485234D01*
X130817470Y-73424824D01*
X130717012Y-73383213D01*
X130610367Y-73362000D01*
X130501633Y-73362000D01*
X130394988Y-73383213D01*
X130294530Y-73424824D01*
X130204120Y-73485234D01*
X130202354Y-73487000D01*
X129892582Y-73487000D01*
X129892582Y-73366000D01*
X129886268Y-73301897D01*
X129867570Y-73240257D01*
X129837206Y-73183450D01*
X129796343Y-73133657D01*
X129746550Y-73092794D01*
X129689743Y-73062430D01*
X129628103Y-73043732D01*
X129564000Y-73037418D01*
X128764000Y-73037418D01*
X128699897Y-73043732D01*
X128638257Y-73062430D01*
X128581450Y-73092794D01*
X128531657Y-73133657D01*
X128524000Y-73142987D01*
X128516343Y-73133657D01*
X128466550Y-73092794D01*
X128409743Y-73062430D01*
X128348103Y-73043732D01*
X128284000Y-73037418D01*
X127484000Y-73037418D01*
X127419897Y-73043732D01*
X127358257Y-73062430D01*
X127301450Y-73092794D01*
X127254000Y-73131734D01*
X127206550Y-73092794D01*
X127149743Y-73062430D01*
X127088103Y-73043732D01*
X127024000Y-73037418D01*
X126589485Y-73037418D01*
X126054966Y-72502900D01*
X126041593Y-72486605D01*
X125976574Y-72433245D01*
X125902394Y-72393595D01*
X125821905Y-72369178D01*
X125775227Y-72364581D01*
X125771880Y-72361234D01*
X125681470Y-72300824D01*
X125581012Y-72259213D01*
X125474367Y-72238000D01*
X125365633Y-72238000D01*
X125258988Y-72259213D01*
X125158530Y-72300824D01*
X125068120Y-72361234D01*
X125066354Y-72363000D01*
X124470964Y-72363000D01*
X124449999Y-72360935D01*
X124429034Y-72363000D01*
X124429022Y-72363000D01*
X124366293Y-72369178D01*
X124285804Y-72393595D01*
X124257313Y-72408824D01*
X124211623Y-72433245D01*
X124162898Y-72473232D01*
X124162889Y-72473241D01*
X124146605Y-72486605D01*
X124133240Y-72502890D01*
X123786899Y-72849232D01*
X123770605Y-72862605D01*
X123757233Y-72878899D01*
X123757232Y-72878900D01*
X123717245Y-72927624D01*
X123703042Y-72954197D01*
X123677595Y-73001805D01*
X123666569Y-73038150D01*
X123609897Y-73043732D01*
X123548257Y-73062430D01*
X123491450Y-73092794D01*
X123441657Y-73133657D01*
X123439000Y-73136895D01*
X123436343Y-73133657D01*
X123386550Y-73092794D01*
X123329743Y-73062430D01*
X123268103Y-73043732D01*
X123204000Y-73037418D01*
X122404000Y-73037418D01*
X122339897Y-73043732D01*
X122278257Y-73062430D01*
X122221450Y-73092794D01*
X122219355Y-73094513D01*
X124257869Y-71056001D01*
X138153034Y-71056001D01*
X138174001Y-71058066D01*
X138194968Y-71056001D01*
X138194979Y-71056001D01*
X138257708Y-71049823D01*
X138338197Y-71025406D01*
X138412377Y-70985756D01*
X138477396Y-70932396D01*
X138490769Y-70916101D01*
X138734107Y-70672764D01*
X138750396Y-70659396D01*
X138763765Y-70643106D01*
X138763769Y-70643102D01*
X138803756Y-70594378D01*
X138836528Y-70533064D01*
X138843406Y-70520197D01*
X138867823Y-70439708D01*
X138874001Y-70376979D01*
X138874001Y-70376967D01*
X138876066Y-70356002D01*
X138874001Y-70335037D01*
X138874001Y-69960642D01*
X138914000Y-69964582D01*
X139714000Y-69964582D01*
X139778103Y-69958268D01*
X139839743Y-69939570D01*
X139896550Y-69909206D01*
X139946343Y-69868343D01*
X139954000Y-69859013D01*
X139961657Y-69868343D01*
X140011450Y-69909206D01*
X140068257Y-69939570D01*
X140129897Y-69958268D01*
X140194000Y-69964582D01*
X140289000Y-69964582D01*
X140289000Y-70004354D01*
X140287234Y-70006120D01*
X140226824Y-70096530D01*
X140185213Y-70196988D01*
X140164000Y-70303633D01*
X140164000Y-70412367D01*
X140185213Y-70519012D01*
X140226824Y-70619470D01*
X140287234Y-70709880D01*
X140364120Y-70786766D01*
X140454530Y-70847176D01*
X140554988Y-70888787D01*
X140661633Y-70910000D01*
X140770367Y-70910000D01*
X140877012Y-70888787D01*
X140977470Y-70847176D01*
X141067880Y-70786766D01*
X141144766Y-70709880D01*
X141205176Y-70619470D01*
X141246787Y-70519012D01*
X141268000Y-70412367D01*
X141268000Y-70303633D01*
X141246787Y-70196988D01*
X141205176Y-70096530D01*
X141144766Y-70006120D01*
X141143000Y-70004354D01*
X141143000Y-69927139D01*
X141176550Y-69909206D01*
X141226343Y-69868343D01*
X141229000Y-69865105D01*
X141231657Y-69868343D01*
X141281450Y-69909206D01*
X141338257Y-69939570D01*
X141399897Y-69958268D01*
X141464000Y-69964582D01*
X141750714Y-69964582D01*
X142196000Y-70409869D01*
X142196000Y-70412367D01*
X142217213Y-70519012D01*
X142258824Y-70619470D01*
X142319234Y-70709880D01*
X142396120Y-70786766D01*
X142486530Y-70847176D01*
X142586988Y-70888787D01*
X142693633Y-70910000D01*
X142802367Y-70910000D01*
X142909012Y-70888787D01*
X143009470Y-70847176D01*
X143099880Y-70786766D01*
X143176766Y-70709880D01*
X143237176Y-70619470D01*
X143278787Y-70519012D01*
X143300000Y-70412367D01*
X143300000Y-70303633D01*
X143278787Y-70196988D01*
X143237176Y-70096530D01*
X143176766Y-70006120D01*
X143135228Y-69964582D01*
X143524000Y-69964582D01*
X143588103Y-69958268D01*
X143649743Y-69939570D01*
X143706550Y-69909206D01*
X143719113Y-69898896D01*
X143729025Y-69910975D01*
X143787954Y-69959336D01*
X143855185Y-69995272D01*
X143928135Y-70017401D01*
X144004000Y-70024873D01*
X144304250Y-70023000D01*
X144401000Y-69926250D01*
X144401000Y-68989000D01*
X144407000Y-68989000D01*
X144407000Y-69926250D01*
X144503750Y-70023000D01*
X144804000Y-70024873D01*
X144879865Y-70017401D01*
X144952815Y-69995272D01*
X145020046Y-69959336D01*
X145078975Y-69910975D01*
X145127336Y-69852046D01*
X145163272Y-69784815D01*
X145185401Y-69711865D01*
X145192873Y-69636000D01*
X145191000Y-69085750D01*
X145094250Y-68989000D01*
X144407000Y-68989000D01*
X144401000Y-68989000D01*
X144381000Y-68989000D01*
X144381000Y-68983000D01*
X144401000Y-68983000D01*
X144401000Y-68045750D01*
X144407000Y-68045750D01*
X144407000Y-68983000D01*
X145094250Y-68983000D01*
X145191000Y-68886250D01*
X145192873Y-68336000D01*
X145185401Y-68260135D01*
X145163272Y-68187185D01*
X145127336Y-68119954D01*
X145078975Y-68061025D01*
X145020046Y-68012664D01*
X144952815Y-67976728D01*
X144879865Y-67954599D01*
X144804000Y-67947127D01*
X144503750Y-67949000D01*
X144407000Y-68045750D01*
X144401000Y-68045750D01*
X144304250Y-67949000D01*
X144004000Y-67947127D01*
X143928135Y-67954599D01*
X143855185Y-67976728D01*
X143787954Y-68012664D01*
X143729025Y-68061025D01*
X143719113Y-68073104D01*
X143706550Y-68062794D01*
X143683000Y-68050206D01*
X143683000Y-67917646D01*
X143684766Y-67915880D01*
X143745176Y-67825470D01*
X143786787Y-67725012D01*
X143808000Y-67618367D01*
X143808000Y-67509633D01*
X143786787Y-67402988D01*
X143745176Y-67302530D01*
X143684766Y-67212120D01*
X143607880Y-67135234D01*
X143517470Y-67074824D01*
X143417012Y-67033213D01*
X143310367Y-67012000D01*
X143201633Y-67012000D01*
X143094988Y-67033213D01*
X142994530Y-67074824D01*
X142904120Y-67135234D01*
X142827234Y-67212120D01*
X142766824Y-67302530D01*
X142725213Y-67402988D01*
X142704000Y-67509633D01*
X142704000Y-67618367D01*
X142725213Y-67725012D01*
X142766824Y-67825470D01*
X142827234Y-67915880D01*
X142829000Y-67917646D01*
X142829000Y-68007418D01*
X142724000Y-68007418D01*
X142659897Y-68013732D01*
X142598257Y-68032430D01*
X142541450Y-68062794D01*
X142494000Y-68101734D01*
X142446550Y-68062794D01*
X142389743Y-68032430D01*
X142328103Y-68013732D01*
X142264000Y-68007418D01*
X141464000Y-68007418D01*
X141399897Y-68013732D01*
X141338257Y-68032430D01*
X141281450Y-68062794D01*
X141231657Y-68103657D01*
X141229000Y-68106895D01*
X141226343Y-68103657D01*
X141176550Y-68062794D01*
X141119743Y-68032430D01*
X141058103Y-68013732D01*
X140994000Y-68007418D01*
X140194000Y-68007418D01*
X140129897Y-68013732D01*
X140127000Y-68014611D01*
X140127000Y-67917646D01*
X140128766Y-67915880D01*
X140189176Y-67825470D01*
X140230787Y-67725012D01*
X140252000Y-67618367D01*
X140252000Y-67509633D01*
X140230787Y-67402988D01*
X140189176Y-67302530D01*
X140128766Y-67212120D01*
X140051880Y-67135234D01*
X139961470Y-67074824D01*
X139861012Y-67033213D01*
X139754367Y-67012000D01*
X139645633Y-67012000D01*
X139538988Y-67033213D01*
X139438530Y-67074824D01*
X139348120Y-67135234D01*
X139271234Y-67212120D01*
X139210824Y-67302530D01*
X139169213Y-67402988D01*
X139148000Y-67509633D01*
X139148000Y-67618367D01*
X139169213Y-67725012D01*
X139210824Y-67825470D01*
X139271234Y-67915880D01*
X139273000Y-67917646D01*
X139273000Y-68007418D01*
X138914000Y-68007418D01*
X138849897Y-68013732D01*
X138788257Y-68032430D01*
X138731450Y-68062794D01*
X138681657Y-68103657D01*
X138679000Y-68106895D01*
X138676343Y-68103657D01*
X138626550Y-68062794D01*
X138569743Y-68032430D01*
X138508103Y-68013732D01*
X138444000Y-68007418D01*
X137644000Y-68007418D01*
X137579897Y-68013732D01*
X137518257Y-68032430D01*
X137461450Y-68062794D01*
X137414000Y-68101734D01*
X137366550Y-68062794D01*
X137309743Y-68032430D01*
X137298768Y-68029101D01*
X137465869Y-67862000D01*
X137468367Y-67862000D01*
X137575012Y-67840787D01*
X137675470Y-67799176D01*
X137765880Y-67738766D01*
X137842766Y-67661880D01*
X137903176Y-67571470D01*
X137944787Y-67471012D01*
X137966000Y-67364367D01*
X137966000Y-67255633D01*
X137944787Y-67148988D01*
X137903176Y-67048530D01*
X137842766Y-66958120D01*
X137765880Y-66881234D01*
X137742363Y-66865520D01*
X146634607Y-66865520D01*
X146634607Y-67134480D01*
X146687078Y-67398271D01*
X146790004Y-67646756D01*
X146939430Y-67870388D01*
X147129612Y-68060570D01*
X147353244Y-68209996D01*
X147601729Y-68312922D01*
X147865520Y-68365393D01*
X148134480Y-68365393D01*
X148398271Y-68312922D01*
X148646756Y-68209996D01*
X148870388Y-68060570D01*
X149060570Y-67870388D01*
X149209996Y-67646756D01*
X149312922Y-67398271D01*
X149365393Y-67134480D01*
X149365393Y-66865520D01*
X149312922Y-66601729D01*
X149209996Y-66353244D01*
X149060570Y-66129612D01*
X148870388Y-65939430D01*
X148646756Y-65790004D01*
X148398271Y-65687078D01*
X148134480Y-65634607D01*
X147865520Y-65634607D01*
X147601729Y-65687078D01*
X147353244Y-65790004D01*
X147129612Y-65939430D01*
X146939430Y-66129612D01*
X146790004Y-66353244D01*
X146687078Y-66601729D01*
X146634607Y-66865520D01*
X137742363Y-66865520D01*
X137675470Y-66820824D01*
X137575012Y-66779213D01*
X137468367Y-66758000D01*
X137359633Y-66758000D01*
X137252988Y-66779213D01*
X137152530Y-66820824D01*
X137062120Y-66881234D01*
X136985234Y-66958120D01*
X136924824Y-67048530D01*
X136883213Y-67148988D01*
X136862000Y-67255633D01*
X136862000Y-67258131D01*
X136496900Y-67623232D01*
X136480605Y-67636605D01*
X136467233Y-67652899D01*
X136467232Y-67652900D01*
X136427245Y-67701624D01*
X136417958Y-67719000D01*
X136387595Y-67775805D01*
X136363178Y-67856294D01*
X136357000Y-67919023D01*
X136357000Y-67919033D01*
X136354935Y-67940000D01*
X136357000Y-67960968D01*
X136357000Y-68010077D01*
X136319897Y-68013732D01*
X136258257Y-68032430D01*
X136201450Y-68062794D01*
X136151657Y-68103657D01*
X136144000Y-68112987D01*
X136136343Y-68103657D01*
X136086550Y-68062794D01*
X136063000Y-68050206D01*
X136063000Y-67663646D01*
X136064766Y-67661880D01*
X136125176Y-67571470D01*
X136166787Y-67471012D01*
X136188000Y-67364367D01*
X136188000Y-67255633D01*
X136166787Y-67148988D01*
X136125176Y-67048530D01*
X136064766Y-66958120D01*
X135987880Y-66881234D01*
X135897470Y-66820824D01*
X135797012Y-66779213D01*
X135690367Y-66758000D01*
X135581633Y-66758000D01*
X135474988Y-66779213D01*
X135374530Y-66820824D01*
X135284120Y-66881234D01*
X135207234Y-66958120D01*
X135146824Y-67048530D01*
X135105213Y-67148988D01*
X135084000Y-67255633D01*
X135084000Y-67364367D01*
X135105213Y-67471012D01*
X135146824Y-67571470D01*
X135207234Y-67661880D01*
X135209000Y-67663646D01*
X135209000Y-68007418D01*
X135104000Y-68007418D01*
X135039897Y-68013732D01*
X134978257Y-68032430D01*
X134921450Y-68062794D01*
X134871657Y-68103657D01*
X134830794Y-68153450D01*
X134800430Y-68210257D01*
X134781732Y-68271897D01*
X134775418Y-68336000D01*
X134775418Y-69636000D01*
X134779456Y-69677000D01*
X128202045Y-69677000D01*
X128251176Y-69603470D01*
X128292787Y-69503012D01*
X128314000Y-69396367D01*
X128314000Y-69287633D01*
X128292787Y-69180988D01*
X128251176Y-69080530D01*
X128190766Y-68990120D01*
X128189000Y-68988354D01*
X128189000Y-68694582D01*
X128284000Y-68694582D01*
X128348103Y-68688268D01*
X128409743Y-68669570D01*
X128466550Y-68639206D01*
X128479113Y-68628896D01*
X128489025Y-68640975D01*
X128547954Y-68689336D01*
X128615185Y-68725272D01*
X128688135Y-68747401D01*
X128764000Y-68754873D01*
X129064250Y-68753000D01*
X129161000Y-68656250D01*
X129161000Y-67719000D01*
X129167000Y-67719000D01*
X129167000Y-68656250D01*
X129263750Y-68753000D01*
X129564000Y-68754873D01*
X129639865Y-68747401D01*
X129712815Y-68725272D01*
X129780046Y-68689336D01*
X129838975Y-68640975D01*
X129887336Y-68582046D01*
X129923272Y-68514815D01*
X129945401Y-68441865D01*
X129952873Y-68366000D01*
X129951000Y-67815750D01*
X129854250Y-67719000D01*
X129167000Y-67719000D01*
X129161000Y-67719000D01*
X129141000Y-67719000D01*
X129141000Y-67713000D01*
X129161000Y-67713000D01*
X129161000Y-66775750D01*
X129167000Y-66775750D01*
X129167000Y-67713000D01*
X129854250Y-67713000D01*
X129951000Y-67616250D01*
X129952873Y-67066000D01*
X129945401Y-66990135D01*
X129923272Y-66917185D01*
X129887336Y-66849954D01*
X129838975Y-66791025D01*
X129780046Y-66742664D01*
X129712815Y-66706728D01*
X129639865Y-66684599D01*
X129564000Y-66677127D01*
X129263750Y-66679000D01*
X129167000Y-66775750D01*
X129161000Y-66775750D01*
X129064250Y-66679000D01*
X128764000Y-66677127D01*
X128688135Y-66684599D01*
X128615185Y-66706728D01*
X128547954Y-66742664D01*
X128489025Y-66791025D01*
X128479113Y-66803104D01*
X128466550Y-66792794D01*
X128409743Y-66762430D01*
X128348103Y-66743732D01*
X128284000Y-66737418D01*
X127484000Y-66737418D01*
X127419897Y-66743732D01*
X127358257Y-66762430D01*
X127301450Y-66792794D01*
X127254000Y-66831734D01*
X127206550Y-66792794D01*
X127149743Y-66762430D01*
X127088103Y-66743732D01*
X127024000Y-66737418D01*
X126506287Y-66737418D01*
X126282000Y-66513132D01*
X126282000Y-66510633D01*
X126260787Y-66403988D01*
X126219176Y-66303530D01*
X126158766Y-66213120D01*
X126081880Y-66136234D01*
X125991470Y-66075824D01*
X125891012Y-66034213D01*
X125784367Y-66013000D01*
X125675633Y-66013000D01*
X125568988Y-66034213D01*
X125474145Y-66073498D01*
X125457176Y-66032530D01*
X125396766Y-65942120D01*
X125319880Y-65865234D01*
X125229470Y-65804824D01*
X125129012Y-65763213D01*
X125022367Y-65742000D01*
X124913633Y-65742000D01*
X124806988Y-65763213D01*
X124706530Y-65804824D01*
X124616120Y-65865234D01*
X124539234Y-65942120D01*
X124478824Y-66032530D01*
X124437213Y-66132988D01*
X124416000Y-66239633D01*
X124416000Y-66242131D01*
X123920714Y-66737418D01*
X123674000Y-66737418D01*
X123609897Y-66743732D01*
X123548257Y-66762430D01*
X123491450Y-66792794D01*
X123441657Y-66833657D01*
X123439000Y-66836895D01*
X123436343Y-66833657D01*
X123386550Y-66792794D01*
X123329743Y-66762430D01*
X123268103Y-66743732D01*
X123211431Y-66738150D01*
X123200405Y-66701804D01*
X123172024Y-66648706D01*
X123160756Y-66627624D01*
X123120768Y-66578900D01*
X123107395Y-66562605D01*
X123091100Y-66549232D01*
X123020767Y-66478899D01*
X123007394Y-66462604D01*
X122942375Y-66409244D01*
X122868195Y-66369594D01*
X122787706Y-66345177D01*
X122724977Y-66338999D01*
X122724966Y-66338999D01*
X122703999Y-66336934D01*
X122683032Y-66338999D01*
X119261647Y-66338999D01*
X119259881Y-66337233D01*
X119169471Y-66276823D01*
X119069013Y-66235212D01*
X118962368Y-66213999D01*
X118853634Y-66213999D01*
X118746989Y-66235212D01*
X118646531Y-66276823D01*
X118556121Y-66337233D01*
X118479235Y-66414119D01*
X118418825Y-66504529D01*
X118377214Y-66604987D01*
X118356001Y-66711632D01*
X118356001Y-66820366D01*
X118377214Y-66927011D01*
X118418825Y-67027469D01*
X118479235Y-67117879D01*
X118556121Y-67194765D01*
X118646531Y-67255175D01*
X118746989Y-67296786D01*
X118853634Y-67317999D01*
X118962368Y-67317999D01*
X119069013Y-67296786D01*
X119169471Y-67255175D01*
X119259881Y-67194765D01*
X119261647Y-67192999D01*
X119535418Y-67192999D01*
X119535418Y-68366000D01*
X119541732Y-68430103D01*
X119560430Y-68491743D01*
X119590794Y-68548550D01*
X119631657Y-68598343D01*
X119681450Y-68639206D01*
X119738257Y-68669570D01*
X119799897Y-68688268D01*
X119864000Y-68694582D01*
X120223000Y-68694582D01*
X120223000Y-68734354D01*
X120221234Y-68736120D01*
X120160824Y-68826530D01*
X120119213Y-68926988D01*
X120098000Y-69033633D01*
X120098000Y-69142367D01*
X120119213Y-69249012D01*
X120160824Y-69349470D01*
X120221234Y-69439880D01*
X120298120Y-69516766D01*
X120388530Y-69577176D01*
X120488988Y-69618787D01*
X120595633Y-69640000D01*
X120704367Y-69640000D01*
X120811012Y-69618787D01*
X120911470Y-69577176D01*
X121001880Y-69516766D01*
X121078766Y-69439880D01*
X121139176Y-69349470D01*
X121180787Y-69249012D01*
X121202000Y-69142367D01*
X121202000Y-69033633D01*
X121180787Y-68926988D01*
X121139176Y-68826530D01*
X121078766Y-68736120D01*
X121077000Y-68734354D01*
X121077000Y-68687389D01*
X121079897Y-68688268D01*
X121136569Y-68693850D01*
X121147595Y-68730195D01*
X121158927Y-68751395D01*
X121187245Y-68804376D01*
X121227232Y-68853100D01*
X121240605Y-68869395D01*
X121256900Y-68882768D01*
X122765236Y-70391105D01*
X122778605Y-70407395D01*
X122794895Y-70420764D01*
X122794898Y-70420767D01*
X122843623Y-70460755D01*
X122883273Y-70481948D01*
X122917804Y-70500405D01*
X122998293Y-70524822D01*
X123061022Y-70531000D01*
X123061042Y-70531000D01*
X123081999Y-70533064D01*
X123102956Y-70531000D01*
X123575130Y-70531000D01*
X121256895Y-72849237D01*
X121240606Y-72862605D01*
X121227237Y-72878895D01*
X121227232Y-72878900D01*
X121187245Y-72927624D01*
X121155079Y-72987804D01*
X121147596Y-73001804D01*
X121136570Y-73038150D01*
X121079897Y-73043732D01*
X121018257Y-73062430D01*
X120961450Y-73092794D01*
X120911657Y-73133657D01*
X120904000Y-73142987D01*
X120896343Y-73133657D01*
X120846550Y-73092794D01*
X120789743Y-73062430D01*
X120728103Y-73043732D01*
X120664000Y-73037418D01*
X119864000Y-73037418D01*
X119799897Y-73043732D01*
X119738257Y-73062430D01*
X119681450Y-73092794D01*
X119631657Y-73133657D01*
X119590794Y-73183450D01*
X119560430Y-73240257D01*
X119541732Y-73301897D01*
X119535418Y-73366000D01*
X119535418Y-74666000D01*
X119541732Y-74730103D01*
X119560430Y-74791743D01*
X119590794Y-74848550D01*
X119631657Y-74898343D01*
X119681450Y-74939206D01*
X119738257Y-74969570D01*
X119799897Y-74988268D01*
X119837001Y-74991923D01*
X119837000Y-76555033D01*
X119834935Y-76576000D01*
X119837000Y-76596967D01*
X119837000Y-76596977D01*
X119843178Y-76659706D01*
X119867595Y-76740195D01*
X119876789Y-76757395D01*
X119893682Y-76789000D01*
X106493001Y-76789000D01*
X106518224Y-76763777D01*
X106578634Y-76673367D01*
X106620245Y-76572909D01*
X106641458Y-76466264D01*
X106641458Y-76463765D01*
X107089105Y-76016119D01*
X107095852Y-76010582D01*
X107202000Y-76010582D01*
X107266103Y-76004268D01*
X107327743Y-75985570D01*
X107384550Y-75955206D01*
X107391137Y-75949800D01*
X107397025Y-75956975D01*
X107455954Y-76005336D01*
X107523185Y-76041272D01*
X107596135Y-76063401D01*
X107672000Y-76070873D01*
X107972250Y-76069000D01*
X108069000Y-75972250D01*
X108069000Y-75035000D01*
X108049000Y-75035000D01*
X108049000Y-75029000D01*
X108069000Y-75029000D01*
X108069000Y-75009000D01*
X108075000Y-75009000D01*
X108075000Y-75029000D01*
X108095000Y-75029000D01*
X108095000Y-75035000D01*
X108075000Y-75035000D01*
X108075000Y-75972250D01*
X108171750Y-76069000D01*
X108472000Y-76070873D01*
X108547865Y-76063401D01*
X108620815Y-76041272D01*
X108688046Y-76005336D01*
X108746975Y-75956975D01*
X108756887Y-75944896D01*
X108769450Y-75955206D01*
X108826257Y-75985570D01*
X108887897Y-76004268D01*
X108952000Y-76010582D01*
X109752000Y-76010582D01*
X109816103Y-76004268D01*
X109877743Y-75985570D01*
X109934550Y-75955206D01*
X109984343Y-75914343D01*
X109987000Y-75911105D01*
X109989657Y-75914343D01*
X110039450Y-75955206D01*
X110096257Y-75985570D01*
X110157897Y-76004268D01*
X110214570Y-76009850D01*
X110225596Y-76046196D01*
X110265245Y-76120376D01*
X110305232Y-76169100D01*
X110305237Y-76169105D01*
X110318606Y-76185395D01*
X110334895Y-76198763D01*
X110623218Y-76487087D01*
X110636587Y-76503377D01*
X110652877Y-76516746D01*
X110652880Y-76516749D01*
X110701605Y-76556737D01*
X110741255Y-76577930D01*
X110775786Y-76596387D01*
X110856275Y-76620804D01*
X110919004Y-76626982D01*
X110919016Y-76626982D01*
X110939981Y-76629047D01*
X110960946Y-76626982D01*
X118518354Y-76626982D01*
X118520120Y-76628748D01*
X118610530Y-76689158D01*
X118710988Y-76730769D01*
X118817633Y-76751982D01*
X118926367Y-76751982D01*
X119033012Y-76730769D01*
X119133470Y-76689158D01*
X119223880Y-76628748D01*
X119300766Y-76551862D01*
X119361176Y-76461452D01*
X119402787Y-76360994D01*
X119424000Y-76254349D01*
X119424000Y-76145615D01*
X119402787Y-76038970D01*
X119361176Y-75938512D01*
X119300766Y-75848102D01*
X119223880Y-75771216D01*
X119133470Y-75710806D01*
X119033012Y-75669195D01*
X118926367Y-75647982D01*
X118817633Y-75647982D01*
X118710988Y-75669195D01*
X118610530Y-75710806D01*
X118520120Y-75771216D01*
X118518354Y-75772982D01*
X113876114Y-75772982D01*
X113884268Y-75746103D01*
X113890582Y-75682000D01*
X113890582Y-74382000D01*
X113884268Y-74317897D01*
X113865570Y-74256257D01*
X113835206Y-74199450D01*
X113794343Y-74149657D01*
X113744550Y-74108794D01*
X113687743Y-74078430D01*
X113626103Y-74059732D01*
X113562000Y-74053418D01*
X113417228Y-74053418D01*
X113458766Y-74011880D01*
X113519176Y-73921470D01*
X113560787Y-73821012D01*
X113582000Y-73714367D01*
X113582000Y-73605633D01*
X113560787Y-73498988D01*
X113519176Y-73398530D01*
X113458766Y-73308120D01*
X113381880Y-73231234D01*
X113291470Y-73170824D01*
X113191012Y-73129213D01*
X113084367Y-73108000D01*
X112975633Y-73108000D01*
X112868988Y-73129213D01*
X112768530Y-73170824D01*
X112678120Y-73231234D01*
X112601234Y-73308120D01*
X112540824Y-73398530D01*
X112499213Y-73498988D01*
X112478000Y-73605633D01*
X112478000Y-73608130D01*
X112032713Y-74053418D01*
X111482000Y-74053418D01*
X111417897Y-74059732D01*
X111356257Y-74078430D01*
X111299450Y-74108794D01*
X111252000Y-74147734D01*
X111204550Y-74108794D01*
X111147743Y-74078430D01*
X111086103Y-74059732D01*
X111022000Y-74053418D01*
X110222000Y-74053418D01*
X110157897Y-74059732D01*
X110096257Y-74078430D01*
X110039450Y-74108794D01*
X109989657Y-74149657D01*
X109987000Y-74152895D01*
X109984343Y-74149657D01*
X109959006Y-74128864D01*
X112514237Y-71573633D01*
X114256000Y-71573633D01*
X114256000Y-71682367D01*
X114277213Y-71789012D01*
X114318824Y-71889470D01*
X114379234Y-71979880D01*
X114456120Y-72056766D01*
X114546530Y-72117176D01*
X114635001Y-72153822D01*
X114635000Y-72798354D01*
X114633234Y-72800120D01*
X114572824Y-72890530D01*
X114531213Y-72990988D01*
X114510000Y-73097633D01*
X114510000Y-73206367D01*
X114531213Y-73313012D01*
X114572824Y-73413470D01*
X114633234Y-73503880D01*
X114710120Y-73580766D01*
X114800530Y-73641176D01*
X114900988Y-73682787D01*
X115007633Y-73704000D01*
X115116367Y-73704000D01*
X115223012Y-73682787D01*
X115323470Y-73641176D01*
X115413880Y-73580766D01*
X115490766Y-73503880D01*
X115551176Y-73413470D01*
X115592787Y-73313012D01*
X115614000Y-73206367D01*
X115614000Y-73097633D01*
X115592787Y-72990988D01*
X115551176Y-72890530D01*
X115490766Y-72800120D01*
X115489000Y-72798354D01*
X115489000Y-72445643D01*
X116431990Y-72445643D01*
X116431990Y-72554377D01*
X116453203Y-72661022D01*
X116494814Y-72761480D01*
X116555224Y-72851890D01*
X116632110Y-72928776D01*
X116722520Y-72989186D01*
X116822978Y-73030797D01*
X116929623Y-73052010D01*
X117038357Y-73052010D01*
X117145002Y-73030797D01*
X117245460Y-72989186D01*
X117335870Y-72928776D01*
X117337636Y-72927010D01*
X118662344Y-72927010D01*
X118664110Y-72928776D01*
X118754520Y-72989186D01*
X118854978Y-73030797D01*
X118961623Y-73052010D01*
X119070357Y-73052010D01*
X119177002Y-73030797D01*
X119277460Y-72989186D01*
X119367870Y-72928776D01*
X119444756Y-72851890D01*
X119505166Y-72761480D01*
X119546777Y-72661022D01*
X119567990Y-72554377D01*
X119567990Y-72445643D01*
X119546777Y-72338998D01*
X119505166Y-72238540D01*
X119444756Y-72148130D01*
X119367870Y-72071244D01*
X119277460Y-72010834D01*
X119177002Y-71969223D01*
X119070357Y-71948010D01*
X118961623Y-71948010D01*
X118854978Y-71969223D01*
X118754520Y-72010834D01*
X118664110Y-72071244D01*
X118662344Y-72073010D01*
X117337636Y-72073010D01*
X117335870Y-72071244D01*
X117245460Y-72010834D01*
X117145002Y-71969223D01*
X117038357Y-71948010D01*
X116929623Y-71948010D01*
X116822978Y-71969223D01*
X116722520Y-72010834D01*
X116632110Y-72071244D01*
X116555224Y-72148130D01*
X116494814Y-72238540D01*
X116453203Y-72338998D01*
X116431990Y-72445643D01*
X115489000Y-72445643D01*
X115489000Y-71902964D01*
X115491065Y-71881999D01*
X115489000Y-71861034D01*
X115489000Y-71861022D01*
X115482822Y-71798293D01*
X115458405Y-71717804D01*
X115439464Y-71682367D01*
X115418755Y-71643623D01*
X115378768Y-71594899D01*
X115378764Y-71594895D01*
X115365395Y-71578605D01*
X115360000Y-71574177D01*
X115360000Y-71573633D01*
X115338787Y-71466988D01*
X115297176Y-71366530D01*
X115236766Y-71276120D01*
X115159880Y-71199234D01*
X115069470Y-71138824D01*
X114969012Y-71097213D01*
X114862367Y-71076000D01*
X114753633Y-71076000D01*
X114646988Y-71097213D01*
X114546530Y-71138824D01*
X114456120Y-71199234D01*
X114379234Y-71276120D01*
X114318824Y-71366530D01*
X114277213Y-71466988D01*
X114256000Y-71573633D01*
X112514237Y-71573633D01*
X116894872Y-67192999D01*
X117030355Y-67192999D01*
X117032121Y-67194765D01*
X117122531Y-67255175D01*
X117222989Y-67296786D01*
X117329634Y-67317999D01*
X117438368Y-67317999D01*
X117545013Y-67296786D01*
X117645471Y-67255175D01*
X117735881Y-67194765D01*
X117812767Y-67117879D01*
X117873177Y-67027469D01*
X117914788Y-66927011D01*
X117936001Y-66820366D01*
X117936001Y-66711632D01*
X117914788Y-66604987D01*
X117873177Y-66504529D01*
X117812767Y-66414119D01*
X117735881Y-66337233D01*
X117645471Y-66276823D01*
X117545013Y-66235212D01*
X117438368Y-66213999D01*
X117329634Y-66213999D01*
X117222989Y-66235212D01*
X117122531Y-66276823D01*
X117032121Y-66337233D01*
X117030355Y-66338999D01*
X116738967Y-66338999D01*
X116718002Y-66336934D01*
X116697037Y-66338999D01*
X116697025Y-66338999D01*
X116634296Y-66345177D01*
X116553807Y-66369594D01*
X116519276Y-66388051D01*
X116479626Y-66409244D01*
X116430901Y-66449232D01*
X116430898Y-66449235D01*
X116414608Y-66462604D01*
X116401239Y-66478894D01*
X113949337Y-68930796D01*
X113949000Y-68831750D01*
X113852250Y-68735000D01*
X113165000Y-68735000D01*
X113165000Y-68755000D01*
X113159000Y-68755000D01*
X113159000Y-68735000D01*
X113139000Y-68735000D01*
X113139000Y-68729000D01*
X113159000Y-68729000D01*
X113159000Y-67791750D01*
X113165000Y-67791750D01*
X113165000Y-68729000D01*
X113852250Y-68729000D01*
X113949000Y-68632250D01*
X113950873Y-68082000D01*
X113943401Y-68006135D01*
X113921272Y-67933185D01*
X113885336Y-67865954D01*
X113836975Y-67807025D01*
X113778046Y-67758664D01*
X113710815Y-67722728D01*
X113637865Y-67700599D01*
X113562000Y-67693127D01*
X113261750Y-67695000D01*
X113165000Y-67791750D01*
X113159000Y-67791750D01*
X113062250Y-67695000D01*
X112762000Y-67693127D01*
X112686135Y-67700599D01*
X112613185Y-67722728D01*
X112545954Y-67758664D01*
X112487025Y-67807025D01*
X112477113Y-67819104D01*
X112464550Y-67808794D01*
X112407743Y-67778430D01*
X112346103Y-67759732D01*
X112282000Y-67753418D01*
X111482000Y-67753418D01*
X111417897Y-67759732D01*
X111356257Y-67778430D01*
X111299450Y-67808794D01*
X111252000Y-67847734D01*
X111204550Y-67808794D01*
X111147743Y-67778430D01*
X111086103Y-67759732D01*
X111029431Y-67754150D01*
X111018405Y-67717804D01*
X111005215Y-67693127D01*
X110978756Y-67643623D01*
X110938768Y-67594899D01*
X110938764Y-67594895D01*
X110925395Y-67578605D01*
X110909106Y-67565237D01*
X109841767Y-66497899D01*
X109828394Y-66481604D01*
X109763375Y-66428244D01*
X109689195Y-66388594D01*
X109608706Y-66364177D01*
X109545977Y-66357999D01*
X109545966Y-66357999D01*
X109524999Y-66355934D01*
X109504032Y-66357999D01*
X104143956Y-66357999D01*
X104122999Y-66355935D01*
X104102042Y-66357999D01*
X104102022Y-66357999D01*
X104039293Y-66364177D01*
X103958804Y-66388594D01*
X103935961Y-66400804D01*
X103884623Y-66428244D01*
X103835898Y-66468232D01*
X103835895Y-66468235D01*
X103819605Y-66481604D01*
X103806236Y-66497894D01*
X103365393Y-66938737D01*
X103365393Y-66865520D01*
X103312922Y-66601729D01*
X103209996Y-66353244D01*
X103060570Y-66129612D01*
X102870388Y-65939430D01*
X102646756Y-65790004D01*
X102398271Y-65687078D01*
X102134480Y-65634607D01*
X101865520Y-65634607D01*
X101601729Y-65687078D01*
X101353244Y-65790004D01*
X101129612Y-65939430D01*
X100939430Y-66129612D01*
X100790004Y-66353244D01*
X100687078Y-66601729D01*
X100634607Y-66865520D01*
X100352000Y-66865520D01*
X100352000Y-66017216D01*
X100365997Y-65874467D01*
X100402456Y-65753709D01*
X100461675Y-65642333D01*
X100541394Y-65544588D01*
X100638586Y-65464184D01*
X100749545Y-65404189D01*
X100870039Y-65366890D01*
X101011699Y-65352000D01*
X148982784Y-65352000D01*
X149125533Y-65365997D01*
%TA.AperFunction,Conductor*%
D15*
G36*
X149125533Y-65365997D02*
G01*
X149246291Y-65402456D01*
X149357667Y-65461675D01*
X149455412Y-65541394D01*
X149535816Y-65638586D01*
X149595811Y-65749545D01*
X149633110Y-65870039D01*
X149648000Y-66011699D01*
X149648001Y-103982775D01*
X149634003Y-104125537D01*
X149597545Y-104246290D01*
X149538324Y-104357668D01*
X149458606Y-104455412D01*
X149361411Y-104535819D01*
X149250456Y-104595811D01*
X149129961Y-104633110D01*
X148988301Y-104648000D01*
X101017215Y-104648000D01*
X100874463Y-104634003D01*
X100753710Y-104597545D01*
X100642332Y-104538324D01*
X100544588Y-104458606D01*
X100464181Y-104361411D01*
X100404189Y-104250456D01*
X100366890Y-104129961D01*
X100352000Y-103988301D01*
X100352000Y-102865520D01*
X100634607Y-102865520D01*
X100634607Y-103134480D01*
X100687078Y-103398271D01*
X100790004Y-103646756D01*
X100939430Y-103870388D01*
X101129612Y-104060570D01*
X101353244Y-104209996D01*
X101601729Y-104312922D01*
X101865520Y-104365393D01*
X102134480Y-104365393D01*
X102398271Y-104312922D01*
X102646756Y-104209996D01*
X102870388Y-104060570D01*
X103060570Y-103870388D01*
X103209996Y-103646756D01*
X103312922Y-103398271D01*
X103365393Y-103134480D01*
X103365393Y-102865520D01*
X103312922Y-102601729D01*
X103209996Y-102353244D01*
X103060570Y-102129612D01*
X102870388Y-101939430D01*
X102646756Y-101790004D01*
X102398271Y-101687078D01*
X102134480Y-101634607D01*
X101865520Y-101634607D01*
X101601729Y-101687078D01*
X101353244Y-101790004D01*
X101129612Y-101939430D01*
X100939430Y-102129612D01*
X100790004Y-102353244D01*
X100687078Y-102601729D01*
X100634607Y-102865520D01*
X100352000Y-102865520D01*
X100352000Y-98356000D01*
X101502127Y-98356000D01*
X101509599Y-98431865D01*
X101531728Y-98504815D01*
X101567664Y-98572046D01*
X101616025Y-98630975D01*
X101674954Y-98679336D01*
X101742185Y-98715272D01*
X101815135Y-98737401D01*
X101891000Y-98744873D01*
X102516250Y-98743000D01*
X102613000Y-98646250D01*
X102613000Y-97771500D01*
X102619000Y-97771500D01*
X102619000Y-98646250D01*
X102715750Y-98743000D01*
X103341000Y-98744873D01*
X103416865Y-98737401D01*
X103489815Y-98715272D01*
X103557046Y-98679336D01*
X103615975Y-98630975D01*
X103664336Y-98572046D01*
X103700272Y-98504815D01*
X103722401Y-98431865D01*
X103729873Y-98356000D01*
X103728000Y-97868250D01*
X103631250Y-97771500D01*
X102619000Y-97771500D01*
X102613000Y-97771500D01*
X101600750Y-97771500D01*
X101504000Y-97868250D01*
X101502127Y-98356000D01*
X100352000Y-98356000D01*
X100352000Y-97181000D01*
X101502127Y-97181000D01*
X101504000Y-97668750D01*
X101600750Y-97765500D01*
X102613000Y-97765500D01*
X102613000Y-96890750D01*
X102619000Y-96890750D01*
X102619000Y-97765500D01*
X103631250Y-97765500D01*
X103728000Y-97668750D01*
X103729873Y-97181000D01*
X103722401Y-97105135D01*
X103700272Y-97032185D01*
X103664336Y-96964954D01*
X103615975Y-96906025D01*
X103557046Y-96857664D01*
X103489815Y-96821728D01*
X103416865Y-96799599D01*
X103341000Y-96792127D01*
X102715750Y-96794000D01*
X102619000Y-96890750D01*
X102613000Y-96890750D01*
X102516250Y-96794000D01*
X101891000Y-96792127D01*
X101815135Y-96799599D01*
X101742185Y-96821728D01*
X101674954Y-96857664D01*
X101616025Y-96906025D01*
X101567664Y-96964954D01*
X101531728Y-97032185D01*
X101509599Y-97105135D01*
X101502127Y-97181000D01*
X100352000Y-97181000D01*
X100352000Y-95677000D01*
X103603127Y-95677000D01*
X103610599Y-95752865D01*
X103632728Y-95825815D01*
X103668664Y-95893046D01*
X103717025Y-95951975D01*
X103775954Y-96000336D01*
X103843185Y-96036272D01*
X103916135Y-96058401D01*
X103992000Y-96065873D01*
X104867250Y-96064000D01*
X104964000Y-95967250D01*
X104964000Y-95380000D01*
X104970000Y-95380000D01*
X104970000Y-95967250D01*
X105066750Y-96064000D01*
X105942000Y-96065873D01*
X106017865Y-96058401D01*
X106090815Y-96036272D01*
X106158046Y-96000336D01*
X106216975Y-95951975D01*
X106265336Y-95893046D01*
X106301272Y-95825815D01*
X106323401Y-95752865D01*
X106330873Y-95677000D01*
X106329000Y-95476750D01*
X106232250Y-95380000D01*
X104970000Y-95380000D01*
X104964000Y-95380000D01*
X103701750Y-95380000D01*
X103605000Y-95476750D01*
X103603127Y-95677000D01*
X100352000Y-95677000D01*
X100352000Y-87942000D01*
X100994127Y-87942000D01*
X101001599Y-88017865D01*
X101023728Y-88090815D01*
X101059664Y-88158046D01*
X101108025Y-88216975D01*
X101166954Y-88265336D01*
X101234185Y-88301272D01*
X101307135Y-88323401D01*
X101383000Y-88330873D01*
X102008250Y-88329000D01*
X102105000Y-88232250D01*
X102105000Y-87357500D01*
X101092750Y-87357500D01*
X100996000Y-87454250D01*
X100994127Y-87942000D01*
X100352000Y-87942000D01*
X100352000Y-86767000D01*
X100994127Y-86767000D01*
X100996000Y-87254750D01*
X101092750Y-87351500D01*
X102105000Y-87351500D01*
X102105000Y-86476750D01*
X102008250Y-86380000D01*
X101383000Y-86378127D01*
X101307135Y-86385599D01*
X101234185Y-86407728D01*
X101166954Y-86443664D01*
X101108025Y-86492025D01*
X101059664Y-86550954D01*
X101023728Y-86618185D01*
X101001599Y-86691135D01*
X100994127Y-86767000D01*
X100352000Y-86767000D01*
X100352000Y-66865520D01*
X100634607Y-66865520D01*
X100634607Y-67134480D01*
X100687078Y-67398271D01*
X100790004Y-67646756D01*
X100939430Y-67870388D01*
X101129612Y-68060570D01*
X101353244Y-68209996D01*
X101601729Y-68312922D01*
X101865520Y-68365393D01*
X101938738Y-68365393D01*
X101514131Y-68790000D01*
X101511632Y-68790000D01*
X101404987Y-68811213D01*
X101304529Y-68852824D01*
X101214119Y-68913234D01*
X101137233Y-68990120D01*
X101076823Y-69080530D01*
X101035212Y-69180988D01*
X101013999Y-69287633D01*
X101013999Y-69396367D01*
X101035212Y-69503012D01*
X101076823Y-69603470D01*
X101137233Y-69693880D01*
X101214119Y-69770766D01*
X101304529Y-69831176D01*
X101404987Y-69872787D01*
X101511632Y-69894000D01*
X101620366Y-69894000D01*
X101727011Y-69872787D01*
X101827469Y-69831176D01*
X101917879Y-69770766D01*
X101994765Y-69693880D01*
X102055175Y-69603470D01*
X102091000Y-69516982D01*
X102126824Y-69603470D01*
X102187234Y-69693880D01*
X102264120Y-69770766D01*
X102354530Y-69831176D01*
X102454988Y-69872787D01*
X102561633Y-69894000D01*
X102670367Y-69894000D01*
X102777012Y-69872787D01*
X102877470Y-69831176D01*
X102967880Y-69770766D01*
X102969646Y-69769000D01*
X103631033Y-69769000D01*
X103652000Y-69771065D01*
X103672967Y-69769000D01*
X103672978Y-69769000D01*
X103735707Y-69762822D01*
X103816196Y-69738405D01*
X103868249Y-69710582D01*
X104662000Y-69710582D01*
X104726103Y-69704268D01*
X104787743Y-69685570D01*
X104844550Y-69655206D01*
X104894343Y-69614343D01*
X104902000Y-69605013D01*
X104909657Y-69614343D01*
X104959450Y-69655206D01*
X104983000Y-69667794D01*
X104983000Y-70004354D01*
X104981234Y-70006120D01*
X104920824Y-70096530D01*
X104879213Y-70196988D01*
X104858000Y-70303633D01*
X104858000Y-70412367D01*
X104879213Y-70519012D01*
X104920824Y-70619470D01*
X104981234Y-70709880D01*
X105058120Y-70786766D01*
X105148530Y-70847176D01*
X105248988Y-70888787D01*
X105355633Y-70910000D01*
X105464367Y-70910000D01*
X105571012Y-70888787D01*
X105671470Y-70847176D01*
X105761880Y-70786766D01*
X105838766Y-70709880D01*
X105899176Y-70619470D01*
X105940787Y-70519012D01*
X105962000Y-70412367D01*
X105962000Y-70303633D01*
X105940787Y-70196988D01*
X105899176Y-70096530D01*
X105838766Y-70006120D01*
X105837000Y-70004354D01*
X105837000Y-69710582D01*
X105942000Y-69710582D01*
X106006103Y-69704268D01*
X106067743Y-69685570D01*
X106124550Y-69655206D01*
X106172000Y-69616266D01*
X106219450Y-69655206D01*
X106276257Y-69685570D01*
X106337897Y-69704268D01*
X106402000Y-69710582D01*
X107202000Y-69710582D01*
X107266103Y-69704268D01*
X107327743Y-69685570D01*
X107384550Y-69655206D01*
X107434343Y-69614343D01*
X107437000Y-69611105D01*
X107439657Y-69614343D01*
X107489450Y-69655206D01*
X107546257Y-69685570D01*
X107607897Y-69704268D01*
X107672000Y-69710582D01*
X107777000Y-69710582D01*
X107777000Y-69750354D01*
X107775234Y-69752120D01*
X107714824Y-69842530D01*
X107673213Y-69942988D01*
X107652000Y-70049633D01*
X107652000Y-70158367D01*
X107673213Y-70265012D01*
X107714824Y-70365470D01*
X107775234Y-70455880D01*
X107852120Y-70532766D01*
X107942530Y-70593176D01*
X108042988Y-70634787D01*
X108149633Y-70656000D01*
X108258367Y-70656000D01*
X108365012Y-70634787D01*
X108465470Y-70593176D01*
X108555880Y-70532766D01*
X108632766Y-70455880D01*
X108693176Y-70365470D01*
X108734787Y-70265012D01*
X108756000Y-70158367D01*
X108756000Y-70049633D01*
X108734787Y-69942988D01*
X108693176Y-69842530D01*
X108632766Y-69752120D01*
X108631000Y-69750354D01*
X108631000Y-69667794D01*
X108654550Y-69655206D01*
X108704343Y-69614343D01*
X108712000Y-69605013D01*
X108719657Y-69614343D01*
X108769450Y-69655206D01*
X108826257Y-69685570D01*
X108887897Y-69704268D01*
X108952000Y-69710582D01*
X109752000Y-69710582D01*
X109816103Y-69704268D01*
X109877743Y-69685570D01*
X109934550Y-69655206D01*
X109984343Y-69614343D01*
X109987000Y-69611105D01*
X109989657Y-69614343D01*
X110039450Y-69655206D01*
X110096257Y-69685570D01*
X110157897Y-69704268D01*
X110222000Y-69710582D01*
X111022000Y-69710582D01*
X111086103Y-69704268D01*
X111147743Y-69685570D01*
X111204550Y-69655206D01*
X111252000Y-69616266D01*
X111299450Y-69655206D01*
X111356257Y-69685570D01*
X111417897Y-69704268D01*
X111482000Y-69710582D01*
X111587001Y-69710582D01*
X111587000Y-70258354D01*
X111585234Y-70260120D01*
X111524824Y-70350530D01*
X111483213Y-70450988D01*
X111462000Y-70557633D01*
X111462000Y-70666367D01*
X111483213Y-70773012D01*
X111524824Y-70873470D01*
X111585234Y-70963880D01*
X111662120Y-71040766D01*
X111752530Y-71101176D01*
X111771217Y-71108916D01*
X109225135Y-73654999D01*
X105662968Y-73654999D01*
X105642001Y-73652934D01*
X105621034Y-73654999D01*
X105621023Y-73654999D01*
X105558294Y-73661177D01*
X105477805Y-73685594D01*
X105443370Y-73704000D01*
X105403625Y-73725243D01*
X105356435Y-73763972D01*
X105338606Y-73778604D01*
X105325233Y-73794899D01*
X105254900Y-73865232D01*
X105238605Y-73878605D01*
X105225233Y-73894899D01*
X105225232Y-73894900D01*
X105185245Y-73943624D01*
X105172020Y-73968367D01*
X105145595Y-74017805D01*
X105134569Y-74054150D01*
X105077897Y-74059732D01*
X105016257Y-74078430D01*
X104959450Y-74108794D01*
X104909657Y-74149657D01*
X104902000Y-74158987D01*
X104894343Y-74149657D01*
X104844550Y-74108794D01*
X104787743Y-74078430D01*
X104726103Y-74059732D01*
X104662000Y-74053418D01*
X103862000Y-74053418D01*
X103797897Y-74059732D01*
X103736257Y-74078430D01*
X103679450Y-74108794D01*
X103629657Y-74149657D01*
X103588794Y-74199450D01*
X103558430Y-74256257D01*
X103539732Y-74317897D01*
X103533418Y-74382000D01*
X103533418Y-75156713D01*
X101058896Y-77631236D01*
X101042606Y-77644605D01*
X101029237Y-77660895D01*
X101029232Y-77660900D01*
X100989245Y-77709624D01*
X100949902Y-77783232D01*
X100949596Y-77783804D01*
X100925179Y-77864293D01*
X100919001Y-77927022D01*
X100916935Y-77948000D01*
X100919001Y-77968977D01*
X100919000Y-80497033D01*
X100916935Y-80518000D01*
X100919000Y-80538967D01*
X100919000Y-80538977D01*
X100925178Y-80601706D01*
X100949595Y-80682195D01*
X100949596Y-80682196D01*
X100989245Y-80756376D01*
X101029232Y-80805100D01*
X101042605Y-80821395D01*
X101058900Y-80834768D01*
X102967001Y-82742871D01*
X102967001Y-82799001D01*
X102931123Y-82802535D01*
X102822586Y-82835460D01*
X102722557Y-82888926D01*
X102634880Y-82960880D01*
X102562926Y-83048557D01*
X102509460Y-83148586D01*
X102476535Y-83257123D01*
X102465418Y-83369999D01*
X102465418Y-84270001D01*
X102476535Y-84382877D01*
X102509460Y-84491414D01*
X102562926Y-84591443D01*
X102634880Y-84679120D01*
X102722557Y-84751074D01*
X102822586Y-84804540D01*
X102931123Y-84837465D01*
X102967000Y-84840998D01*
X102967000Y-86403234D01*
X102908865Y-86385599D01*
X102833000Y-86378127D01*
X102207750Y-86380000D01*
X102111000Y-86476750D01*
X102111000Y-87351500D01*
X102131000Y-87351500D01*
X102131000Y-87357500D01*
X102111000Y-87357500D01*
X102111000Y-88232250D01*
X102207750Y-88329000D01*
X102833000Y-88330873D01*
X102908865Y-88323401D01*
X102967001Y-88305766D01*
X102967001Y-88662267D01*
X102904443Y-88610927D01*
X102804414Y-88557460D01*
X102695876Y-88524535D01*
X102583000Y-88513418D01*
X101633000Y-88513418D01*
X101520124Y-88524535D01*
X101411586Y-88557460D01*
X101311557Y-88610927D01*
X101223881Y-88682881D01*
X101151927Y-88770557D01*
X101098460Y-88870586D01*
X101065535Y-88979124D01*
X101054418Y-89092000D01*
X101054418Y-89767000D01*
X101065535Y-89879876D01*
X101098460Y-89988414D01*
X101151927Y-90088443D01*
X101223881Y-90176119D01*
X101311557Y-90248073D01*
X101411586Y-90301540D01*
X101520124Y-90334465D01*
X101633000Y-90345582D01*
X101681000Y-90345582D01*
X101681001Y-92202023D01*
X101678935Y-92223000D01*
X101681001Y-92243977D01*
X101681001Y-92243978D01*
X101687179Y-92306707D01*
X101696483Y-92337376D01*
X101711596Y-92387196D01*
X101751245Y-92461376D01*
X101791232Y-92510100D01*
X101791237Y-92510105D01*
X101804606Y-92526395D01*
X101820895Y-92539763D01*
X103675241Y-94394111D01*
X103688605Y-94410395D01*
X103691559Y-94412819D01*
X103699848Y-94440145D01*
X103744074Y-94522886D01*
X103803591Y-94595409D01*
X103876114Y-94654926D01*
X103946595Y-94692599D01*
X103916135Y-94695599D01*
X103843185Y-94717728D01*
X103775954Y-94753664D01*
X103717025Y-94802025D01*
X103668664Y-94860954D01*
X103632728Y-94928185D01*
X103610599Y-95001135D01*
X103603127Y-95077000D01*
X103605000Y-95277250D01*
X103701750Y-95374000D01*
X104964000Y-95374000D01*
X104964000Y-95354000D01*
X104970000Y-95354000D01*
X104970000Y-95374000D01*
X106232250Y-95374000D01*
X106329000Y-95277250D01*
X106330873Y-95077000D01*
X106323401Y-95001135D01*
X106301272Y-94928185D01*
X106265336Y-94860954D01*
X106216975Y-94802025D01*
X106158046Y-94753664D01*
X106090815Y-94717728D01*
X106017865Y-94695599D01*
X105987405Y-94692599D01*
X106057886Y-94654926D01*
X106130409Y-94595409D01*
X106189926Y-94522886D01*
X106234152Y-94440145D01*
X106261386Y-94350367D01*
X106270582Y-94257000D01*
X106270582Y-93957000D01*
X106268316Y-93933990D01*
X108511141Y-93933990D01*
X106900896Y-95544236D01*
X106884606Y-95557605D01*
X106871237Y-95573895D01*
X106871232Y-95573900D01*
X106831245Y-95622624D01*
X106802181Y-95677000D01*
X106791596Y-95696804D01*
X106774590Y-95752865D01*
X106767179Y-95777294D01*
X106758935Y-95861000D01*
X106761001Y-95881977D01*
X106761000Y-99163418D01*
X106737999Y-99163418D01*
X106625123Y-99174535D01*
X106516586Y-99207460D01*
X106416557Y-99260926D01*
X106328880Y-99332880D01*
X106256926Y-99420557D01*
X106203460Y-99520586D01*
X106170535Y-99629123D01*
X106159418Y-99741999D01*
X106159418Y-100442001D01*
X106170535Y-100554877D01*
X106203460Y-100663414D01*
X106256926Y-100763443D01*
X106328880Y-100851120D01*
X106416557Y-100923074D01*
X106516586Y-100976540D01*
X106625123Y-101009465D01*
X106737999Y-101020582D01*
X107282550Y-101020582D01*
X107139714Y-101163418D01*
X106737999Y-101163418D01*
X106625123Y-101174535D01*
X106516586Y-101207460D01*
X106416557Y-101260926D01*
X106328880Y-101332880D01*
X106256926Y-101420557D01*
X106203460Y-101520586D01*
X106170535Y-101629123D01*
X106167002Y-101665000D01*
X105041370Y-101665000D01*
X103659521Y-100283152D01*
X103669582Y-100181000D01*
X103669582Y-99506000D01*
X103658465Y-99393124D01*
X103625540Y-99284586D01*
X103572073Y-99184557D01*
X103500119Y-99096881D01*
X103412443Y-99024927D01*
X103312414Y-98971460D01*
X103203876Y-98938535D01*
X103091000Y-98927418D01*
X102141000Y-98927418D01*
X102028124Y-98938535D01*
X101919586Y-98971460D01*
X101819557Y-99024927D01*
X101731881Y-99096881D01*
X101659927Y-99184557D01*
X101606460Y-99284586D01*
X101573535Y-99393124D01*
X101562418Y-99506000D01*
X101562418Y-100181000D01*
X101573535Y-100293876D01*
X101606460Y-100402414D01*
X101659927Y-100502443D01*
X101731881Y-100590119D01*
X101819557Y-100662073D01*
X101919586Y-100715540D01*
X102028124Y-100748465D01*
X102141000Y-100759582D01*
X102928213Y-100759582D01*
X104547741Y-102379111D01*
X104561105Y-102395395D01*
X104577389Y-102408759D01*
X104577398Y-102408768D01*
X104626123Y-102448755D01*
X104665773Y-102469948D01*
X104700304Y-102488405D01*
X104780793Y-102512822D01*
X104843522Y-102519000D01*
X104843532Y-102519000D01*
X104864499Y-102521065D01*
X104885466Y-102519000D01*
X106167002Y-102519000D01*
X106170535Y-102554877D01*
X106203460Y-102663414D01*
X106256926Y-102763443D01*
X106328880Y-102851120D01*
X106416557Y-102923074D01*
X106516586Y-102976540D01*
X106625123Y-103009465D01*
X106737999Y-103020582D01*
X107512713Y-103020582D01*
X108665241Y-104173111D01*
X108678605Y-104189395D01*
X108694889Y-104202759D01*
X108694898Y-104202768D01*
X108743623Y-104242755D01*
X108783273Y-104263948D01*
X108817804Y-104282405D01*
X108898293Y-104306822D01*
X108961022Y-104313000D01*
X108961032Y-104313000D01*
X108981999Y-104315065D01*
X109002966Y-104313000D01*
X118089033Y-104313000D01*
X118110000Y-104315065D01*
X118130967Y-104313000D01*
X118130978Y-104313000D01*
X118193707Y-104306822D01*
X118274196Y-104282405D01*
X118348376Y-104242755D01*
X118413395Y-104189395D01*
X118426768Y-104173100D01*
X121172870Y-101427000D01*
X128845955Y-101427000D01*
X128857234Y-101443880D01*
X128934120Y-101520766D01*
X129024530Y-101581176D01*
X129124988Y-101622787D01*
X129231633Y-101644000D01*
X129340367Y-101644000D01*
X129447012Y-101622787D01*
X129547470Y-101581176D01*
X129637880Y-101520766D01*
X129714766Y-101443880D01*
X129775176Y-101353470D01*
X129816787Y-101253012D01*
X129838000Y-101146367D01*
X129838000Y-101037633D01*
X129816787Y-100930988D01*
X129775176Y-100830530D01*
X129714766Y-100740120D01*
X129637880Y-100663234D01*
X129547470Y-100602824D01*
X129447012Y-100561213D01*
X129340367Y-100540000D01*
X129231633Y-100540000D01*
X129124988Y-100561213D01*
X129096532Y-100573000D01*
X121016964Y-100573000D01*
X120995999Y-100570935D01*
X120975034Y-100573000D01*
X120975022Y-100573000D01*
X120912293Y-100579178D01*
X120831804Y-100603595D01*
X120808929Y-100615822D01*
X120757623Y-100643245D01*
X120708898Y-100683232D01*
X120708889Y-100683241D01*
X120692605Y-100696605D01*
X120679241Y-100712889D01*
X117933132Y-103459000D01*
X109158870Y-103459000D01*
X108209883Y-102510015D01*
X108216582Y-102442001D01*
X108216582Y-101741999D01*
X108205465Y-101629123D01*
X108172540Y-101520586D01*
X108119074Y-101420557D01*
X108106109Y-101404759D01*
X108999106Y-100511763D01*
X109015395Y-100498395D01*
X109028764Y-100482105D01*
X109028767Y-100482102D01*
X109068755Y-100433377D01*
X109108404Y-100359197D01*
X109108405Y-100359196D01*
X109132822Y-100278707D01*
X109139000Y-100215978D01*
X109139000Y-100215958D01*
X109141064Y-100195001D01*
X109139000Y-100174044D01*
X109139000Y-96758868D01*
X109892287Y-96005582D01*
X110742000Y-96005582D01*
X110835367Y-95996386D01*
X110925145Y-95969152D01*
X111007886Y-95924926D01*
X111080409Y-95865409D01*
X111139926Y-95792886D01*
X111184152Y-95710145D01*
X111211386Y-95620367D01*
X111220582Y-95527000D01*
X111220582Y-95227000D01*
X111211386Y-95133633D01*
X111184152Y-95043855D01*
X111139926Y-94961114D01*
X111080409Y-94888591D01*
X111007886Y-94829074D01*
X110925145Y-94784848D01*
X110835367Y-94757614D01*
X110742000Y-94748418D01*
X109092000Y-94748418D01*
X108998633Y-94757614D01*
X108908855Y-94784848D01*
X108826114Y-94829074D01*
X108813182Y-94839687D01*
X108943275Y-94709593D01*
X108998633Y-94726386D01*
X109092000Y-94735582D01*
X110742000Y-94735582D01*
X110835367Y-94726386D01*
X110925145Y-94699152D01*
X111007886Y-94654926D01*
X111080409Y-94595409D01*
X111130805Y-94534000D01*
X111218132Y-94534000D01*
X112625418Y-95941287D01*
X112625418Y-96716001D01*
X112636535Y-96828877D01*
X112669460Y-96937414D01*
X112722926Y-97037443D01*
X112794880Y-97125120D01*
X112882557Y-97197074D01*
X112982586Y-97250540D01*
X113091123Y-97283465D01*
X113203999Y-97294582D01*
X113904001Y-97294582D01*
X114016877Y-97283465D01*
X114125414Y-97250540D01*
X114225443Y-97197074D01*
X114313120Y-97125120D01*
X114385074Y-97037443D01*
X114438540Y-96937414D01*
X114471465Y-96828877D01*
X114482582Y-96716001D01*
X114482582Y-95815999D01*
X114480665Y-95796535D01*
X114625418Y-95941288D01*
X114625418Y-96716001D01*
X114636535Y-96828877D01*
X114669460Y-96937414D01*
X114722926Y-97037443D01*
X114794880Y-97125120D01*
X114882557Y-97197074D01*
X114982586Y-97250540D01*
X115091123Y-97283465D01*
X115203999Y-97294582D01*
X115904001Y-97294582D01*
X116016877Y-97283465D01*
X116125414Y-97250540D01*
X116225443Y-97197074D01*
X116313120Y-97125120D01*
X116385074Y-97037443D01*
X116438540Y-96937414D01*
X116471465Y-96828877D01*
X116482582Y-96716001D01*
X116482582Y-95815999D01*
X116471465Y-95703123D01*
X116438540Y-95594586D01*
X116385074Y-95494557D01*
X116313120Y-95406880D01*
X116225443Y-95334926D01*
X116125414Y-95281460D01*
X116016877Y-95248535D01*
X115904001Y-95237418D01*
X115203999Y-95237418D01*
X115135986Y-95244116D01*
X112441768Y-92549900D01*
X112428395Y-92533605D01*
X112363376Y-92480245D01*
X112289196Y-92440595D01*
X112208707Y-92416178D01*
X112145978Y-92410000D01*
X112145967Y-92410000D01*
X112125000Y-92407935D01*
X112104033Y-92410000D01*
X111130805Y-92410000D01*
X111080409Y-92348591D01*
X111007886Y-92289074D01*
X110925145Y-92244848D01*
X110835367Y-92217614D01*
X110742000Y-92208418D01*
X109092000Y-92208418D01*
X108998633Y-92217614D01*
X108908855Y-92244848D01*
X108826114Y-92289074D01*
X108753591Y-92348591D01*
X108694074Y-92421114D01*
X108649848Y-92503855D01*
X108622614Y-92593633D01*
X108613418Y-92687000D01*
X108613418Y-92987000D01*
X108622577Y-93079990D01*
X106302878Y-93079990D01*
X106967106Y-92415763D01*
X106983395Y-92402395D01*
X106996764Y-92386105D01*
X106996768Y-92386101D01*
X107036756Y-92337377D01*
X107076405Y-92263197D01*
X107082235Y-92243978D01*
X107100822Y-92182707D01*
X107107000Y-92119978D01*
X107107000Y-92119967D01*
X107109065Y-92099000D01*
X107107000Y-92078033D01*
X107107000Y-91294798D01*
X107109065Y-91273833D01*
X107107000Y-91252868D01*
X107107000Y-91252856D01*
X107100822Y-91190127D01*
X107076405Y-91109638D01*
X107057948Y-91075107D01*
X107036755Y-91035457D01*
X106996768Y-90986732D01*
X106996759Y-90986723D01*
X106983395Y-90970439D01*
X106967111Y-90957075D01*
X106355617Y-90345582D01*
X106901000Y-90345582D01*
X107013876Y-90334465D01*
X107122414Y-90301540D01*
X107222443Y-90248073D01*
X107310119Y-90176119D01*
X107382073Y-90088443D01*
X107435540Y-89988414D01*
X107468465Y-89879876D01*
X107470767Y-89856500D01*
X107602632Y-89856500D01*
X108792660Y-91046529D01*
X108753591Y-91078591D01*
X108694074Y-91151114D01*
X108649848Y-91233855D01*
X108622614Y-91323633D01*
X108613418Y-91417000D01*
X108613418Y-91717000D01*
X108622614Y-91810367D01*
X108649848Y-91900145D01*
X108694074Y-91982886D01*
X108753591Y-92055409D01*
X108826114Y-92114926D01*
X108908855Y-92159152D01*
X108998633Y-92186386D01*
X109092000Y-92195582D01*
X110742000Y-92195582D01*
X110835367Y-92186386D01*
X110925145Y-92159152D01*
X111007886Y-92114926D01*
X111080409Y-92055409D01*
X111139926Y-91982886D01*
X111184152Y-91900145D01*
X111211386Y-91810367D01*
X111220582Y-91717000D01*
X111220582Y-91417000D01*
X111211386Y-91323633D01*
X111184152Y-91233855D01*
X111139926Y-91151114D01*
X111080409Y-91078591D01*
X111007886Y-91019074D01*
X110925145Y-90974848D01*
X110835367Y-90947614D01*
X110742000Y-90938418D01*
X109892287Y-90938418D01*
X108096268Y-89142400D01*
X108082895Y-89126105D01*
X108017876Y-89072745D01*
X107943696Y-89033095D01*
X107863207Y-89008678D01*
X107800478Y-89002500D01*
X107800467Y-89002500D01*
X107779500Y-89000435D01*
X107758533Y-89002500D01*
X107470767Y-89002500D01*
X107468465Y-88979124D01*
X107435540Y-88870586D01*
X107382073Y-88770557D01*
X107310119Y-88682881D01*
X107222443Y-88610927D01*
X107122414Y-88557460D01*
X107013876Y-88524535D01*
X106901000Y-88513418D01*
X105951000Y-88513418D01*
X105838124Y-88524535D01*
X105827990Y-88527609D01*
X105827990Y-88330493D01*
X106326250Y-88329000D01*
X106423000Y-88232250D01*
X106423000Y-87357500D01*
X106429000Y-87357500D01*
X106429000Y-88232250D01*
X106525750Y-88329000D01*
X107151000Y-88330873D01*
X107226865Y-88323401D01*
X107299815Y-88301272D01*
X107367046Y-88265336D01*
X107425975Y-88216975D01*
X107474336Y-88158046D01*
X107510272Y-88090815D01*
X107532401Y-88017865D01*
X107539873Y-87942000D01*
X107538000Y-87454250D01*
X107441250Y-87357500D01*
X106429000Y-87357500D01*
X106423000Y-87357500D01*
X106403000Y-87357500D01*
X106403000Y-87351500D01*
X106423000Y-87351500D01*
X106423000Y-86476750D01*
X106429000Y-86476750D01*
X106429000Y-87351500D01*
X107441250Y-87351500D01*
X107538000Y-87254750D01*
X107539873Y-86767000D01*
X107532401Y-86691135D01*
X107510272Y-86618185D01*
X107474336Y-86550954D01*
X107425975Y-86492025D01*
X107367046Y-86443664D01*
X107299815Y-86407728D01*
X107226865Y-86385599D01*
X107151000Y-86378127D01*
X106525750Y-86380000D01*
X106429000Y-86476750D01*
X106423000Y-86476750D01*
X106326250Y-86380000D01*
X105827990Y-86378507D01*
X105827990Y-85567712D01*
X107195702Y-84200000D01*
X108721418Y-84200000D01*
X108721418Y-87800000D01*
X108727732Y-87864103D01*
X108746430Y-87925743D01*
X108776794Y-87982550D01*
X108817657Y-88032343D01*
X108867450Y-88073206D01*
X108924257Y-88103570D01*
X108985897Y-88122268D01*
X109050000Y-88128582D01*
X111650000Y-88128582D01*
X111714103Y-88122268D01*
X111775743Y-88103570D01*
X111823940Y-88077808D01*
X119140131Y-95394000D01*
X116663132Y-97871000D01*
X115722966Y-97871000D01*
X115701999Y-97868935D01*
X115681032Y-97871000D01*
X115681022Y-97871000D01*
X115618293Y-97877178D01*
X115537804Y-97901595D01*
X115503273Y-97920052D01*
X115463623Y-97941245D01*
X115414899Y-97981232D01*
X115414895Y-97981236D01*
X115398605Y-97994605D01*
X115385236Y-98010895D01*
X114224713Y-99171418D01*
X110750000Y-99171418D01*
X110539579Y-99192143D01*
X110337245Y-99253520D01*
X110150772Y-99353192D01*
X109987327Y-99487327D01*
X109853192Y-99650772D01*
X109753520Y-99837245D01*
X109692143Y-100039579D01*
X109671418Y-100250000D01*
X109671418Y-101750000D01*
X109692143Y-101960421D01*
X109753520Y-102162755D01*
X109853192Y-102349228D01*
X109987327Y-102512673D01*
X110150772Y-102646808D01*
X110337245Y-102746480D01*
X110539579Y-102807857D01*
X110750000Y-102828582D01*
X115250000Y-102828582D01*
X115460421Y-102807857D01*
X115662755Y-102746480D01*
X115849228Y-102646808D01*
X116012673Y-102512673D01*
X116146808Y-102349228D01*
X116246480Y-102162755D01*
X116307857Y-101960421D01*
X116328582Y-101750000D01*
X116328582Y-100250000D01*
X116307857Y-100039579D01*
X116246480Y-99837245D01*
X116146808Y-99650772D01*
X116012673Y-99487327D01*
X115849228Y-99353192D01*
X115662755Y-99253520D01*
X115460421Y-99192143D01*
X115416092Y-99187777D01*
X115878869Y-98725000D01*
X116819033Y-98725000D01*
X116840000Y-98727065D01*
X116860967Y-98725000D01*
X116860978Y-98725000D01*
X116923707Y-98718822D01*
X117004196Y-98694405D01*
X117078376Y-98654755D01*
X117143395Y-98601395D01*
X117156768Y-98585100D01*
X119921106Y-95820763D01*
X119937395Y-95807395D01*
X119950764Y-95791105D01*
X119950768Y-95791101D01*
X119990756Y-95742377D01*
X120030404Y-95668197D01*
X120030405Y-95668196D01*
X120054822Y-95587707D01*
X120061000Y-95524978D01*
X120061000Y-95524967D01*
X120063065Y-95504000D01*
X120061000Y-95483033D01*
X120061000Y-95304967D01*
X120063065Y-95284000D01*
X120061000Y-95263033D01*
X120061000Y-95263023D01*
X120054822Y-95200293D01*
X120030405Y-95119804D01*
X120007526Y-95077000D01*
X119990756Y-95045623D01*
X119950768Y-94996899D01*
X119950764Y-94996895D01*
X119937395Y-94980605D01*
X119921105Y-94967236D01*
X112753869Y-87800000D01*
X137961127Y-87800000D01*
X137968599Y-87875865D01*
X137990728Y-87948815D01*
X138026664Y-88016046D01*
X138075025Y-88074975D01*
X138133954Y-88123336D01*
X138201185Y-88159272D01*
X138274135Y-88181401D01*
X138350000Y-88188873D01*
X139550250Y-88187000D01*
X139647000Y-88090250D01*
X139647000Y-86003000D01*
X139653000Y-86003000D01*
X139653000Y-88090250D01*
X139749750Y-88187000D01*
X140950000Y-88188873D01*
X141025865Y-88181401D01*
X141098815Y-88159272D01*
X141166046Y-88123336D01*
X141224975Y-88074975D01*
X141273336Y-88016046D01*
X141309272Y-87948815D01*
X141331401Y-87875865D01*
X141338873Y-87800000D01*
X141337000Y-86099750D01*
X141240250Y-86003000D01*
X139653000Y-86003000D01*
X139647000Y-86003000D01*
X138059750Y-86003000D01*
X137963000Y-86099750D01*
X137961127Y-87800000D01*
X112753869Y-87800000D01*
X111978582Y-87024714D01*
X111978582Y-84200000D01*
X137961127Y-84200000D01*
X137963000Y-85900250D01*
X138059750Y-85997000D01*
X139647000Y-85997000D01*
X139647000Y-83909750D01*
X139550250Y-83813000D01*
X138350000Y-83811127D01*
X138274135Y-83818599D01*
X138201185Y-83840728D01*
X138133954Y-83876664D01*
X138075025Y-83925025D01*
X138026664Y-83983954D01*
X137990728Y-84051185D01*
X137968599Y-84124135D01*
X137961127Y-84200000D01*
X111978582Y-84200000D01*
X111972268Y-84135897D01*
X111953570Y-84074257D01*
X111923206Y-84017450D01*
X111882343Y-83967657D01*
X111832550Y-83926794D01*
X111775743Y-83896430D01*
X111714103Y-83877732D01*
X111650000Y-83871418D01*
X109050000Y-83871418D01*
X108985897Y-83877732D01*
X108924257Y-83896430D01*
X108867450Y-83926794D01*
X108817657Y-83967657D01*
X108776794Y-84017450D01*
X108746430Y-84074257D01*
X108727732Y-84135897D01*
X108721418Y-84200000D01*
X107195702Y-84200000D01*
X109244106Y-82151596D01*
X109260395Y-82138229D01*
X109273764Y-82121939D01*
X109273768Y-82121935D01*
X109313756Y-82073210D01*
X109353405Y-81999031D01*
X109359088Y-81980297D01*
X109377822Y-81918541D01*
X109384000Y-81855812D01*
X109384000Y-81855801D01*
X109386065Y-81834834D01*
X109384000Y-81813867D01*
X109384000Y-80024869D01*
X109640246Y-80281115D01*
X109653615Y-80297405D01*
X109669905Y-80310774D01*
X109669909Y-80310778D01*
X109718633Y-80350766D01*
X109775548Y-80381186D01*
X109792814Y-80390415D01*
X109873303Y-80414832D01*
X109936032Y-80421010D01*
X109936043Y-80421010D01*
X109957010Y-80423075D01*
X109977977Y-80421010D01*
X135885023Y-80421010D01*
X135905990Y-80423075D01*
X135926957Y-80421010D01*
X135926968Y-80421010D01*
X135989697Y-80414832D01*
X136070186Y-80390415D01*
X136144366Y-80350765D01*
X136196475Y-80308000D01*
X136198367Y-80308000D01*
X136305012Y-80286787D01*
X136405470Y-80245176D01*
X136495880Y-80184766D01*
X136572766Y-80107880D01*
X136633176Y-80017470D01*
X136674787Y-79917012D01*
X136681814Y-79881683D01*
X140611786Y-83811655D01*
X139749750Y-83813000D01*
X139653000Y-83909750D01*
X139653000Y-85997000D01*
X141240250Y-85997000D01*
X141337000Y-85900250D01*
X141338821Y-84247000D01*
X143105418Y-84247000D01*
X143105418Y-84270001D01*
X143116535Y-84382877D01*
X143149460Y-84491414D01*
X143202926Y-84591443D01*
X143274880Y-84679120D01*
X143362557Y-84751074D01*
X143462586Y-84804540D01*
X143571123Y-84837465D01*
X143607001Y-84840999D01*
X143607000Y-87089130D01*
X139199661Y-91496470D01*
X139173176Y-91432530D01*
X139112766Y-91342120D01*
X139035880Y-91265234D01*
X138945470Y-91204824D01*
X138845012Y-91163213D01*
X138738367Y-91142000D01*
X138629633Y-91142000D01*
X138522988Y-91163213D01*
X138422530Y-91204824D01*
X138332120Y-91265234D01*
X138314545Y-91282809D01*
X138265804Y-91297595D01*
X138231273Y-91316052D01*
X138191623Y-91337245D01*
X138142898Y-91377233D01*
X138142895Y-91377236D01*
X138126605Y-91390605D01*
X138113236Y-91406895D01*
X136854132Y-92666000D01*
X136851633Y-92666000D01*
X136744988Y-92687213D01*
X136644530Y-92728824D01*
X136554120Y-92789234D01*
X136477234Y-92866120D01*
X136416824Y-92956530D01*
X136375213Y-93056988D01*
X136354000Y-93163633D01*
X136354000Y-93272367D01*
X136375213Y-93379012D01*
X136416824Y-93479470D01*
X136477234Y-93569880D01*
X136554120Y-93646766D01*
X136644530Y-93707176D01*
X136744988Y-93748787D01*
X136851633Y-93770000D01*
X136926132Y-93770000D01*
X136712896Y-93983236D01*
X136696606Y-93996605D01*
X136683237Y-94012895D01*
X136683232Y-94012900D01*
X136643245Y-94061624D01*
X136603596Y-94135804D01*
X136579179Y-94216294D01*
X136570935Y-94300000D01*
X136573001Y-94320977D01*
X136573000Y-99171418D01*
X134750000Y-99171418D01*
X134539579Y-99192143D01*
X134337245Y-99253520D01*
X134150772Y-99353192D01*
X133987327Y-99487327D01*
X133853192Y-99650772D01*
X133753520Y-99837245D01*
X133692143Y-100039579D01*
X133671418Y-100250000D01*
X133671418Y-100665000D01*
X132687646Y-100665000D01*
X132685880Y-100663234D01*
X132595470Y-100602824D01*
X132495012Y-100561213D01*
X132388367Y-100540000D01*
X132279633Y-100540000D01*
X132172988Y-100561213D01*
X132072530Y-100602824D01*
X131982120Y-100663234D01*
X131905234Y-100740120D01*
X131844824Y-100830530D01*
X131803213Y-100930988D01*
X131782000Y-101037633D01*
X131782000Y-101146367D01*
X131803213Y-101253012D01*
X131844824Y-101353470D01*
X131905234Y-101443880D01*
X131982120Y-101520766D01*
X132072530Y-101581176D01*
X132172988Y-101622787D01*
X132279633Y-101644000D01*
X132388367Y-101644000D01*
X132495012Y-101622787D01*
X132595470Y-101581176D01*
X132685880Y-101520766D01*
X132687646Y-101519000D01*
X133671418Y-101519000D01*
X133671418Y-101750000D01*
X133692143Y-101960421D01*
X133753520Y-102162755D01*
X133853192Y-102349228D01*
X133987327Y-102512673D01*
X134150772Y-102646808D01*
X134337245Y-102746480D01*
X134539579Y-102807857D01*
X134750000Y-102828582D01*
X139250000Y-102828582D01*
X139460421Y-102807857D01*
X139662755Y-102746480D01*
X139849228Y-102646808D01*
X139906264Y-102600000D01*
X143161127Y-102600000D01*
X143168599Y-102675865D01*
X143190728Y-102748815D01*
X143226664Y-102816046D01*
X143275025Y-102874975D01*
X143333954Y-102923336D01*
X143401185Y-102959272D01*
X143474135Y-102981401D01*
X143550000Y-102988873D01*
X144150250Y-102987000D01*
X144247000Y-102890250D01*
X144247000Y-102003000D01*
X144253000Y-102003000D01*
X144253000Y-102890250D01*
X144349750Y-102987000D01*
X144950000Y-102988873D01*
X145025865Y-102981401D01*
X145098815Y-102959272D01*
X145166046Y-102923336D01*
X145224975Y-102874975D01*
X145232734Y-102865520D01*
X146634607Y-102865520D01*
X146634607Y-103134480D01*
X146687078Y-103398271D01*
X146790004Y-103646756D01*
X146939430Y-103870388D01*
X147129612Y-104060570D01*
X147353244Y-104209996D01*
X147601729Y-104312922D01*
X147865520Y-104365393D01*
X148134480Y-104365393D01*
X148398271Y-104312922D01*
X148646756Y-104209996D01*
X148870388Y-104060570D01*
X149060570Y-103870388D01*
X149209996Y-103646756D01*
X149312922Y-103398271D01*
X149365393Y-103134480D01*
X149365393Y-102865520D01*
X149312922Y-102601729D01*
X149209996Y-102353244D01*
X149060570Y-102129612D01*
X148870388Y-101939430D01*
X148646756Y-101790004D01*
X148398271Y-101687078D01*
X148134480Y-101634607D01*
X147865520Y-101634607D01*
X147601729Y-101687078D01*
X147353244Y-101790004D01*
X147129612Y-101939430D01*
X146939430Y-102129612D01*
X146790004Y-102353244D01*
X146687078Y-102601729D01*
X146634607Y-102865520D01*
X145232734Y-102865520D01*
X145273336Y-102816046D01*
X145309272Y-102748815D01*
X145331401Y-102675865D01*
X145338873Y-102600000D01*
X145337000Y-102099750D01*
X145240250Y-102003000D01*
X144253000Y-102003000D01*
X144247000Y-102003000D01*
X143259750Y-102003000D01*
X143163000Y-102099750D01*
X143161127Y-102600000D01*
X139906264Y-102600000D01*
X140012673Y-102512673D01*
X140146808Y-102349228D01*
X140246480Y-102162755D01*
X140307857Y-101960421D01*
X140328582Y-101750000D01*
X140328582Y-101400000D01*
X143161127Y-101400000D01*
X143163000Y-101900250D01*
X143259750Y-101997000D01*
X144247000Y-101997000D01*
X144247000Y-101109750D01*
X144253000Y-101109750D01*
X144253000Y-101997000D01*
X145240250Y-101997000D01*
X145337000Y-101900250D01*
X145338873Y-101400000D01*
X145331401Y-101324135D01*
X145309272Y-101251185D01*
X145273336Y-101183954D01*
X145224975Y-101125025D01*
X145166046Y-101076664D01*
X145098815Y-101040728D01*
X145025865Y-101018599D01*
X144950000Y-101011127D01*
X144349750Y-101013000D01*
X144253000Y-101109750D01*
X144247000Y-101109750D01*
X144150250Y-101013000D01*
X143550000Y-101011127D01*
X143474135Y-101018599D01*
X143401185Y-101040728D01*
X143333954Y-101076664D01*
X143275025Y-101125025D01*
X143226664Y-101183954D01*
X143190728Y-101251185D01*
X143168599Y-101324135D01*
X143161127Y-101400000D01*
X140328582Y-101400000D01*
X140328582Y-100250000D01*
X140307857Y-100039579D01*
X140246480Y-99837245D01*
X140146808Y-99650772D01*
X140012673Y-99487327D01*
X139849228Y-99353192D01*
X139662755Y-99253520D01*
X139460421Y-99192143D01*
X139250000Y-99171418D01*
X137427000Y-99171418D01*
X137427000Y-98243633D01*
X143212000Y-98243633D01*
X143212000Y-98352367D01*
X143233213Y-98459012D01*
X143274824Y-98559470D01*
X143335234Y-98649880D01*
X143412120Y-98726766D01*
X143502530Y-98787176D01*
X143602988Y-98828787D01*
X143709633Y-98850000D01*
X143712131Y-98850000D01*
X143823001Y-98960870D01*
X143823001Y-99071418D01*
X143799999Y-99071418D01*
X143687123Y-99082535D01*
X143578586Y-99115460D01*
X143478557Y-99168926D01*
X143390880Y-99240880D01*
X143318926Y-99328557D01*
X143265460Y-99428586D01*
X143232535Y-99537123D01*
X143221418Y-99649999D01*
X143221418Y-100350001D01*
X143232535Y-100462877D01*
X143265460Y-100571414D01*
X143318926Y-100671443D01*
X143390880Y-100759120D01*
X143478557Y-100831074D01*
X143578586Y-100884540D01*
X143687123Y-100917465D01*
X143799999Y-100928582D01*
X144700001Y-100928582D01*
X144812877Y-100917465D01*
X144921414Y-100884540D01*
X145021443Y-100831074D01*
X145109120Y-100759120D01*
X145181074Y-100671443D01*
X145234540Y-100571414D01*
X145267465Y-100462877D01*
X145278582Y-100350001D01*
X145278582Y-99649999D01*
X145267465Y-99537123D01*
X145234540Y-99428586D01*
X145181074Y-99328557D01*
X145109120Y-99240880D01*
X145021443Y-99168926D01*
X144921414Y-99115460D01*
X144812877Y-99082535D01*
X144700001Y-99071418D01*
X144677000Y-99071418D01*
X144677000Y-98804967D01*
X144679065Y-98784000D01*
X144677000Y-98763033D01*
X144677000Y-98763022D01*
X144670822Y-98700293D01*
X144646405Y-98619804D01*
X144627856Y-98585101D01*
X144606756Y-98545623D01*
X144566768Y-98496899D01*
X144566764Y-98496895D01*
X144553395Y-98480605D01*
X144537105Y-98467236D01*
X144316000Y-98246131D01*
X144316000Y-98243633D01*
X144294787Y-98136988D01*
X144253176Y-98036530D01*
X144192766Y-97946120D01*
X144115880Y-97869234D01*
X144025470Y-97808824D01*
X143925012Y-97767213D01*
X143818367Y-97746000D01*
X143709633Y-97746000D01*
X143602988Y-97767213D01*
X143502530Y-97808824D01*
X143412120Y-97869234D01*
X143335234Y-97946120D01*
X143274824Y-98036530D01*
X143233213Y-98136988D01*
X143212000Y-98243633D01*
X137427000Y-98243633D01*
X137427000Y-94476868D01*
X144321112Y-87582758D01*
X144337395Y-87569395D01*
X144350759Y-87553111D01*
X144350768Y-87553102D01*
X144390755Y-87504377D01*
X144430404Y-87430197D01*
X144430405Y-87430196D01*
X144454822Y-87349707D01*
X144461000Y-87286978D01*
X144461000Y-87286968D01*
X144463065Y-87266001D01*
X144461000Y-87245034D01*
X144461000Y-84840998D01*
X144496877Y-84837465D01*
X144605414Y-84804540D01*
X144705443Y-84751074D01*
X144793120Y-84679120D01*
X144865074Y-84591443D01*
X144918540Y-84491414D01*
X144951465Y-84382877D01*
X144962582Y-84270001D01*
X144962582Y-83581451D01*
X145105418Y-83724287D01*
X145105418Y-84270001D01*
X145116535Y-84382877D01*
X145149460Y-84491414D01*
X145202926Y-84591443D01*
X145274880Y-84679120D01*
X145362557Y-84751074D01*
X145462586Y-84804540D01*
X145571123Y-84837465D01*
X145683999Y-84848582D01*
X146384001Y-84848582D01*
X146496877Y-84837465D01*
X146605414Y-84804540D01*
X146705443Y-84751074D01*
X146793120Y-84679120D01*
X146865074Y-84591443D01*
X146918540Y-84491414D01*
X146951465Y-84382877D01*
X146962582Y-84270001D01*
X146962582Y-83369999D01*
X146951465Y-83257123D01*
X146918540Y-83148586D01*
X146865074Y-83048557D01*
X146793120Y-82960880D01*
X146705443Y-82888926D01*
X146605414Y-82835460D01*
X146496877Y-82802535D01*
X146461000Y-82799002D01*
X146461000Y-80014998D01*
X146496877Y-80011465D01*
X146605414Y-79978540D01*
X146705443Y-79925074D01*
X146793120Y-79853120D01*
X146865074Y-79765443D01*
X146918540Y-79665414D01*
X146951465Y-79556877D01*
X146962582Y-79444001D01*
X146962582Y-78543999D01*
X146951465Y-78431123D01*
X146918540Y-78322586D01*
X146865074Y-78222557D01*
X146793120Y-78134880D01*
X146705443Y-78062926D01*
X146605414Y-78009460D01*
X146496877Y-77976535D01*
X146384001Y-77965418D01*
X145733999Y-77965418D01*
X145643226Y-77974358D01*
X145375757Y-77706889D01*
X145362385Y-77690595D01*
X145304391Y-77643000D01*
X146458354Y-77643000D01*
X146460120Y-77644766D01*
X146550530Y-77705176D01*
X146650988Y-77746787D01*
X146757633Y-77768000D01*
X146866367Y-77768000D01*
X146973012Y-77746787D01*
X147073470Y-77705176D01*
X147163880Y-77644766D01*
X147240766Y-77567880D01*
X147301176Y-77477470D01*
X147342787Y-77377012D01*
X147364000Y-77270367D01*
X147364000Y-77161633D01*
X147342787Y-77054988D01*
X147301176Y-76954530D01*
X147240766Y-76864120D01*
X147163880Y-76787234D01*
X147073470Y-76726824D01*
X146973012Y-76685213D01*
X146866367Y-76664000D01*
X146757633Y-76664000D01*
X146650988Y-76685213D01*
X146550530Y-76726824D01*
X146460120Y-76787234D01*
X146458354Y-76789000D01*
X144380869Y-76789000D01*
X143758087Y-76166218D01*
X143764000Y-76159013D01*
X143771657Y-76168343D01*
X143821450Y-76209206D01*
X143878257Y-76239570D01*
X143939897Y-76258268D01*
X144004000Y-76264582D01*
X144804000Y-76264582D01*
X144868103Y-76258268D01*
X144929743Y-76239570D01*
X144986550Y-76209206D01*
X145036343Y-76168343D01*
X145077206Y-76118550D01*
X145107570Y-76061743D01*
X145126268Y-76000103D01*
X145132582Y-75936000D01*
X145132582Y-74636000D01*
X145126268Y-74571897D01*
X145107570Y-74510257D01*
X145077206Y-74453450D01*
X145036343Y-74403657D01*
X144986550Y-74362794D01*
X144929743Y-74332430D01*
X144868103Y-74313732D01*
X144804000Y-74307418D01*
X144535082Y-74307418D01*
X144552000Y-74222367D01*
X144552000Y-74113633D01*
X144530787Y-74006988D01*
X144489176Y-73906530D01*
X144428766Y-73816120D01*
X144351880Y-73739234D01*
X144261470Y-73678824D01*
X144161012Y-73637213D01*
X144054367Y-73616000D01*
X143945633Y-73616000D01*
X143838988Y-73637213D01*
X143738530Y-73678824D01*
X143648120Y-73739234D01*
X143571234Y-73816120D01*
X143510824Y-73906530D01*
X143469213Y-74006988D01*
X143448000Y-74113633D01*
X143448000Y-74222367D01*
X143464918Y-74307418D01*
X142724000Y-74307418D01*
X142659897Y-74313732D01*
X142598257Y-74332430D01*
X142541450Y-74362794D01*
X142494000Y-74401734D01*
X142446550Y-74362794D01*
X142389743Y-74332430D01*
X142328103Y-74313732D01*
X142264000Y-74307418D01*
X141464000Y-74307418D01*
X141399897Y-74313732D01*
X141338257Y-74332430D01*
X141281450Y-74362794D01*
X141231657Y-74403657D01*
X141229000Y-74406895D01*
X141226343Y-74403657D01*
X141176550Y-74362794D01*
X141119743Y-74332430D01*
X141058103Y-74313732D01*
X140994000Y-74307418D01*
X140194000Y-74307418D01*
X140129897Y-74313732D01*
X140068257Y-74332430D01*
X140011450Y-74362794D01*
X139961657Y-74403657D01*
X139954000Y-74412987D01*
X139946343Y-74403657D01*
X139896550Y-74362794D01*
X139839743Y-74332430D01*
X139778103Y-74313732D01*
X139714000Y-74307418D01*
X139325228Y-74307418D01*
X139366766Y-74265880D01*
X139427176Y-74175470D01*
X139468787Y-74075012D01*
X139490000Y-73968367D01*
X139490000Y-73859633D01*
X139468787Y-73752988D01*
X139427176Y-73652530D01*
X139366766Y-73562120D01*
X139289880Y-73485234D01*
X139199470Y-73424824D01*
X139099012Y-73383213D01*
X138992367Y-73362000D01*
X138989869Y-73362000D01*
X138474000Y-72846132D01*
X138474000Y-72843633D01*
X138452787Y-72736988D01*
X138411176Y-72636530D01*
X138350766Y-72546120D01*
X138273880Y-72469234D01*
X138183470Y-72408824D01*
X138083012Y-72367213D01*
X137976367Y-72346000D01*
X137867633Y-72346000D01*
X137760988Y-72367213D01*
X137660530Y-72408824D01*
X137570120Y-72469234D01*
X137493234Y-72546120D01*
X137432824Y-72636530D01*
X137391213Y-72736988D01*
X137370000Y-72843633D01*
X137370000Y-72952367D01*
X137391213Y-73059012D01*
X137432824Y-73159470D01*
X137493234Y-73249880D01*
X137570120Y-73326766D01*
X137660530Y-73387176D01*
X137760988Y-73428787D01*
X137867633Y-73450000D01*
X137870132Y-73450000D01*
X138386000Y-73965869D01*
X138386000Y-73968367D01*
X138407213Y-74075012D01*
X138448824Y-74175470D01*
X138509234Y-74265880D01*
X138582721Y-74339367D01*
X138569743Y-74332430D01*
X138508103Y-74313732D01*
X138444000Y-74307418D01*
X137644000Y-74307418D01*
X137579897Y-74313732D01*
X137518257Y-74332430D01*
X137461450Y-74362794D01*
X137414000Y-74401734D01*
X137366550Y-74362794D01*
X137309743Y-74332430D01*
X137248103Y-74313732D01*
X137191431Y-74308150D01*
X137180405Y-74271804D01*
X137158471Y-74230768D01*
X137140755Y-74197623D01*
X137100768Y-74148898D01*
X137100759Y-74148889D01*
X137087395Y-74132605D01*
X137071112Y-74119242D01*
X135816768Y-72864900D01*
X135803395Y-72848605D01*
X135738376Y-72795245D01*
X135664196Y-72755595D01*
X135583707Y-72731178D01*
X135520978Y-72725000D01*
X135520967Y-72725000D01*
X135500000Y-72722935D01*
X135479033Y-72725000D01*
X134640966Y-72725000D01*
X134619999Y-72722935D01*
X134599032Y-72725000D01*
X134599022Y-72725000D01*
X134536293Y-72731178D01*
X134455804Y-72755595D01*
X134429612Y-72769595D01*
X134381623Y-72795245D01*
X134332898Y-72835232D01*
X134332889Y-72835241D01*
X134316605Y-72848605D01*
X134303241Y-72864889D01*
X131141132Y-76027000D01*
X127099646Y-76027000D01*
X127097880Y-76025234D01*
X127007470Y-75964824D01*
X126962025Y-75946000D01*
X127007470Y-75927176D01*
X127097880Y-75866766D01*
X127174766Y-75789880D01*
X127235176Y-75699470D01*
X127276787Y-75599012D01*
X127298000Y-75492367D01*
X127298000Y-75489868D01*
X127793287Y-74994582D01*
X128284000Y-74994582D01*
X128348103Y-74988268D01*
X128409743Y-74969570D01*
X128466550Y-74939206D01*
X128516343Y-74898343D01*
X128524000Y-74889013D01*
X128531657Y-74898343D01*
X128581450Y-74939206D01*
X128638257Y-74969570D01*
X128699897Y-74988268D01*
X128764000Y-74994582D01*
X129564000Y-74994582D01*
X129628103Y-74988268D01*
X129689743Y-74969570D01*
X129746550Y-74939206D01*
X129796343Y-74898343D01*
X129837206Y-74848550D01*
X129867570Y-74791743D01*
X129886268Y-74730103D01*
X129892582Y-74666000D01*
X129892582Y-74341000D01*
X130202354Y-74341000D01*
X130204120Y-74342766D01*
X130294530Y-74403176D01*
X130394988Y-74444787D01*
X130501633Y-74466000D01*
X130610367Y-74466000D01*
X130717012Y-74444787D01*
X130817470Y-74403176D01*
X130907880Y-74342766D01*
X130984766Y-74265880D01*
X131045176Y-74175470D01*
X131086787Y-74075012D01*
X131108000Y-73968367D01*
X131108000Y-73859633D01*
X131086787Y-73752988D01*
X131045176Y-73652530D01*
X130984766Y-73562120D01*
X130907880Y-73485234D01*
X130817470Y-73424824D01*
X130717012Y-73383213D01*
X130610367Y-73362000D01*
X130501633Y-73362000D01*
X130394988Y-73383213D01*
X130294530Y-73424824D01*
X130204120Y-73485234D01*
X130202354Y-73487000D01*
X129892582Y-73487000D01*
X129892582Y-73366000D01*
X129886268Y-73301897D01*
X129867570Y-73240257D01*
X129837206Y-73183450D01*
X129796343Y-73133657D01*
X129746550Y-73092794D01*
X129689743Y-73062430D01*
X129628103Y-73043732D01*
X129564000Y-73037418D01*
X128764000Y-73037418D01*
X128699897Y-73043732D01*
X128638257Y-73062430D01*
X128581450Y-73092794D01*
X128531657Y-73133657D01*
X128524000Y-73142987D01*
X128516343Y-73133657D01*
X128466550Y-73092794D01*
X128409743Y-73062430D01*
X128348103Y-73043732D01*
X128284000Y-73037418D01*
X127484000Y-73037418D01*
X127419897Y-73043732D01*
X127358257Y-73062430D01*
X127301450Y-73092794D01*
X127254000Y-73131734D01*
X127206550Y-73092794D01*
X127149743Y-73062430D01*
X127088103Y-73043732D01*
X127024000Y-73037418D01*
X126589485Y-73037418D01*
X126054966Y-72502900D01*
X126041593Y-72486605D01*
X125976574Y-72433245D01*
X125902394Y-72393595D01*
X125821905Y-72369178D01*
X125775227Y-72364581D01*
X125771880Y-72361234D01*
X125681470Y-72300824D01*
X125581012Y-72259213D01*
X125474367Y-72238000D01*
X125365633Y-72238000D01*
X125258988Y-72259213D01*
X125158530Y-72300824D01*
X125068120Y-72361234D01*
X125066354Y-72363000D01*
X124470964Y-72363000D01*
X124449999Y-72360935D01*
X124429034Y-72363000D01*
X124429022Y-72363000D01*
X124366293Y-72369178D01*
X124285804Y-72393595D01*
X124257313Y-72408824D01*
X124211623Y-72433245D01*
X124162898Y-72473232D01*
X124162889Y-72473241D01*
X124146605Y-72486605D01*
X124133240Y-72502890D01*
X123786899Y-72849232D01*
X123770605Y-72862605D01*
X123757233Y-72878899D01*
X123757232Y-72878900D01*
X123717245Y-72927624D01*
X123703042Y-72954197D01*
X123677595Y-73001805D01*
X123666569Y-73038150D01*
X123609897Y-73043732D01*
X123548257Y-73062430D01*
X123491450Y-73092794D01*
X123441657Y-73133657D01*
X123439000Y-73136895D01*
X123436343Y-73133657D01*
X123386550Y-73092794D01*
X123329743Y-73062430D01*
X123268103Y-73043732D01*
X123204000Y-73037418D01*
X122404000Y-73037418D01*
X122339897Y-73043732D01*
X122278257Y-73062430D01*
X122221450Y-73092794D01*
X122219355Y-73094513D01*
X124257869Y-71056001D01*
X138153034Y-71056001D01*
X138174001Y-71058066D01*
X138194968Y-71056001D01*
X138194979Y-71056001D01*
X138257708Y-71049823D01*
X138338197Y-71025406D01*
X138412377Y-70985756D01*
X138477396Y-70932396D01*
X138490769Y-70916101D01*
X138734107Y-70672764D01*
X138750396Y-70659396D01*
X138763765Y-70643106D01*
X138763769Y-70643102D01*
X138803756Y-70594378D01*
X138836528Y-70533064D01*
X138843406Y-70520197D01*
X138867823Y-70439708D01*
X138874001Y-70376979D01*
X138874001Y-70376967D01*
X138876066Y-70356002D01*
X138874001Y-70335037D01*
X138874001Y-69960642D01*
X138914000Y-69964582D01*
X139714000Y-69964582D01*
X139778103Y-69958268D01*
X139839743Y-69939570D01*
X139896550Y-69909206D01*
X139946343Y-69868343D01*
X139954000Y-69859013D01*
X139961657Y-69868343D01*
X140011450Y-69909206D01*
X140068257Y-69939570D01*
X140129897Y-69958268D01*
X140194000Y-69964582D01*
X140289000Y-69964582D01*
X140289000Y-70004354D01*
X140287234Y-70006120D01*
X140226824Y-70096530D01*
X140185213Y-70196988D01*
X140164000Y-70303633D01*
X140164000Y-70412367D01*
X140185213Y-70519012D01*
X140226824Y-70619470D01*
X140287234Y-70709880D01*
X140364120Y-70786766D01*
X140454530Y-70847176D01*
X140554988Y-70888787D01*
X140661633Y-70910000D01*
X140770367Y-70910000D01*
X140877012Y-70888787D01*
X140977470Y-70847176D01*
X141067880Y-70786766D01*
X141144766Y-70709880D01*
X141205176Y-70619470D01*
X141246787Y-70519012D01*
X141268000Y-70412367D01*
X141268000Y-70303633D01*
X141246787Y-70196988D01*
X141205176Y-70096530D01*
X141144766Y-70006120D01*
X141143000Y-70004354D01*
X141143000Y-69927139D01*
X141176550Y-69909206D01*
X141226343Y-69868343D01*
X141229000Y-69865105D01*
X141231657Y-69868343D01*
X141281450Y-69909206D01*
X141338257Y-69939570D01*
X141399897Y-69958268D01*
X141464000Y-69964582D01*
X141750714Y-69964582D01*
X142196000Y-70409869D01*
X142196000Y-70412367D01*
X142217213Y-70519012D01*
X142258824Y-70619470D01*
X142319234Y-70709880D01*
X142396120Y-70786766D01*
X142486530Y-70847176D01*
X142586988Y-70888787D01*
X142693633Y-70910000D01*
X142802367Y-70910000D01*
X142909012Y-70888787D01*
X143009470Y-70847176D01*
X143099880Y-70786766D01*
X143176766Y-70709880D01*
X143237176Y-70619470D01*
X143278787Y-70519012D01*
X143300000Y-70412367D01*
X143300000Y-70303633D01*
X143278787Y-70196988D01*
X143237176Y-70096530D01*
X143176766Y-70006120D01*
X143135228Y-69964582D01*
X143524000Y-69964582D01*
X143588103Y-69958268D01*
X143649743Y-69939570D01*
X143706550Y-69909206D01*
X143719113Y-69898896D01*
X143729025Y-69910975D01*
X143787954Y-69959336D01*
X143855185Y-69995272D01*
X143928135Y-70017401D01*
X144004000Y-70024873D01*
X144304250Y-70023000D01*
X144401000Y-69926250D01*
X144401000Y-68989000D01*
X144407000Y-68989000D01*
X144407000Y-69926250D01*
X144503750Y-70023000D01*
X144804000Y-70024873D01*
X144879865Y-70017401D01*
X144952815Y-69995272D01*
X145020046Y-69959336D01*
X145078975Y-69910975D01*
X145127336Y-69852046D01*
X145163272Y-69784815D01*
X145185401Y-69711865D01*
X145192873Y-69636000D01*
X145191000Y-69085750D01*
X145094250Y-68989000D01*
X144407000Y-68989000D01*
X144401000Y-68989000D01*
X144381000Y-68989000D01*
X144381000Y-68983000D01*
X144401000Y-68983000D01*
X144401000Y-68045750D01*
X144407000Y-68045750D01*
X144407000Y-68983000D01*
X145094250Y-68983000D01*
X145191000Y-68886250D01*
X145192873Y-68336000D01*
X145185401Y-68260135D01*
X145163272Y-68187185D01*
X145127336Y-68119954D01*
X145078975Y-68061025D01*
X145020046Y-68012664D01*
X144952815Y-67976728D01*
X144879865Y-67954599D01*
X144804000Y-67947127D01*
X144503750Y-67949000D01*
X144407000Y-68045750D01*
X144401000Y-68045750D01*
X144304250Y-67949000D01*
X144004000Y-67947127D01*
X143928135Y-67954599D01*
X143855185Y-67976728D01*
X143787954Y-68012664D01*
X143729025Y-68061025D01*
X143719113Y-68073104D01*
X143706550Y-68062794D01*
X143683000Y-68050206D01*
X143683000Y-67917646D01*
X143684766Y-67915880D01*
X143745176Y-67825470D01*
X143786787Y-67725012D01*
X143808000Y-67618367D01*
X143808000Y-67509633D01*
X143786787Y-67402988D01*
X143745176Y-67302530D01*
X143684766Y-67212120D01*
X143607880Y-67135234D01*
X143517470Y-67074824D01*
X143417012Y-67033213D01*
X143310367Y-67012000D01*
X143201633Y-67012000D01*
X143094988Y-67033213D01*
X142994530Y-67074824D01*
X142904120Y-67135234D01*
X142827234Y-67212120D01*
X142766824Y-67302530D01*
X142725213Y-67402988D01*
X142704000Y-67509633D01*
X142704000Y-67618367D01*
X142725213Y-67725012D01*
X142766824Y-67825470D01*
X142827234Y-67915880D01*
X142829000Y-67917646D01*
X142829000Y-68007418D01*
X142724000Y-68007418D01*
X142659897Y-68013732D01*
X142598257Y-68032430D01*
X142541450Y-68062794D01*
X142494000Y-68101734D01*
X142446550Y-68062794D01*
X142389743Y-68032430D01*
X142328103Y-68013732D01*
X142264000Y-68007418D01*
X141464000Y-68007418D01*
X141399897Y-68013732D01*
X141338257Y-68032430D01*
X141281450Y-68062794D01*
X141231657Y-68103657D01*
X141229000Y-68106895D01*
X141226343Y-68103657D01*
X141176550Y-68062794D01*
X141119743Y-68032430D01*
X141058103Y-68013732D01*
X140994000Y-68007418D01*
X140194000Y-68007418D01*
X140129897Y-68013732D01*
X140127000Y-68014611D01*
X140127000Y-67917646D01*
X140128766Y-67915880D01*
X140189176Y-67825470D01*
X140230787Y-67725012D01*
X140252000Y-67618367D01*
X140252000Y-67509633D01*
X140230787Y-67402988D01*
X140189176Y-67302530D01*
X140128766Y-67212120D01*
X140051880Y-67135234D01*
X139961470Y-67074824D01*
X139861012Y-67033213D01*
X139754367Y-67012000D01*
X139645633Y-67012000D01*
X139538988Y-67033213D01*
X139438530Y-67074824D01*
X139348120Y-67135234D01*
X139271234Y-67212120D01*
X139210824Y-67302530D01*
X139169213Y-67402988D01*
X139148000Y-67509633D01*
X139148000Y-67618367D01*
X139169213Y-67725012D01*
X139210824Y-67825470D01*
X139271234Y-67915880D01*
X139273000Y-67917646D01*
X139273000Y-68007418D01*
X138914000Y-68007418D01*
X138849897Y-68013732D01*
X138788257Y-68032430D01*
X138731450Y-68062794D01*
X138681657Y-68103657D01*
X138679000Y-68106895D01*
X138676343Y-68103657D01*
X138626550Y-68062794D01*
X138569743Y-68032430D01*
X138508103Y-68013732D01*
X138444000Y-68007418D01*
X137644000Y-68007418D01*
X137579897Y-68013732D01*
X137518257Y-68032430D01*
X137461450Y-68062794D01*
X137414000Y-68101734D01*
X137366550Y-68062794D01*
X137309743Y-68032430D01*
X137298768Y-68029101D01*
X137465869Y-67862000D01*
X137468367Y-67862000D01*
X137575012Y-67840787D01*
X137675470Y-67799176D01*
X137765880Y-67738766D01*
X137842766Y-67661880D01*
X137903176Y-67571470D01*
X137944787Y-67471012D01*
X137966000Y-67364367D01*
X137966000Y-67255633D01*
X137944787Y-67148988D01*
X137903176Y-67048530D01*
X137842766Y-66958120D01*
X137765880Y-66881234D01*
X137742363Y-66865520D01*
X146634607Y-66865520D01*
X146634607Y-67134480D01*
X146687078Y-67398271D01*
X146790004Y-67646756D01*
X146939430Y-67870388D01*
X147129612Y-68060570D01*
X147353244Y-68209996D01*
X147601729Y-68312922D01*
X147865520Y-68365393D01*
X148134480Y-68365393D01*
X148398271Y-68312922D01*
X148646756Y-68209996D01*
X148870388Y-68060570D01*
X149060570Y-67870388D01*
X149209996Y-67646756D01*
X149312922Y-67398271D01*
X149365393Y-67134480D01*
X149365393Y-66865520D01*
X149312922Y-66601729D01*
X149209996Y-66353244D01*
X149060570Y-66129612D01*
X148870388Y-65939430D01*
X148646756Y-65790004D01*
X148398271Y-65687078D01*
X148134480Y-65634607D01*
X147865520Y-65634607D01*
X147601729Y-65687078D01*
X147353244Y-65790004D01*
X147129612Y-65939430D01*
X146939430Y-66129612D01*
X146790004Y-66353244D01*
X146687078Y-66601729D01*
X146634607Y-66865520D01*
X137742363Y-66865520D01*
X137675470Y-66820824D01*
X137575012Y-66779213D01*
X137468367Y-66758000D01*
X137359633Y-66758000D01*
X137252988Y-66779213D01*
X137152530Y-66820824D01*
X137062120Y-66881234D01*
X136985234Y-66958120D01*
X136924824Y-67048530D01*
X136883213Y-67148988D01*
X136862000Y-67255633D01*
X136862000Y-67258131D01*
X136496900Y-67623232D01*
X136480605Y-67636605D01*
X136467233Y-67652899D01*
X136467232Y-67652900D01*
X136427245Y-67701624D01*
X136417958Y-67719000D01*
X136387595Y-67775805D01*
X136363178Y-67856294D01*
X136357000Y-67919023D01*
X136357000Y-67919033D01*
X136354935Y-67940000D01*
X136357000Y-67960968D01*
X136357000Y-68010077D01*
X136319897Y-68013732D01*
X136258257Y-68032430D01*
X136201450Y-68062794D01*
X136151657Y-68103657D01*
X136144000Y-68112987D01*
X136136343Y-68103657D01*
X136086550Y-68062794D01*
X136063000Y-68050206D01*
X136063000Y-67663646D01*
X136064766Y-67661880D01*
X136125176Y-67571470D01*
X136166787Y-67471012D01*
X136188000Y-67364367D01*
X136188000Y-67255633D01*
X136166787Y-67148988D01*
X136125176Y-67048530D01*
X136064766Y-66958120D01*
X135987880Y-66881234D01*
X135897470Y-66820824D01*
X135797012Y-66779213D01*
X135690367Y-66758000D01*
X135581633Y-66758000D01*
X135474988Y-66779213D01*
X135374530Y-66820824D01*
X135284120Y-66881234D01*
X135207234Y-66958120D01*
X135146824Y-67048530D01*
X135105213Y-67148988D01*
X135084000Y-67255633D01*
X135084000Y-67364367D01*
X135105213Y-67471012D01*
X135146824Y-67571470D01*
X135207234Y-67661880D01*
X135209000Y-67663646D01*
X135209000Y-68007418D01*
X135104000Y-68007418D01*
X135039897Y-68013732D01*
X134978257Y-68032430D01*
X134921450Y-68062794D01*
X134871657Y-68103657D01*
X134830794Y-68153450D01*
X134800430Y-68210257D01*
X134781732Y-68271897D01*
X134775418Y-68336000D01*
X134775418Y-69636000D01*
X134779456Y-69677000D01*
X128202045Y-69677000D01*
X128251176Y-69603470D01*
X128292787Y-69503012D01*
X128314000Y-69396367D01*
X128314000Y-69287633D01*
X128292787Y-69180988D01*
X128251176Y-69080530D01*
X128190766Y-68990120D01*
X128189000Y-68988354D01*
X128189000Y-68694582D01*
X128284000Y-68694582D01*
X128348103Y-68688268D01*
X128409743Y-68669570D01*
X128466550Y-68639206D01*
X128479113Y-68628896D01*
X128489025Y-68640975D01*
X128547954Y-68689336D01*
X128615185Y-68725272D01*
X128688135Y-68747401D01*
X128764000Y-68754873D01*
X129064250Y-68753000D01*
X129161000Y-68656250D01*
X129161000Y-67719000D01*
X129167000Y-67719000D01*
X129167000Y-68656250D01*
X129263750Y-68753000D01*
X129564000Y-68754873D01*
X129639865Y-68747401D01*
X129712815Y-68725272D01*
X129780046Y-68689336D01*
X129838975Y-68640975D01*
X129887336Y-68582046D01*
X129923272Y-68514815D01*
X129945401Y-68441865D01*
X129952873Y-68366000D01*
X129951000Y-67815750D01*
X129854250Y-67719000D01*
X129167000Y-67719000D01*
X129161000Y-67719000D01*
X129141000Y-67719000D01*
X129141000Y-67713000D01*
X129161000Y-67713000D01*
X129161000Y-66775750D01*
X129167000Y-66775750D01*
X129167000Y-67713000D01*
X129854250Y-67713000D01*
X129951000Y-67616250D01*
X129952873Y-67066000D01*
X129945401Y-66990135D01*
X129923272Y-66917185D01*
X129887336Y-66849954D01*
X129838975Y-66791025D01*
X129780046Y-66742664D01*
X129712815Y-66706728D01*
X129639865Y-66684599D01*
X129564000Y-66677127D01*
X129263750Y-66679000D01*
X129167000Y-66775750D01*
X129161000Y-66775750D01*
X129064250Y-66679000D01*
X128764000Y-66677127D01*
X128688135Y-66684599D01*
X128615185Y-66706728D01*
X128547954Y-66742664D01*
X128489025Y-66791025D01*
X128479113Y-66803104D01*
X128466550Y-66792794D01*
X128409743Y-66762430D01*
X128348103Y-66743732D01*
X128284000Y-66737418D01*
X127484000Y-66737418D01*
X127419897Y-66743732D01*
X127358257Y-66762430D01*
X127301450Y-66792794D01*
X127254000Y-66831734D01*
X127206550Y-66792794D01*
X127149743Y-66762430D01*
X127088103Y-66743732D01*
X127024000Y-66737418D01*
X126506287Y-66737418D01*
X126282000Y-66513132D01*
X126282000Y-66510633D01*
X126260787Y-66403988D01*
X126219176Y-66303530D01*
X126158766Y-66213120D01*
X126081880Y-66136234D01*
X125991470Y-66075824D01*
X125891012Y-66034213D01*
X125784367Y-66013000D01*
X125675633Y-66013000D01*
X125568988Y-66034213D01*
X125474145Y-66073498D01*
X125457176Y-66032530D01*
X125396766Y-65942120D01*
X125319880Y-65865234D01*
X125229470Y-65804824D01*
X125129012Y-65763213D01*
X125022367Y-65742000D01*
X124913633Y-65742000D01*
X124806988Y-65763213D01*
X124706530Y-65804824D01*
X124616120Y-65865234D01*
X124539234Y-65942120D01*
X124478824Y-66032530D01*
X124437213Y-66132988D01*
X124416000Y-66239633D01*
X124416000Y-66242131D01*
X123920714Y-66737418D01*
X123674000Y-66737418D01*
X123609897Y-66743732D01*
X123548257Y-66762430D01*
X123491450Y-66792794D01*
X123441657Y-66833657D01*
X123439000Y-66836895D01*
X123436343Y-66833657D01*
X123386550Y-66792794D01*
X123329743Y-66762430D01*
X123268103Y-66743732D01*
X123211431Y-66738150D01*
X123200405Y-66701804D01*
X123172024Y-66648706D01*
X123160756Y-66627624D01*
X123120768Y-66578900D01*
X123107395Y-66562605D01*
X123091100Y-66549232D01*
X123020767Y-66478899D01*
X123007394Y-66462604D01*
X122942375Y-66409244D01*
X122868195Y-66369594D01*
X122787706Y-66345177D01*
X122724977Y-66338999D01*
X122724966Y-66338999D01*
X122703999Y-66336934D01*
X122683032Y-66338999D01*
X119261647Y-66338999D01*
X119259881Y-66337233D01*
X119169471Y-66276823D01*
X119069013Y-66235212D01*
X118962368Y-66213999D01*
X118853634Y-66213999D01*
X118746989Y-66235212D01*
X118646531Y-66276823D01*
X118556121Y-66337233D01*
X118479235Y-66414119D01*
X118418825Y-66504529D01*
X118377214Y-66604987D01*
X118356001Y-66711632D01*
X118356001Y-66820366D01*
X118377214Y-66927011D01*
X118418825Y-67027469D01*
X118479235Y-67117879D01*
X118556121Y-67194765D01*
X118646531Y-67255175D01*
X118746989Y-67296786D01*
X118853634Y-67317999D01*
X118962368Y-67317999D01*
X119069013Y-67296786D01*
X119169471Y-67255175D01*
X119259881Y-67194765D01*
X119261647Y-67192999D01*
X119535418Y-67192999D01*
X119535418Y-68366000D01*
X119541732Y-68430103D01*
X119560430Y-68491743D01*
X119590794Y-68548550D01*
X119631657Y-68598343D01*
X119681450Y-68639206D01*
X119738257Y-68669570D01*
X119799897Y-68688268D01*
X119864000Y-68694582D01*
X120223000Y-68694582D01*
X120223000Y-68734354D01*
X120221234Y-68736120D01*
X120160824Y-68826530D01*
X120119213Y-68926988D01*
X120098000Y-69033633D01*
X120098000Y-69142367D01*
X120119213Y-69249012D01*
X120160824Y-69349470D01*
X120221234Y-69439880D01*
X120298120Y-69516766D01*
X120388530Y-69577176D01*
X120488988Y-69618787D01*
X120595633Y-69640000D01*
X120704367Y-69640000D01*
X120811012Y-69618787D01*
X120911470Y-69577176D01*
X121001880Y-69516766D01*
X121078766Y-69439880D01*
X121139176Y-69349470D01*
X121180787Y-69249012D01*
X121202000Y-69142367D01*
X121202000Y-69033633D01*
X121180787Y-68926988D01*
X121139176Y-68826530D01*
X121078766Y-68736120D01*
X121077000Y-68734354D01*
X121077000Y-68687389D01*
X121079897Y-68688268D01*
X121136569Y-68693850D01*
X121147595Y-68730195D01*
X121158927Y-68751395D01*
X121187245Y-68804376D01*
X121227232Y-68853100D01*
X121240605Y-68869395D01*
X121256900Y-68882768D01*
X122765236Y-70391105D01*
X122778605Y-70407395D01*
X122794895Y-70420764D01*
X122794898Y-70420767D01*
X122843623Y-70460755D01*
X122883273Y-70481948D01*
X122917804Y-70500405D01*
X122998293Y-70524822D01*
X123061022Y-70531000D01*
X123061042Y-70531000D01*
X123081999Y-70533064D01*
X123102956Y-70531000D01*
X123575130Y-70531000D01*
X121256895Y-72849237D01*
X121240606Y-72862605D01*
X121227237Y-72878895D01*
X121227232Y-72878900D01*
X121187245Y-72927624D01*
X121155079Y-72987804D01*
X121147596Y-73001804D01*
X121136570Y-73038150D01*
X121079897Y-73043732D01*
X121018257Y-73062430D01*
X120961450Y-73092794D01*
X120911657Y-73133657D01*
X120904000Y-73142987D01*
X120896343Y-73133657D01*
X120846550Y-73092794D01*
X120789743Y-73062430D01*
X120728103Y-73043732D01*
X120664000Y-73037418D01*
X119864000Y-73037418D01*
X119799897Y-73043732D01*
X119738257Y-73062430D01*
X119681450Y-73092794D01*
X119631657Y-73133657D01*
X119590794Y-73183450D01*
X119560430Y-73240257D01*
X119541732Y-73301897D01*
X119535418Y-73366000D01*
X119535418Y-74666000D01*
X119541732Y-74730103D01*
X119560430Y-74791743D01*
X119590794Y-74848550D01*
X119631657Y-74898343D01*
X119681450Y-74939206D01*
X119738257Y-74969570D01*
X119799897Y-74988268D01*
X119837001Y-74991923D01*
X119837000Y-76555033D01*
X119834935Y-76576000D01*
X119837000Y-76596967D01*
X119837000Y-76596977D01*
X119843178Y-76659706D01*
X119867595Y-76740195D01*
X119876789Y-76757395D01*
X119893682Y-76789000D01*
X106493001Y-76789000D01*
X106518224Y-76763777D01*
X106578634Y-76673367D01*
X106620245Y-76572909D01*
X106641458Y-76466264D01*
X106641458Y-76463765D01*
X107089105Y-76016119D01*
X107095852Y-76010582D01*
X107202000Y-76010582D01*
X107266103Y-76004268D01*
X107327743Y-75985570D01*
X107384550Y-75955206D01*
X107391137Y-75949800D01*
X107397025Y-75956975D01*
X107455954Y-76005336D01*
X107523185Y-76041272D01*
X107596135Y-76063401D01*
X107672000Y-76070873D01*
X107972250Y-76069000D01*
X108069000Y-75972250D01*
X108069000Y-75035000D01*
X108049000Y-75035000D01*
X108049000Y-75029000D01*
X108069000Y-75029000D01*
X108069000Y-75009000D01*
X108075000Y-75009000D01*
X108075000Y-75029000D01*
X108095000Y-75029000D01*
X108095000Y-75035000D01*
X108075000Y-75035000D01*
X108075000Y-75972250D01*
X108171750Y-76069000D01*
X108472000Y-76070873D01*
X108547865Y-76063401D01*
X108620815Y-76041272D01*
X108688046Y-76005336D01*
X108746975Y-75956975D01*
X108756887Y-75944896D01*
X108769450Y-75955206D01*
X108826257Y-75985570D01*
X108887897Y-76004268D01*
X108952000Y-76010582D01*
X109752000Y-76010582D01*
X109816103Y-76004268D01*
X109877743Y-75985570D01*
X109934550Y-75955206D01*
X109984343Y-75914343D01*
X109987000Y-75911105D01*
X109989657Y-75914343D01*
X110039450Y-75955206D01*
X110096257Y-75985570D01*
X110157897Y-76004268D01*
X110214570Y-76009850D01*
X110225596Y-76046196D01*
X110265245Y-76120376D01*
X110305232Y-76169100D01*
X110305237Y-76169105D01*
X110318606Y-76185395D01*
X110334895Y-76198763D01*
X110623218Y-76487087D01*
X110636587Y-76503377D01*
X110652877Y-76516746D01*
X110652880Y-76516749D01*
X110701605Y-76556737D01*
X110741255Y-76577930D01*
X110775786Y-76596387D01*
X110856275Y-76620804D01*
X110919004Y-76626982D01*
X110919016Y-76626982D01*
X110939981Y-76629047D01*
X110960946Y-76626982D01*
X118518354Y-76626982D01*
X118520120Y-76628748D01*
X118610530Y-76689158D01*
X118710988Y-76730769D01*
X118817633Y-76751982D01*
X118926367Y-76751982D01*
X119033012Y-76730769D01*
X119133470Y-76689158D01*
X119223880Y-76628748D01*
X119300766Y-76551862D01*
X119361176Y-76461452D01*
X119402787Y-76360994D01*
X119424000Y-76254349D01*
X119424000Y-76145615D01*
X119402787Y-76038970D01*
X119361176Y-75938512D01*
X119300766Y-75848102D01*
X119223880Y-75771216D01*
X119133470Y-75710806D01*
X119033012Y-75669195D01*
X118926367Y-75647982D01*
X118817633Y-75647982D01*
X118710988Y-75669195D01*
X118610530Y-75710806D01*
X118520120Y-75771216D01*
X118518354Y-75772982D01*
X113876114Y-75772982D01*
X113884268Y-75746103D01*
X113890582Y-75682000D01*
X113890582Y-74382000D01*
X113884268Y-74317897D01*
X113865570Y-74256257D01*
X113835206Y-74199450D01*
X113794343Y-74149657D01*
X113744550Y-74108794D01*
X113687743Y-74078430D01*
X113626103Y-74059732D01*
X113562000Y-74053418D01*
X113417228Y-74053418D01*
X113458766Y-74011880D01*
X113519176Y-73921470D01*
X113560787Y-73821012D01*
X113582000Y-73714367D01*
X113582000Y-73605633D01*
X113560787Y-73498988D01*
X113519176Y-73398530D01*
X113458766Y-73308120D01*
X113381880Y-73231234D01*
X113291470Y-73170824D01*
X113191012Y-73129213D01*
X113084367Y-73108000D01*
X112975633Y-73108000D01*
X112868988Y-73129213D01*
X112768530Y-73170824D01*
X112678120Y-73231234D01*
X112601234Y-73308120D01*
X112540824Y-73398530D01*
X112499213Y-73498988D01*
X112478000Y-73605633D01*
X112478000Y-73608130D01*
X112032713Y-74053418D01*
X111482000Y-74053418D01*
X111417897Y-74059732D01*
X111356257Y-74078430D01*
X111299450Y-74108794D01*
X111252000Y-74147734D01*
X111204550Y-74108794D01*
X111147743Y-74078430D01*
X111086103Y-74059732D01*
X111022000Y-74053418D01*
X110222000Y-74053418D01*
X110157897Y-74059732D01*
X110096257Y-74078430D01*
X110039450Y-74108794D01*
X109989657Y-74149657D01*
X109987000Y-74152895D01*
X109984343Y-74149657D01*
X109959006Y-74128864D01*
X112514237Y-71573633D01*
X114256000Y-71573633D01*
X114256000Y-71682367D01*
X114277213Y-71789012D01*
X114318824Y-71889470D01*
X114379234Y-71979880D01*
X114456120Y-72056766D01*
X114546530Y-72117176D01*
X114635001Y-72153822D01*
X114635000Y-72798354D01*
X114633234Y-72800120D01*
X114572824Y-72890530D01*
X114531213Y-72990988D01*
X114510000Y-73097633D01*
X114510000Y-73206367D01*
X114531213Y-73313012D01*
X114572824Y-73413470D01*
X114633234Y-73503880D01*
X114710120Y-73580766D01*
X114800530Y-73641176D01*
X114900988Y-73682787D01*
X115007633Y-73704000D01*
X115116367Y-73704000D01*
X115223012Y-73682787D01*
X115323470Y-73641176D01*
X115413880Y-73580766D01*
X115490766Y-73503880D01*
X115551176Y-73413470D01*
X115592787Y-73313012D01*
X115614000Y-73206367D01*
X115614000Y-73097633D01*
X115592787Y-72990988D01*
X115551176Y-72890530D01*
X115490766Y-72800120D01*
X115489000Y-72798354D01*
X115489000Y-72445643D01*
X116431990Y-72445643D01*
X116431990Y-72554377D01*
X116453203Y-72661022D01*
X116494814Y-72761480D01*
X116555224Y-72851890D01*
X116632110Y-72928776D01*
X116722520Y-72989186D01*
X116822978Y-73030797D01*
X116929623Y-73052010D01*
X117038357Y-73052010D01*
X117145002Y-73030797D01*
X117245460Y-72989186D01*
X117335870Y-72928776D01*
X117337636Y-72927010D01*
X118662344Y-72927010D01*
X118664110Y-72928776D01*
X118754520Y-72989186D01*
X118854978Y-73030797D01*
X118961623Y-73052010D01*
X119070357Y-73052010D01*
X119177002Y-73030797D01*
X119277460Y-72989186D01*
X119367870Y-72928776D01*
X119444756Y-72851890D01*
X119505166Y-72761480D01*
X119546777Y-72661022D01*
X119567990Y-72554377D01*
X119567990Y-72445643D01*
X119546777Y-72338998D01*
X119505166Y-72238540D01*
X119444756Y-72148130D01*
X119367870Y-72071244D01*
X119277460Y-72010834D01*
X119177002Y-71969223D01*
X119070357Y-71948010D01*
X118961623Y-71948010D01*
X118854978Y-71969223D01*
X118754520Y-72010834D01*
X118664110Y-72071244D01*
X118662344Y-72073010D01*
X117337636Y-72073010D01*
X117335870Y-72071244D01*
X117245460Y-72010834D01*
X117145002Y-71969223D01*
X117038357Y-71948010D01*
X116929623Y-71948010D01*
X116822978Y-71969223D01*
X116722520Y-72010834D01*
X116632110Y-72071244D01*
X116555224Y-72148130D01*
X116494814Y-72238540D01*
X116453203Y-72338998D01*
X116431990Y-72445643D01*
X115489000Y-72445643D01*
X115489000Y-71902964D01*
X115491065Y-71881999D01*
X115489000Y-71861034D01*
X115489000Y-71861022D01*
X115482822Y-71798293D01*
X115458405Y-71717804D01*
X115439464Y-71682367D01*
X115418755Y-71643623D01*
X115378768Y-71594899D01*
X115378764Y-71594895D01*
X115365395Y-71578605D01*
X115360000Y-71574177D01*
X115360000Y-71573633D01*
X115338787Y-71466988D01*
X115297176Y-71366530D01*
X115236766Y-71276120D01*
X115159880Y-71199234D01*
X115069470Y-71138824D01*
X114969012Y-71097213D01*
X114862367Y-71076000D01*
X114753633Y-71076000D01*
X114646988Y-71097213D01*
X114546530Y-71138824D01*
X114456120Y-71199234D01*
X114379234Y-71276120D01*
X114318824Y-71366530D01*
X114277213Y-71466988D01*
X114256000Y-71573633D01*
X112514237Y-71573633D01*
X116894872Y-67192999D01*
X117030355Y-67192999D01*
X117032121Y-67194765D01*
X117122531Y-67255175D01*
X117222989Y-67296786D01*
X117329634Y-67317999D01*
X117438368Y-67317999D01*
X117545013Y-67296786D01*
X117645471Y-67255175D01*
X117735881Y-67194765D01*
X117812767Y-67117879D01*
X117873177Y-67027469D01*
X117914788Y-66927011D01*
X117936001Y-66820366D01*
X117936001Y-66711632D01*
X117914788Y-66604987D01*
X117873177Y-66504529D01*
X117812767Y-66414119D01*
X117735881Y-66337233D01*
X117645471Y-66276823D01*
X117545013Y-66235212D01*
X117438368Y-66213999D01*
X117329634Y-66213999D01*
X117222989Y-66235212D01*
X117122531Y-66276823D01*
X117032121Y-66337233D01*
X117030355Y-66338999D01*
X116738967Y-66338999D01*
X116718002Y-66336934D01*
X116697037Y-66338999D01*
X116697025Y-66338999D01*
X116634296Y-66345177D01*
X116553807Y-66369594D01*
X116519276Y-66388051D01*
X116479626Y-66409244D01*
X116430901Y-66449232D01*
X116430898Y-66449235D01*
X116414608Y-66462604D01*
X116401239Y-66478894D01*
X113949337Y-68930796D01*
X113949000Y-68831750D01*
X113852250Y-68735000D01*
X113165000Y-68735000D01*
X113165000Y-68755000D01*
X113159000Y-68755000D01*
X113159000Y-68735000D01*
X113139000Y-68735000D01*
X113139000Y-68729000D01*
X113159000Y-68729000D01*
X113159000Y-67791750D01*
X113165000Y-67791750D01*
X113165000Y-68729000D01*
X113852250Y-68729000D01*
X113949000Y-68632250D01*
X113950873Y-68082000D01*
X113943401Y-68006135D01*
X113921272Y-67933185D01*
X113885336Y-67865954D01*
X113836975Y-67807025D01*
X113778046Y-67758664D01*
X113710815Y-67722728D01*
X113637865Y-67700599D01*
X113562000Y-67693127D01*
X113261750Y-67695000D01*
X113165000Y-67791750D01*
X113159000Y-67791750D01*
X113062250Y-67695000D01*
X112762000Y-67693127D01*
X112686135Y-67700599D01*
X112613185Y-67722728D01*
X112545954Y-67758664D01*
X112487025Y-67807025D01*
X112477113Y-67819104D01*
X112464550Y-67808794D01*
X112407743Y-67778430D01*
X112346103Y-67759732D01*
X112282000Y-67753418D01*
X111482000Y-67753418D01*
X111417897Y-67759732D01*
X111356257Y-67778430D01*
X111299450Y-67808794D01*
X111252000Y-67847734D01*
X111204550Y-67808794D01*
X111147743Y-67778430D01*
X111086103Y-67759732D01*
X111029431Y-67754150D01*
X111018405Y-67717804D01*
X111005215Y-67693127D01*
X110978756Y-67643623D01*
X110938768Y-67594899D01*
X110938764Y-67594895D01*
X110925395Y-67578605D01*
X110909106Y-67565237D01*
X109841767Y-66497899D01*
X109828394Y-66481604D01*
X109763375Y-66428244D01*
X109689195Y-66388594D01*
X109608706Y-66364177D01*
X109545977Y-66357999D01*
X109545966Y-66357999D01*
X109524999Y-66355934D01*
X109504032Y-66357999D01*
X104143956Y-66357999D01*
X104122999Y-66355935D01*
X104102042Y-66357999D01*
X104102022Y-66357999D01*
X104039293Y-66364177D01*
X103958804Y-66388594D01*
X103935961Y-66400804D01*
X103884623Y-66428244D01*
X103835898Y-66468232D01*
X103835895Y-66468235D01*
X103819605Y-66481604D01*
X103806236Y-66497894D01*
X103365393Y-66938737D01*
X103365393Y-66865520D01*
X103312922Y-66601729D01*
X103209996Y-66353244D01*
X103060570Y-66129612D01*
X102870388Y-65939430D01*
X102646756Y-65790004D01*
X102398271Y-65687078D01*
X102134480Y-65634607D01*
X101865520Y-65634607D01*
X101601729Y-65687078D01*
X101353244Y-65790004D01*
X101129612Y-65939430D01*
X100939430Y-66129612D01*
X100790004Y-66353244D01*
X100687078Y-66601729D01*
X100634607Y-66865520D01*
X100352000Y-66865520D01*
X100352000Y-66017216D01*
X100365997Y-65874467D01*
X100402456Y-65753709D01*
X100461675Y-65642333D01*
X100541394Y-65544588D01*
X100638586Y-65464184D01*
X100749545Y-65404189D01*
X100870039Y-65366890D01*
X101011699Y-65352000D01*
X148982784Y-65352000D01*
X149125533Y-65365997D01*
G37*
%TD.AperFunction*%
%TD*%
M02*
