%TF.GenerationSoftware,KiCad,Pcbnew,5.1.9*%
%TF.CreationDate,2021-01-23T11:26:48+01:00*%
%TF.ProjectId,Heart_NE555,48656172-745f-44e4-9535-35352e6b6963,rev?*%
%TF.SameCoordinates,Original*%
%TF.FileFunction,Soldermask,Top*%
%TF.FilePolarity,Negative*%
%FSLAX46Y46*%
G04 Gerber Fmt 4.6, Leading zero omitted, Abs format (unit mm)*
G04 Created by KiCad (PCBNEW 5.1.9) date 2021-01-23 11:26:48*
%MOMM*%
%LPD*%
G01*
G04 APERTURE LIST*
G04 APERTURE END LIST*
%TO.C,D15*%
G36*
G01*
X131975000Y-69200001D02*
X131975000Y-68299999D01*
G75*
G02*
X132224999Y-68050000I249999J0D01*
G01*
X132875001Y-68050000D01*
G75*
G02*
X133125000Y-68299999I0J-249999D01*
G01*
X133125000Y-69200001D01*
G75*
G02*
X132875001Y-69450000I-249999J0D01*
G01*
X132224999Y-69450000D01*
G75*
G02*
X131975000Y-69200001I0J249999D01*
G01*
G37*
G36*
G01*
X129925000Y-69200001D02*
X129925000Y-68299999D01*
G75*
G02*
X130174999Y-68050000I249999J0D01*
G01*
X130825001Y-68050000D01*
G75*
G02*
X131075000Y-68299999I0J-249999D01*
G01*
X131075000Y-69200001D01*
G75*
G02*
X130825001Y-69450000I-249999J0D01*
G01*
X130174999Y-69450000D01*
G75*
G02*
X129925000Y-69200001I0J249999D01*
G01*
G37*
%TD*%
%TO.C,D28*%
G36*
G01*
X121225000Y-97950001D02*
X121225000Y-97049999D01*
G75*
G02*
X121474999Y-96800000I249999J0D01*
G01*
X122125001Y-96800000D01*
G75*
G02*
X122375000Y-97049999I0J-249999D01*
G01*
X122375000Y-97950001D01*
G75*
G02*
X122125001Y-98200000I-249999J0D01*
G01*
X121474999Y-98200000D01*
G75*
G02*
X121225000Y-97950001I0J249999D01*
G01*
G37*
G36*
G01*
X119175000Y-97950001D02*
X119175000Y-97049999D01*
G75*
G02*
X119424999Y-96800000I249999J0D01*
G01*
X120075001Y-96800000D01*
G75*
G02*
X120325000Y-97049999I0J-249999D01*
G01*
X120325000Y-97950001D01*
G75*
G02*
X120075001Y-98200000I-249999J0D01*
G01*
X119424999Y-98200000D01*
G75*
G02*
X119175000Y-97950001I0J249999D01*
G01*
G37*
%TD*%
%TO.C,D27*%
G36*
G01*
X117725000Y-94700001D02*
X117725000Y-93799999D01*
G75*
G02*
X117974999Y-93550000I249999J0D01*
G01*
X118625001Y-93550000D01*
G75*
G02*
X118875000Y-93799999I0J-249999D01*
G01*
X118875000Y-94700001D01*
G75*
G02*
X118625001Y-94950000I-249999J0D01*
G01*
X117974999Y-94950000D01*
G75*
G02*
X117725000Y-94700001I0J249999D01*
G01*
G37*
G36*
G01*
X115675000Y-94700001D02*
X115675000Y-93799999D01*
G75*
G02*
X115924999Y-93550000I249999J0D01*
G01*
X116575001Y-93550000D01*
G75*
G02*
X116825000Y-93799999I0J-249999D01*
G01*
X116825000Y-94700001D01*
G75*
G02*
X116575001Y-94950000I-249999J0D01*
G01*
X115924999Y-94950000D01*
G75*
G02*
X115675000Y-94700001I0J249999D01*
G01*
G37*
%TD*%
%TO.C,D26*%
G36*
G01*
X113975000Y-91450001D02*
X113975000Y-90549999D01*
G75*
G02*
X114224999Y-90300000I249999J0D01*
G01*
X114875001Y-90300000D01*
G75*
G02*
X115125000Y-90549999I0J-249999D01*
G01*
X115125000Y-91450001D01*
G75*
G02*
X114875001Y-91700000I-249999J0D01*
G01*
X114224999Y-91700000D01*
G75*
G02*
X113975000Y-91450001I0J249999D01*
G01*
G37*
G36*
G01*
X111925000Y-91450001D02*
X111925000Y-90549999D01*
G75*
G02*
X112174999Y-90300000I249999J0D01*
G01*
X112825001Y-90300000D01*
G75*
G02*
X113075000Y-90549999I0J-249999D01*
G01*
X113075000Y-91450001D01*
G75*
G02*
X112825001Y-91700000I-249999J0D01*
G01*
X112174999Y-91700000D01*
G75*
G02*
X111925000Y-91450001I0J249999D01*
G01*
G37*
%TD*%
%TO.C,D25*%
G36*
G01*
X110725000Y-88200001D02*
X110725000Y-87299999D01*
G75*
G02*
X110974999Y-87050000I249999J0D01*
G01*
X111625001Y-87050000D01*
G75*
G02*
X111875000Y-87299999I0J-249999D01*
G01*
X111875000Y-88200001D01*
G75*
G02*
X111625001Y-88450000I-249999J0D01*
G01*
X110974999Y-88450000D01*
G75*
G02*
X110725000Y-88200001I0J249999D01*
G01*
G37*
G36*
G01*
X108675000Y-88200001D02*
X108675000Y-87299999D01*
G75*
G02*
X108924999Y-87050000I249999J0D01*
G01*
X109575001Y-87050000D01*
G75*
G02*
X109825000Y-87299999I0J-249999D01*
G01*
X109825000Y-88200001D01*
G75*
G02*
X109575001Y-88450000I-249999J0D01*
G01*
X108924999Y-88450000D01*
G75*
G02*
X108675000Y-88200001I0J249999D01*
G01*
G37*
%TD*%
%TO.C,D24*%
G36*
G01*
X108225000Y-84700001D02*
X108225000Y-83799999D01*
G75*
G02*
X108474999Y-83550000I249999J0D01*
G01*
X109125001Y-83550000D01*
G75*
G02*
X109375000Y-83799999I0J-249999D01*
G01*
X109375000Y-84700001D01*
G75*
G02*
X109125001Y-84950000I-249999J0D01*
G01*
X108474999Y-84950000D01*
G75*
G02*
X108225000Y-84700001I0J249999D01*
G01*
G37*
G36*
G01*
X106175000Y-84700001D02*
X106175000Y-83799999D01*
G75*
G02*
X106424999Y-83550000I249999J0D01*
G01*
X107075001Y-83550000D01*
G75*
G02*
X107325000Y-83799999I0J-249999D01*
G01*
X107325000Y-84700001D01*
G75*
G02*
X107075001Y-84950000I-249999J0D01*
G01*
X106424999Y-84950000D01*
G75*
G02*
X106175000Y-84700001I0J249999D01*
G01*
G37*
%TD*%
%TO.C,D23*%
G36*
G01*
X106725000Y-80200001D02*
X106725000Y-79299999D01*
G75*
G02*
X106974999Y-79050000I249999J0D01*
G01*
X107625001Y-79050000D01*
G75*
G02*
X107875000Y-79299999I0J-249999D01*
G01*
X107875000Y-80200001D01*
G75*
G02*
X107625001Y-80450000I-249999J0D01*
G01*
X106974999Y-80450000D01*
G75*
G02*
X106725000Y-80200001I0J249999D01*
G01*
G37*
G36*
G01*
X104675000Y-80200001D02*
X104675000Y-79299999D01*
G75*
G02*
X104924999Y-79050000I249999J0D01*
G01*
X105575001Y-79050000D01*
G75*
G02*
X105825000Y-79299999I0J-249999D01*
G01*
X105825000Y-80200001D01*
G75*
G02*
X105575001Y-80450000I-249999J0D01*
G01*
X104924999Y-80450000D01*
G75*
G02*
X104675000Y-80200001I0J249999D01*
G01*
G37*
%TD*%
%TO.C,D22*%
G36*
G01*
X106725000Y-75950001D02*
X106725000Y-75049999D01*
G75*
G02*
X106974999Y-74800000I249999J0D01*
G01*
X107625001Y-74800000D01*
G75*
G02*
X107875000Y-75049999I0J-249999D01*
G01*
X107875000Y-75950001D01*
G75*
G02*
X107625001Y-76200000I-249999J0D01*
G01*
X106974999Y-76200000D01*
G75*
G02*
X106725000Y-75950001I0J249999D01*
G01*
G37*
G36*
G01*
X104675000Y-75950001D02*
X104675000Y-75049999D01*
G75*
G02*
X104924999Y-74800000I249999J0D01*
G01*
X105575001Y-74800000D01*
G75*
G02*
X105825000Y-75049999I0J-249999D01*
G01*
X105825000Y-75950001D01*
G75*
G02*
X105575001Y-76200000I-249999J0D01*
G01*
X104924999Y-76200000D01*
G75*
G02*
X104675000Y-75950001I0J249999D01*
G01*
G37*
%TD*%
%TO.C,D21*%
G36*
G01*
X108975000Y-71950001D02*
X108975000Y-71049999D01*
G75*
G02*
X109224999Y-70800000I249999J0D01*
G01*
X109875001Y-70800000D01*
G75*
G02*
X110125000Y-71049999I0J-249999D01*
G01*
X110125000Y-71950001D01*
G75*
G02*
X109875001Y-72200000I-249999J0D01*
G01*
X109224999Y-72200000D01*
G75*
G02*
X108975000Y-71950001I0J249999D01*
G01*
G37*
G36*
G01*
X106925000Y-71950001D02*
X106925000Y-71049999D01*
G75*
G02*
X107174999Y-70800000I249999J0D01*
G01*
X107825001Y-70800000D01*
G75*
G02*
X108075000Y-71049999I0J-249999D01*
G01*
X108075000Y-71950001D01*
G75*
G02*
X107825001Y-72200000I-249999J0D01*
G01*
X107174999Y-72200000D01*
G75*
G02*
X106925000Y-71950001I0J249999D01*
G01*
G37*
%TD*%
%TO.C,D20*%
G36*
G01*
X113225000Y-69700001D02*
X113225000Y-68799999D01*
G75*
G02*
X113474999Y-68550000I249999J0D01*
G01*
X114125001Y-68550000D01*
G75*
G02*
X114375000Y-68799999I0J-249999D01*
G01*
X114375000Y-69700001D01*
G75*
G02*
X114125001Y-69950000I-249999J0D01*
G01*
X113474999Y-69950000D01*
G75*
G02*
X113225000Y-69700001I0J249999D01*
G01*
G37*
G36*
G01*
X111175000Y-69700001D02*
X111175000Y-68799999D01*
G75*
G02*
X111424999Y-68550000I249999J0D01*
G01*
X112075001Y-68550000D01*
G75*
G02*
X112325000Y-68799999I0J-249999D01*
G01*
X112325000Y-69700001D01*
G75*
G02*
X112075001Y-69950000I-249999J0D01*
G01*
X111424999Y-69950000D01*
G75*
G02*
X111175000Y-69700001I0J249999D01*
G01*
G37*
%TD*%
%TO.C,D19*%
G36*
G01*
X118975000Y-69200001D02*
X118975000Y-68299999D01*
G75*
G02*
X119224999Y-68050000I249999J0D01*
G01*
X119875001Y-68050000D01*
G75*
G02*
X120125000Y-68299999I0J-249999D01*
G01*
X120125000Y-69200001D01*
G75*
G02*
X119875001Y-69450000I-249999J0D01*
G01*
X119224999Y-69450000D01*
G75*
G02*
X118975000Y-69200001I0J249999D01*
G01*
G37*
G36*
G01*
X116925000Y-69200001D02*
X116925000Y-68299999D01*
G75*
G02*
X117174999Y-68050000I249999J0D01*
G01*
X117825001Y-68050000D01*
G75*
G02*
X118075000Y-68299999I0J-249999D01*
G01*
X118075000Y-69200001D01*
G75*
G02*
X117825001Y-69450000I-249999J0D01*
G01*
X117174999Y-69450000D01*
G75*
G02*
X116925000Y-69200001I0J249999D01*
G01*
G37*
%TD*%
%TO.C,D18*%
G36*
G01*
X122975000Y-71950001D02*
X122975000Y-71049999D01*
G75*
G02*
X123224999Y-70800000I249999J0D01*
G01*
X123875001Y-70800000D01*
G75*
G02*
X124125000Y-71049999I0J-249999D01*
G01*
X124125000Y-71950001D01*
G75*
G02*
X123875001Y-72200000I-249999J0D01*
G01*
X123224999Y-72200000D01*
G75*
G02*
X122975000Y-71950001I0J249999D01*
G01*
G37*
G36*
G01*
X120925000Y-71950001D02*
X120925000Y-71049999D01*
G75*
G02*
X121174999Y-70800000I249999J0D01*
G01*
X121825001Y-70800000D01*
G75*
G02*
X122075000Y-71049999I0J-249999D01*
G01*
X122075000Y-71950001D01*
G75*
G02*
X121825001Y-72200000I-249999J0D01*
G01*
X121174999Y-72200000D01*
G75*
G02*
X120925000Y-71950001I0J249999D01*
G01*
G37*
%TD*%
%TO.C,D17*%
G36*
G01*
X125200000Y-75450001D02*
X125200000Y-74549999D01*
G75*
G02*
X125449999Y-74300000I249999J0D01*
G01*
X126100001Y-74300000D01*
G75*
G02*
X126350000Y-74549999I0J-249999D01*
G01*
X126350000Y-75450001D01*
G75*
G02*
X126100001Y-75700000I-249999J0D01*
G01*
X125449999Y-75700000D01*
G75*
G02*
X125200000Y-75450001I0J249999D01*
G01*
G37*
G36*
G01*
X123150000Y-75450001D02*
X123150000Y-74549999D01*
G75*
G02*
X123399999Y-74300000I249999J0D01*
G01*
X124050001Y-74300000D01*
G75*
G02*
X124300000Y-74549999I0J-249999D01*
G01*
X124300000Y-75450001D01*
G75*
G02*
X124050001Y-75700000I-249999J0D01*
G01*
X123399999Y-75700000D01*
G75*
G02*
X123150000Y-75450001I0J249999D01*
G01*
G37*
%TD*%
%TO.C,D16*%
G36*
G01*
X127975000Y-71950001D02*
X127975000Y-71049999D01*
G75*
G02*
X128224999Y-70800000I249999J0D01*
G01*
X128875001Y-70800000D01*
G75*
G02*
X129125000Y-71049999I0J-249999D01*
G01*
X129125000Y-71950001D01*
G75*
G02*
X128875001Y-72200000I-249999J0D01*
G01*
X128224999Y-72200000D01*
G75*
G02*
X127975000Y-71950001I0J249999D01*
G01*
G37*
G36*
G01*
X125925000Y-71950001D02*
X125925000Y-71049999D01*
G75*
G02*
X126174999Y-70800000I249999J0D01*
G01*
X126825001Y-70800000D01*
G75*
G02*
X127075000Y-71049999I0J-249999D01*
G01*
X127075000Y-71950001D01*
G75*
G02*
X126825001Y-72200000I-249999J0D01*
G01*
X126174999Y-72200000D01*
G75*
G02*
X125925000Y-71950001I0J249999D01*
G01*
G37*
%TD*%
%TO.C,D14*%
G36*
G01*
X137725000Y-69200001D02*
X137725000Y-68299999D01*
G75*
G02*
X137974999Y-68050000I249999J0D01*
G01*
X138625001Y-68050000D01*
G75*
G02*
X138875000Y-68299999I0J-249999D01*
G01*
X138875000Y-69200001D01*
G75*
G02*
X138625001Y-69450000I-249999J0D01*
G01*
X137974999Y-69450000D01*
G75*
G02*
X137725000Y-69200001I0J249999D01*
G01*
G37*
G36*
G01*
X135675000Y-69200001D02*
X135675000Y-68299999D01*
G75*
G02*
X135924999Y-68050000I249999J0D01*
G01*
X136575001Y-68050000D01*
G75*
G02*
X136825000Y-68299999I0J-249999D01*
G01*
X136825000Y-69200001D01*
G75*
G02*
X136575001Y-69450000I-249999J0D01*
G01*
X135924999Y-69450000D01*
G75*
G02*
X135675000Y-69200001I0J249999D01*
G01*
G37*
%TD*%
%TO.C,D13*%
G36*
G01*
X141950000Y-72200001D02*
X141950000Y-71299999D01*
G75*
G02*
X142199999Y-71050000I249999J0D01*
G01*
X142850001Y-71050000D01*
G75*
G02*
X143100000Y-71299999I0J-249999D01*
G01*
X143100000Y-72200001D01*
G75*
G02*
X142850001Y-72450000I-249999J0D01*
G01*
X142199999Y-72450000D01*
G75*
G02*
X141950000Y-72200001I0J249999D01*
G01*
G37*
G36*
G01*
X139900000Y-72200001D02*
X139900000Y-71299999D01*
G75*
G02*
X140149999Y-71050000I249999J0D01*
G01*
X140800001Y-71050000D01*
G75*
G02*
X141050000Y-71299999I0J-249999D01*
G01*
X141050000Y-72200001D01*
G75*
G02*
X140800001Y-72450000I-249999J0D01*
G01*
X140149999Y-72450000D01*
G75*
G02*
X139900000Y-72200001I0J249999D01*
G01*
G37*
%TD*%
%TO.C,D12*%
G36*
G01*
X143950000Y-75950001D02*
X143950000Y-75049999D01*
G75*
G02*
X144199999Y-74800000I249999J0D01*
G01*
X144850001Y-74800000D01*
G75*
G02*
X145100000Y-75049999I0J-249999D01*
G01*
X145100000Y-75950001D01*
G75*
G02*
X144850001Y-76200000I-249999J0D01*
G01*
X144199999Y-76200000D01*
G75*
G02*
X143950000Y-75950001I0J249999D01*
G01*
G37*
G36*
G01*
X141900000Y-75950001D02*
X141900000Y-75049999D01*
G75*
G02*
X142149999Y-74800000I249999J0D01*
G01*
X142800001Y-74800000D01*
G75*
G02*
X143050000Y-75049999I0J-249999D01*
G01*
X143050000Y-75950001D01*
G75*
G02*
X142800001Y-76200000I-249999J0D01*
G01*
X142149999Y-76200000D01*
G75*
G02*
X141900000Y-75950001I0J249999D01*
G01*
G37*
%TD*%
%TO.C,D11*%
G36*
G01*
X144225000Y-80200001D02*
X144225000Y-79299999D01*
G75*
G02*
X144474999Y-79050000I249999J0D01*
G01*
X145125001Y-79050000D01*
G75*
G02*
X145375000Y-79299999I0J-249999D01*
G01*
X145375000Y-80200001D01*
G75*
G02*
X145125001Y-80450000I-249999J0D01*
G01*
X144474999Y-80450000D01*
G75*
G02*
X144225000Y-80200001I0J249999D01*
G01*
G37*
G36*
G01*
X142175000Y-80200001D02*
X142175000Y-79299999D01*
G75*
G02*
X142424999Y-79050000I249999J0D01*
G01*
X143075001Y-79050000D01*
G75*
G02*
X143325000Y-79299999I0J-249999D01*
G01*
X143325000Y-80200001D01*
G75*
G02*
X143075001Y-80450000I-249999J0D01*
G01*
X142424999Y-80450000D01*
G75*
G02*
X142175000Y-80200001I0J249999D01*
G01*
G37*
%TD*%
%TO.C,D10*%
G36*
G01*
X142725000Y-84700001D02*
X142725000Y-83799999D01*
G75*
G02*
X142974999Y-83550000I249999J0D01*
G01*
X143625001Y-83550000D01*
G75*
G02*
X143875000Y-83799999I0J-249999D01*
G01*
X143875000Y-84700001D01*
G75*
G02*
X143625001Y-84950000I-249999J0D01*
G01*
X142974999Y-84950000D01*
G75*
G02*
X142725000Y-84700001I0J249999D01*
G01*
G37*
G36*
G01*
X140675000Y-84700001D02*
X140675000Y-83799999D01*
G75*
G02*
X140924999Y-83550000I249999J0D01*
G01*
X141575001Y-83550000D01*
G75*
G02*
X141825000Y-83799999I0J-249999D01*
G01*
X141825000Y-84700001D01*
G75*
G02*
X141575001Y-84950000I-249999J0D01*
G01*
X140924999Y-84950000D01*
G75*
G02*
X140675000Y-84700001I0J249999D01*
G01*
G37*
%TD*%
%TO.C,D9*%
G36*
G01*
X139675000Y-88200001D02*
X139675000Y-87299999D01*
G75*
G02*
X139924999Y-87050000I249999J0D01*
G01*
X140575001Y-87050000D01*
G75*
G02*
X140825000Y-87299999I0J-249999D01*
G01*
X140825000Y-88200001D01*
G75*
G02*
X140575001Y-88450000I-249999J0D01*
G01*
X139924999Y-88450000D01*
G75*
G02*
X139675000Y-88200001I0J249999D01*
G01*
G37*
G36*
G01*
X137625000Y-88200001D02*
X137625000Y-87299999D01*
G75*
G02*
X137874999Y-87050000I249999J0D01*
G01*
X138525001Y-87050000D01*
G75*
G02*
X138775000Y-87299999I0J-249999D01*
G01*
X138775000Y-88200001D01*
G75*
G02*
X138525001Y-88450000I-249999J0D01*
G01*
X137874999Y-88450000D01*
G75*
G02*
X137625000Y-88200001I0J249999D01*
G01*
G37*
%TD*%
%TO.C,D8*%
G36*
G01*
X136925000Y-91450001D02*
X136925000Y-90549999D01*
G75*
G02*
X137174999Y-90300000I249999J0D01*
G01*
X137825001Y-90300000D01*
G75*
G02*
X138075000Y-90549999I0J-249999D01*
G01*
X138075000Y-91450001D01*
G75*
G02*
X137825001Y-91700000I-249999J0D01*
G01*
X137174999Y-91700000D01*
G75*
G02*
X136925000Y-91450001I0J249999D01*
G01*
G37*
G36*
G01*
X134875000Y-91450001D02*
X134875000Y-90549999D01*
G75*
G02*
X135124999Y-90300000I249999J0D01*
G01*
X135775001Y-90300000D01*
G75*
G02*
X136025000Y-90549999I0J-249999D01*
G01*
X136025000Y-91450001D01*
G75*
G02*
X135775001Y-91700000I-249999J0D01*
G01*
X135124999Y-91700000D01*
G75*
G02*
X134875000Y-91450001I0J249999D01*
G01*
G37*
%TD*%
%TO.C,D7*%
G36*
G01*
X132925000Y-94700001D02*
X132925000Y-93799999D01*
G75*
G02*
X133174999Y-93550000I249999J0D01*
G01*
X133825001Y-93550000D01*
G75*
G02*
X134075000Y-93799999I0J-249999D01*
G01*
X134075000Y-94700001D01*
G75*
G02*
X133825001Y-94950000I-249999J0D01*
G01*
X133174999Y-94950000D01*
G75*
G02*
X132925000Y-94700001I0J249999D01*
G01*
G37*
G36*
G01*
X130875000Y-94700001D02*
X130875000Y-93799999D01*
G75*
G02*
X131124999Y-93550000I249999J0D01*
G01*
X131775001Y-93550000D01*
G75*
G02*
X132025000Y-93799999I0J-249999D01*
G01*
X132025000Y-94700001D01*
G75*
G02*
X131775001Y-94950000I-249999J0D01*
G01*
X131124999Y-94950000D01*
G75*
G02*
X130875000Y-94700001I0J249999D01*
G01*
G37*
%TD*%
%TO.C,D6*%
G36*
G01*
X129450000Y-97950001D02*
X129450000Y-97049999D01*
G75*
G02*
X129699999Y-96800000I249999J0D01*
G01*
X130350001Y-96800000D01*
G75*
G02*
X130600000Y-97049999I0J-249999D01*
G01*
X130600000Y-97950001D01*
G75*
G02*
X130350001Y-98200000I-249999J0D01*
G01*
X129699999Y-98200000D01*
G75*
G02*
X129450000Y-97950001I0J249999D01*
G01*
G37*
G36*
G01*
X127400000Y-97950001D02*
X127400000Y-97049999D01*
G75*
G02*
X127649999Y-96800000I249999J0D01*
G01*
X128300001Y-96800000D01*
G75*
G02*
X128550000Y-97049999I0J-249999D01*
G01*
X128550000Y-97950001D01*
G75*
G02*
X128300001Y-98200000I-249999J0D01*
G01*
X127649999Y-98200000D01*
G75*
G02*
X127400000Y-97950001I0J249999D01*
G01*
G37*
%TD*%
%TO.C,D5*%
G36*
G01*
X125475000Y-100700001D02*
X125475000Y-99799999D01*
G75*
G02*
X125724999Y-99550000I249999J0D01*
G01*
X126375001Y-99550000D01*
G75*
G02*
X126625000Y-99799999I0J-249999D01*
G01*
X126625000Y-100700001D01*
G75*
G02*
X126375001Y-100950000I-249999J0D01*
G01*
X125724999Y-100950000D01*
G75*
G02*
X125475000Y-100700001I0J249999D01*
G01*
G37*
G36*
G01*
X123425000Y-100700001D02*
X123425000Y-99799999D01*
G75*
G02*
X123674999Y-99550000I249999J0D01*
G01*
X124325001Y-99550000D01*
G75*
G02*
X124575000Y-99799999I0J-249999D01*
G01*
X124575000Y-100700001D01*
G75*
G02*
X124325001Y-100950000I-249999J0D01*
G01*
X123674999Y-100950000D01*
G75*
G02*
X123425000Y-100700001I0J249999D01*
G01*
G37*
%TD*%
M02*
