%TF.GenerationSoftware,KiCad,Pcbnew,5.1.10*%
%TF.CreationDate,2021-05-22T09:13:01+02:00*%
%TF.ProjectId,Heart_NE555,48656172-745f-44e4-9535-35352e6b6963,rev?*%
%TF.SameCoordinates,Original*%
%TF.FileFunction,Soldermask,Bot*%
%TF.FilePolarity,Negative*%
%FSLAX46Y46*%
G04 Gerber Fmt 4.6, Leading zero omitted, Abs format (unit mm)*
G04 Created by KiCad (PCBNEW 5.1.10) date 2021-05-22 09:13:01*
%MOMM*%
%LPD*%
G01*
G04 APERTURE LIST*
%ADD10C,0.010000*%
%ADD11R,2.600000X3.600000*%
%ADD12R,0.900000X1.200000*%
%ADD13R,0.800000X1.300000*%
G04 APERTURE END LIST*
D10*
%TO.C,Ref\u002A\u002A*%
G36*
X143180364Y-90666387D02*
G01*
X143539857Y-90764986D01*
X143878729Y-90936285D01*
X144210040Y-91185607D01*
X144269962Y-91239255D01*
X144541915Y-91488450D01*
X144825116Y-91232851D01*
X145160232Y-90970342D01*
X145500931Y-90786964D01*
X145860106Y-90677499D01*
X146250651Y-90636727D01*
X146299167Y-90636204D01*
X146703089Y-90669542D01*
X147065717Y-90773952D01*
X147397399Y-90953718D01*
X147708483Y-91213127D01*
X147720046Y-91224621D01*
X147978001Y-91527892D01*
X148158501Y-91849408D01*
X148266792Y-92202019D01*
X148308123Y-92598574D01*
X148308872Y-92666667D01*
X148290778Y-92996625D01*
X148233378Y-93308296D01*
X148131598Y-93610855D01*
X147980361Y-93913478D01*
X147774592Y-94225342D01*
X147509216Y-94555623D01*
X147179158Y-94913498D01*
X146926179Y-95166578D01*
X146762777Y-95322136D01*
X146564761Y-95504451D01*
X146340686Y-95706216D01*
X146099109Y-95920125D01*
X145848585Y-96138870D01*
X145597668Y-96355145D01*
X145354915Y-96561643D01*
X145128879Y-96751057D01*
X144928118Y-96916080D01*
X144761185Y-97049404D01*
X144636638Y-97143724D01*
X144563029Y-97191733D01*
X144549625Y-97196334D01*
X144506228Y-97170219D01*
X144406936Y-97096546D01*
X144260592Y-96982323D01*
X144076042Y-96834556D01*
X143862128Y-96660253D01*
X143627695Y-96466421D01*
X143614003Y-96455018D01*
X143086925Y-96008975D01*
X142626761Y-95603957D01*
X142229315Y-95235030D01*
X141890391Y-94897264D01*
X141605795Y-94585726D01*
X141371330Y-94295485D01*
X141182800Y-94021608D01*
X141036011Y-93759165D01*
X140926767Y-93503224D01*
X140850871Y-93248853D01*
X140838130Y-93192127D01*
X140780209Y-92744094D01*
X140802012Y-92323904D01*
X140903410Y-91932083D01*
X141084269Y-91569156D01*
X141320493Y-91261491D01*
X141611696Y-91004258D01*
X141951891Y-90810830D01*
X142329007Y-90686363D01*
X142730977Y-90636009D01*
X142787189Y-90635169D01*
X143180364Y-90666387D01*
G37*
X143180364Y-90666387D02*
X143539857Y-90764986D01*
X143878729Y-90936285D01*
X144210040Y-91185607D01*
X144269962Y-91239255D01*
X144541915Y-91488450D01*
X144825116Y-91232851D01*
X145160232Y-90970342D01*
X145500931Y-90786964D01*
X145860106Y-90677499D01*
X146250651Y-90636727D01*
X146299167Y-90636204D01*
X146703089Y-90669542D01*
X147065717Y-90773952D01*
X147397399Y-90953718D01*
X147708483Y-91213127D01*
X147720046Y-91224621D01*
X147978001Y-91527892D01*
X148158501Y-91849408D01*
X148266792Y-92202019D01*
X148308123Y-92598574D01*
X148308872Y-92666667D01*
X148290778Y-92996625D01*
X148233378Y-93308296D01*
X148131598Y-93610855D01*
X147980361Y-93913478D01*
X147774592Y-94225342D01*
X147509216Y-94555623D01*
X147179158Y-94913498D01*
X146926179Y-95166578D01*
X146762777Y-95322136D01*
X146564761Y-95504451D01*
X146340686Y-95706216D01*
X146099109Y-95920125D01*
X145848585Y-96138870D01*
X145597668Y-96355145D01*
X145354915Y-96561643D01*
X145128879Y-96751057D01*
X144928118Y-96916080D01*
X144761185Y-97049404D01*
X144636638Y-97143724D01*
X144563029Y-97191733D01*
X144549625Y-97196334D01*
X144506228Y-97170219D01*
X144406936Y-97096546D01*
X144260592Y-96982323D01*
X144076042Y-96834556D01*
X143862128Y-96660253D01*
X143627695Y-96466421D01*
X143614003Y-96455018D01*
X143086925Y-96008975D01*
X142626761Y-95603957D01*
X142229315Y-95235030D01*
X141890391Y-94897264D01*
X141605795Y-94585726D01*
X141371330Y-94295485D01*
X141182800Y-94021608D01*
X141036011Y-93759165D01*
X140926767Y-93503224D01*
X140850871Y-93248853D01*
X140838130Y-93192127D01*
X140780209Y-92744094D01*
X140802012Y-92323904D01*
X140903410Y-91932083D01*
X141084269Y-91569156D01*
X141320493Y-91261491D01*
X141611696Y-91004258D01*
X141951891Y-90810830D01*
X142329007Y-90686363D01*
X142730977Y-90636009D01*
X142787189Y-90635169D01*
X143180364Y-90666387D01*
%TD*%
D11*
%TO.C,BT1*%
X110350000Y-86000000D03*
X139650000Y-86000000D03*
%TD*%
%TO.C,SW1*%
G36*
G01*
X112000000Y-101500000D02*
X112000000Y-100500000D01*
G75*
G02*
X112500000Y-100000000I500000J0D01*
G01*
X115500000Y-100000000D01*
G75*
G02*
X116000000Y-100500000I0J-500000D01*
G01*
X116000000Y-101500000D01*
G75*
G02*
X115500000Y-102000000I-500000J0D01*
G01*
X112500000Y-102000000D01*
G75*
G02*
X112000000Y-101500000I0J500000D01*
G01*
G37*
G36*
G01*
X134000000Y-101500000D02*
X134000000Y-100500000D01*
G75*
G02*
X134500000Y-100000000I500000J0D01*
G01*
X137500000Y-100000000D01*
G75*
G02*
X138000000Y-100500000I0J-500000D01*
G01*
X138000000Y-101500000D01*
G75*
G02*
X137500000Y-102000000I-500000J0D01*
G01*
X134500000Y-102000000D01*
G75*
G02*
X134000000Y-101500000I0J500000D01*
G01*
G37*
%TD*%
D12*
%TO.C,D3*%
X141604000Y-78994000D03*
X138304000Y-78994000D03*
%TD*%
%TO.C,D2*%
X111632000Y-78994000D03*
X108332000Y-78994000D03*
%TD*%
%TO.C,D1*%
X106044000Y-78994000D03*
X102744000Y-78994000D03*
%TD*%
%TO.C,D4*%
X146684000Y-78994000D03*
X143384000Y-78994000D03*
%TD*%
D13*
%TO.C,U4*%
X104262000Y-75032000D03*
X105542000Y-75032000D03*
X106802000Y-75032000D03*
X108072000Y-75032000D03*
X109352000Y-75032000D03*
X110622000Y-75032000D03*
X111882000Y-75032000D03*
X113162000Y-75032000D03*
X113162000Y-68732000D03*
X111882000Y-68732000D03*
X110622000Y-68732000D03*
X109352000Y-68732000D03*
X108072000Y-68732000D03*
X106802000Y-68732000D03*
X105542000Y-68732000D03*
X104262000Y-68732000D03*
%TD*%
%TO.C,U3*%
X120264000Y-74016000D03*
X121544000Y-74016000D03*
X122804000Y-74016000D03*
X124074000Y-74016000D03*
X125354000Y-74016000D03*
X126624000Y-74016000D03*
X127884000Y-74016000D03*
X129164000Y-74016000D03*
X129164000Y-67716000D03*
X127884000Y-67716000D03*
X126624000Y-67716000D03*
X125354000Y-67716000D03*
X124074000Y-67716000D03*
X122804000Y-67716000D03*
X121544000Y-67716000D03*
X120264000Y-67716000D03*
%TD*%
%TO.C,U2*%
X135504000Y-75286000D03*
X136784000Y-75286000D03*
X138044000Y-75286000D03*
X139314000Y-75286000D03*
X140594000Y-75286000D03*
X141864000Y-75286000D03*
X143124000Y-75286000D03*
X144404000Y-75286000D03*
X144404000Y-68986000D03*
X143124000Y-68986000D03*
X141864000Y-68986000D03*
X140594000Y-68986000D03*
X139314000Y-68986000D03*
X138044000Y-68986000D03*
X136784000Y-68986000D03*
X135504000Y-68986000D03*
%TD*%
%TO.C,U1*%
G36*
G01*
X108942000Y-95527000D02*
X108942000Y-95227000D01*
G75*
G02*
X109092000Y-95077000I150000J0D01*
G01*
X110742000Y-95077000D01*
G75*
G02*
X110892000Y-95227000I0J-150000D01*
G01*
X110892000Y-95527000D01*
G75*
G02*
X110742000Y-95677000I-150000J0D01*
G01*
X109092000Y-95677000D01*
G75*
G02*
X108942000Y-95527000I0J150000D01*
G01*
G37*
G36*
G01*
X108942000Y-94257000D02*
X108942000Y-93957000D01*
G75*
G02*
X109092000Y-93807000I150000J0D01*
G01*
X110742000Y-93807000D01*
G75*
G02*
X110892000Y-93957000I0J-150000D01*
G01*
X110892000Y-94257000D01*
G75*
G02*
X110742000Y-94407000I-150000J0D01*
G01*
X109092000Y-94407000D01*
G75*
G02*
X108942000Y-94257000I0J150000D01*
G01*
G37*
G36*
G01*
X108942000Y-92987000D02*
X108942000Y-92687000D01*
G75*
G02*
X109092000Y-92537000I150000J0D01*
G01*
X110742000Y-92537000D01*
G75*
G02*
X110892000Y-92687000I0J-150000D01*
G01*
X110892000Y-92987000D01*
G75*
G02*
X110742000Y-93137000I-150000J0D01*
G01*
X109092000Y-93137000D01*
G75*
G02*
X108942000Y-92987000I0J150000D01*
G01*
G37*
G36*
G01*
X108942000Y-91717000D02*
X108942000Y-91417000D01*
G75*
G02*
X109092000Y-91267000I150000J0D01*
G01*
X110742000Y-91267000D01*
G75*
G02*
X110892000Y-91417000I0J-150000D01*
G01*
X110892000Y-91717000D01*
G75*
G02*
X110742000Y-91867000I-150000J0D01*
G01*
X109092000Y-91867000D01*
G75*
G02*
X108942000Y-91717000I0J150000D01*
G01*
G37*
G36*
G01*
X103992000Y-91717000D02*
X103992000Y-91417000D01*
G75*
G02*
X104142000Y-91267000I150000J0D01*
G01*
X105792000Y-91267000D01*
G75*
G02*
X105942000Y-91417000I0J-150000D01*
G01*
X105942000Y-91717000D01*
G75*
G02*
X105792000Y-91867000I-150000J0D01*
G01*
X104142000Y-91867000D01*
G75*
G02*
X103992000Y-91717000I0J150000D01*
G01*
G37*
G36*
G01*
X103992000Y-92987000D02*
X103992000Y-92687000D01*
G75*
G02*
X104142000Y-92537000I150000J0D01*
G01*
X105792000Y-92537000D01*
G75*
G02*
X105942000Y-92687000I0J-150000D01*
G01*
X105942000Y-92987000D01*
G75*
G02*
X105792000Y-93137000I-150000J0D01*
G01*
X104142000Y-93137000D01*
G75*
G02*
X103992000Y-92987000I0J150000D01*
G01*
G37*
G36*
G01*
X103992000Y-94257000D02*
X103992000Y-93957000D01*
G75*
G02*
X104142000Y-93807000I150000J0D01*
G01*
X105792000Y-93807000D01*
G75*
G02*
X105942000Y-93957000I0J-150000D01*
G01*
X105942000Y-94257000D01*
G75*
G02*
X105792000Y-94407000I-150000J0D01*
G01*
X104142000Y-94407000D01*
G75*
G02*
X103992000Y-94257000I0J150000D01*
G01*
G37*
G36*
G01*
X103992000Y-95527000D02*
X103992000Y-95227000D01*
G75*
G02*
X104142000Y-95077000I150000J0D01*
G01*
X105792000Y-95077000D01*
G75*
G02*
X105942000Y-95227000I0J-150000D01*
G01*
X105942000Y-95527000D01*
G75*
G02*
X105792000Y-95677000I-150000J0D01*
G01*
X104142000Y-95677000D01*
G75*
G02*
X103992000Y-95527000I0J150000D01*
G01*
G37*
%TD*%
%TO.C,R5*%
G36*
G01*
X144700001Y-100600000D02*
X143799999Y-100600000D01*
G75*
G02*
X143550000Y-100350001I0J249999D01*
G01*
X143550000Y-99649999D01*
G75*
G02*
X143799999Y-99400000I249999J0D01*
G01*
X144700001Y-99400000D01*
G75*
G02*
X144950000Y-99649999I0J-249999D01*
G01*
X144950000Y-100350001D01*
G75*
G02*
X144700001Y-100600000I-249999J0D01*
G01*
G37*
G36*
G01*
X144700001Y-102600000D02*
X143799999Y-102600000D01*
G75*
G02*
X143550000Y-102350001I0J249999D01*
G01*
X143550000Y-101649999D01*
G75*
G02*
X143799999Y-101400000I249999J0D01*
G01*
X144700001Y-101400000D01*
G75*
G02*
X144950000Y-101649999I0J-249999D01*
G01*
X144950000Y-102350001D01*
G75*
G02*
X144700001Y-102600000I-249999J0D01*
G01*
G37*
%TD*%
%TO.C,R4*%
G36*
G01*
X145434000Y-84270001D02*
X145434000Y-83369999D01*
G75*
G02*
X145683999Y-83120000I249999J0D01*
G01*
X146384001Y-83120000D01*
G75*
G02*
X146634000Y-83369999I0J-249999D01*
G01*
X146634000Y-84270001D01*
G75*
G02*
X146384001Y-84520000I-249999J0D01*
G01*
X145683999Y-84520000D01*
G75*
G02*
X145434000Y-84270001I0J249999D01*
G01*
G37*
G36*
G01*
X143434000Y-84270001D02*
X143434000Y-83369999D01*
G75*
G02*
X143683999Y-83120000I249999J0D01*
G01*
X144384001Y-83120000D01*
G75*
G02*
X144634000Y-83369999I0J-249999D01*
G01*
X144634000Y-84270001D01*
G75*
G02*
X144384001Y-84520000I-249999J0D01*
G01*
X143683999Y-84520000D01*
G75*
G02*
X143434000Y-84270001I0J249999D01*
G01*
G37*
%TD*%
%TO.C,R3*%
G36*
G01*
X104794000Y-84270001D02*
X104794000Y-83369999D01*
G75*
G02*
X105043999Y-83120000I249999J0D01*
G01*
X105744001Y-83120000D01*
G75*
G02*
X105994000Y-83369999I0J-249999D01*
G01*
X105994000Y-84270001D01*
G75*
G02*
X105744001Y-84520000I-249999J0D01*
G01*
X105043999Y-84520000D01*
G75*
G02*
X104794000Y-84270001I0J249999D01*
G01*
G37*
G36*
G01*
X102794000Y-84270001D02*
X102794000Y-83369999D01*
G75*
G02*
X103043999Y-83120000I249999J0D01*
G01*
X103744001Y-83120000D01*
G75*
G02*
X103994000Y-83369999I0J-249999D01*
G01*
X103994000Y-84270001D01*
G75*
G02*
X103744001Y-84520000I-249999J0D01*
G01*
X103043999Y-84520000D01*
G75*
G02*
X102794000Y-84270001I0J249999D01*
G01*
G37*
%TD*%
%TO.C,R2*%
G36*
G01*
X114954000Y-96716001D02*
X114954000Y-95815999D01*
G75*
G02*
X115203999Y-95566000I249999J0D01*
G01*
X115904001Y-95566000D01*
G75*
G02*
X116154000Y-95815999I0J-249999D01*
G01*
X116154000Y-96716001D01*
G75*
G02*
X115904001Y-96966000I-249999J0D01*
G01*
X115203999Y-96966000D01*
G75*
G02*
X114954000Y-96716001I0J249999D01*
G01*
G37*
G36*
G01*
X112954000Y-96716001D02*
X112954000Y-95815999D01*
G75*
G02*
X113203999Y-95566000I249999J0D01*
G01*
X113904001Y-95566000D01*
G75*
G02*
X114154000Y-95815999I0J-249999D01*
G01*
X114154000Y-96716001D01*
G75*
G02*
X113904001Y-96966000I-249999J0D01*
G01*
X113203999Y-96966000D01*
G75*
G02*
X112954000Y-96716001I0J249999D01*
G01*
G37*
%TD*%
%TO.C,R1*%
G36*
G01*
X107638001Y-100692000D02*
X106737999Y-100692000D01*
G75*
G02*
X106488000Y-100442001I0J249999D01*
G01*
X106488000Y-99741999D01*
G75*
G02*
X106737999Y-99492000I249999J0D01*
G01*
X107638001Y-99492000D01*
G75*
G02*
X107888000Y-99741999I0J-249999D01*
G01*
X107888000Y-100442001D01*
G75*
G02*
X107638001Y-100692000I-249999J0D01*
G01*
G37*
G36*
G01*
X107638001Y-102692000D02*
X106737999Y-102692000D01*
G75*
G02*
X106488000Y-102442001I0J249999D01*
G01*
X106488000Y-101741999D01*
G75*
G02*
X106737999Y-101492000I249999J0D01*
G01*
X107638001Y-101492000D01*
G75*
G02*
X107888000Y-101741999I0J-249999D01*
G01*
X107888000Y-102442001D01*
G75*
G02*
X107638001Y-102692000I-249999J0D01*
G01*
G37*
%TD*%
%TO.C,C3*%
G36*
G01*
X103091000Y-98356000D02*
X102141000Y-98356000D01*
G75*
G02*
X101891000Y-98106000I0J250000D01*
G01*
X101891000Y-97431000D01*
G75*
G02*
X102141000Y-97181000I250000J0D01*
G01*
X103091000Y-97181000D01*
G75*
G02*
X103341000Y-97431000I0J-250000D01*
G01*
X103341000Y-98106000D01*
G75*
G02*
X103091000Y-98356000I-250000J0D01*
G01*
G37*
G36*
G01*
X103091000Y-100431000D02*
X102141000Y-100431000D01*
G75*
G02*
X101891000Y-100181000I0J250000D01*
G01*
X101891000Y-99506000D01*
G75*
G02*
X102141000Y-99256000I250000J0D01*
G01*
X103091000Y-99256000D01*
G75*
G02*
X103341000Y-99506000I0J-250000D01*
G01*
X103341000Y-100181000D01*
G75*
G02*
X103091000Y-100431000I-250000J0D01*
G01*
G37*
%TD*%
%TO.C,C2*%
G36*
G01*
X106901000Y-87942000D02*
X105951000Y-87942000D01*
G75*
G02*
X105701000Y-87692000I0J250000D01*
G01*
X105701000Y-87017000D01*
G75*
G02*
X105951000Y-86767000I250000J0D01*
G01*
X106901000Y-86767000D01*
G75*
G02*
X107151000Y-87017000I0J-250000D01*
G01*
X107151000Y-87692000D01*
G75*
G02*
X106901000Y-87942000I-250000J0D01*
G01*
G37*
G36*
G01*
X106901000Y-90017000D02*
X105951000Y-90017000D01*
G75*
G02*
X105701000Y-89767000I0J250000D01*
G01*
X105701000Y-89092000D01*
G75*
G02*
X105951000Y-88842000I250000J0D01*
G01*
X106901000Y-88842000D01*
G75*
G02*
X107151000Y-89092000I0J-250000D01*
G01*
X107151000Y-89767000D01*
G75*
G02*
X106901000Y-90017000I-250000J0D01*
G01*
G37*
%TD*%
%TO.C,C1*%
G36*
G01*
X102583000Y-87942000D02*
X101633000Y-87942000D01*
G75*
G02*
X101383000Y-87692000I0J250000D01*
G01*
X101383000Y-87017000D01*
G75*
G02*
X101633000Y-86767000I250000J0D01*
G01*
X102583000Y-86767000D01*
G75*
G02*
X102833000Y-87017000I0J-250000D01*
G01*
X102833000Y-87692000D01*
G75*
G02*
X102583000Y-87942000I-250000J0D01*
G01*
G37*
G36*
G01*
X102583000Y-90017000D02*
X101633000Y-90017000D01*
G75*
G02*
X101383000Y-89767000I0J250000D01*
G01*
X101383000Y-89092000D01*
G75*
G02*
X101633000Y-88842000I250000J0D01*
G01*
X102583000Y-88842000D01*
G75*
G02*
X102833000Y-89092000I0J-250000D01*
G01*
X102833000Y-89767000D01*
G75*
G02*
X102583000Y-90017000I-250000J0D01*
G01*
G37*
%TD*%
M02*
